M48
; DRILL file {KiCad (6.0.0)} date Fri Jun 17 00:07:31 2022
; FORMAT={-:-/ absolute / inch / decimal}
; #@! TF.CreationDate,2022-06-17T00:07:31-05:00
; #@! TF.GenerationSoftware,Kicad,Pcbnew,(6.0.0)
; #@! TF.FileFunction,Plated,1,2,PTH
FMAT,2
INCH
; #@! TA.AperFunction,Plated,PTH,ViaDrill
T1C0.0157
; #@! TA.AperFunction,Plated,PTH,ComponentDrill
T2C0.0394
; #@! TA.AperFunction,Plated,PTH,ComponentDrill
T3C0.0472
; #@! TA.AperFunction,Plated,PTH,ComponentDrill
T4C0.0551
%
G90
G05
T1
X1.7642Y-3.8736
X1.8008Y-3.8287
X1.8077Y-3.9508
X1.822Y-3.8748
X1.976Y-3.8594
X1.9807Y-4.1087
X2.0283Y-3.8657
X2.0894Y-3.8606
X2.0972Y-4.3173
X2.122Y-3.1626
X2.1346Y-3.8669
X2.172Y-3.0961
X2.2087Y-3.0665
X2.2191Y-1.7622
X2.2429Y-3.1874
X2.2811Y-3.2217
X2.2969Y-2.5992
X2.2972Y-4.3618
X2.2982Y-4.0402
X2.3008Y-3.348
X2.3108Y-3.3011
X2.3173Y-3.244
X2.3331Y-4.1933
X2.3417Y-1.3563
X2.349Y-3.2726
X2.3698Y-3.5398
X2.374Y-3.7343
X2.4002Y-1.6673
X2.4394Y-3.7295
X2.4472Y-3.6327
X2.4519Y-3.6942
X2.4567Y-4.0413
X2.5228Y-4.478
X2.5646Y-4.4654
X2.5726Y-3.1673
X2.588Y-1.6673
X2.5944Y-4.4147
X2.7881Y-2.5022
X2.826Y-3.8961
X2.8754Y-3.2622
X2.9354Y-2.1169
X2.9627Y-2.4173
X2.9691Y-1.7622
X2.9691Y-4.0122
X3.0181Y-2.8736
X3.0323Y-1.3984
X3.0565Y-3.1673
X3.0568Y-4.6673
X3.115Y-3.615
X3.1502Y-1.6673
X3.1502Y-3.9173
X3.338Y-1.6673
X3.338Y-2.4173
X3.338Y-3.1673
X3.338Y-3.9173
X3.619Y-4.6673
X3.7191Y-1.7622
X3.7191Y-3.2622
X3.7191Y-4.0122
X3.7254Y-2.5022
X3.8039Y-1.3697
X3.8646Y-3.6346
X3.8661Y-2.1165
X3.8669Y-2.8795
X3.9002Y-1.6673
X3.9002Y-2.4173
X3.9002Y-3.1673
X3.9002Y-3.9173
X3.9943Y-4.6673
X4.088Y-1.6673
X4.088Y-2.4173
X4.088Y-3.1673
X4.088Y-3.9173
X4.4691Y-1.7622
X4.4691Y-3.2622
X4.4691Y-4.0122
X4.4747Y-2.5022
X4.5565Y-4.6673
X4.5618Y-1.3772
X4.6098Y-2.8815
X4.6201Y-2.1173
X4.6213Y-3.6091
X4.6502Y-1.6673
X4.6502Y-2.4173
X4.6502Y-3.1673
X4.6502Y-3.9173
X4.838Y-1.6673
X4.838Y-2.4173
X4.838Y-3.1673
X4.838Y-3.9173
X5.2191Y-1.7622
X5.2191Y-2.5122
X5.2191Y-3.2622
X5.2191Y-4.0122
X5.3358Y-1.378
X5.363Y-2.8791
X5.3665Y-3.6264
X5.3717Y-2.1319
X5.4002Y-1.6673
X5.4002Y-2.4173
X5.4002Y-3.1673
X5.4002Y-3.9173
X5.588Y-1.6673
X5.588Y-2.4173
X5.588Y-3.1673
X5.588Y-3.9173
X5.588Y-4.6673
X5.9691Y-1.7622
X5.9691Y-2.5122
X5.9691Y-3.2622
X5.9691Y-4.0122
X6.0685Y-1.3874
X6.1161Y-2.8831
X6.1193Y-2.128
X6.1307Y-3.6697
X6.1502Y-1.6673
X6.1502Y-2.4173
X6.1502Y-3.1673
X6.1502Y-3.9173
X6.1502Y-4.6673
X6.338Y-1.6673
X6.338Y-2.4173
X6.338Y-3.1673
X6.338Y-3.9173
X6.7191Y-1.7622
X6.7191Y-2.5122
X6.7191Y-3.2622
X6.7191Y-4.0122
X6.8323Y-1.3815
X6.8594Y-3.6157
X6.865Y-2.8736
X6.8661Y-2.1287
X6.9002Y-1.6673
X6.9002Y-2.4173
X6.9002Y-3.1673
X6.9002Y-3.9173
X7.088Y-1.6673
X7.088Y-2.4173
X7.088Y-3.1673
X7.088Y-3.9173
X7.088Y-4.6673
X7.4691Y-1.7622
X7.4691Y-2.5122
X7.4691Y-3.2622
X7.4691Y-4.0122
X7.611Y-1.3783
X7.613Y-2.878
X7.6197Y-3.6248
X7.628Y-2.1358
X7.6502Y-1.6673
X7.6502Y-2.4173
X7.6502Y-3.1673
X7.6502Y-3.9173
X7.6502Y-4.6673
X7.838Y-1.6673
X7.838Y-2.4173
X7.838Y-3.1673
X7.838Y-3.9173
X8.2191Y-1.7622
X8.2191Y-2.5122
X8.2191Y-3.2622
X8.2191Y-4.0122
X8.3567Y-1.3728
X8.3579Y-3.6331
X8.3622Y-2.8941
X8.3713Y-2.1276
X8.4002Y-1.6673
X8.4002Y-2.4173
X8.4002Y-3.1673
X8.4002Y-3.9173
X8.588Y-1.6673
X8.588Y-2.4173
X8.588Y-3.1673
X8.588Y-3.9173
X8.588Y-4.6673
X8.9691Y-1.7622
X8.9691Y-2.5122
X8.9691Y-3.2622
X9.111Y-2.8799
X9.1126Y-1.3744
X9.1181Y-2.1232
X9.1502Y-1.6673
X9.1502Y-2.4173
X9.1502Y-3.1673
X9.1502Y-3.9173
X9.1502Y-4.6673
X9.338Y-1.6673
X9.338Y-2.4173
X9.338Y-3.1673
X9.338Y-3.9173
X9.7191Y-1.7622
X9.7191Y-2.5122
X9.7191Y-3.2622
X9.8598Y-2.874
X9.8661Y-1.3661
X9.8673Y-2.1217
X9.9002Y-1.6673
X9.9002Y-2.4173
X9.9002Y-3.1673
X9.9002Y-3.9173
X10.088Y-1.6673
X10.088Y-2.4173
X10.088Y-3.1673
X10.088Y-3.9173
X10.1818Y-4.6673
X10.4691Y-1.7622
X10.4691Y-2.5122
X10.4691Y-3.2622
X10.613Y-1.3654
X10.613Y-2.1154
X10.6181Y-2.872
X10.6502Y-1.6673
X10.6502Y-2.4173
X10.6502Y-3.1673
X10.6502Y-3.9173
X10.744Y-4.6673
X10.838Y-1.6673
X10.838Y-2.4173
X10.838Y-3.1673
X11.0255Y-4.6673
X11.213Y-3.9173
X11.2191Y-1.7622
X11.2191Y-2.5122
X11.2191Y-3.2622
X11.3657Y-2.8752
X11.3693Y-1.3764
X11.3697Y-2.1106
X11.4002Y-1.6673
X11.4002Y-2.4173
X11.4002Y-3.1673
X11.5877Y-4.6673
X11.588Y-1.6673
X11.588Y-2.4173
X11.7752Y-3.9173
X11.8693Y-4.6673
X11.9691Y-1.7622
X11.9691Y-2.5122
X12.0568Y-3.1673
X12.1154Y-1.3587
X12.1228Y-2.1043
X12.1502Y-1.6673
X12.1502Y-2.4173
X12.338Y-1.6673
X12.338Y-3.9173
X12.4379Y-3.2622
X12.5255Y-2.4173
X12.5894Y-2.8835
X13.0528Y-2.1299
X13.0877Y-2.4173
X13.1752Y-1.4126
T2
X2.5766Y-4.5892
X2.5766Y-4.6892
X2.5766Y-4.7892
X2.6766Y-4.5892
X2.6766Y-4.6892
X2.6766Y-4.7892
T3
X1.7764Y-2.6856
X1.7764Y-2.9907
T4
X1.926Y-2.6915
X1.926Y-2.9848
T0
M30
