M48
; DRILL file {KiCad (6.0.0)} date Fri Jun 17 00:07:31 2022
; FORMAT={-:-/ absolute / inch / decimal}
; #@! TF.CreationDate,2022-06-17T00:07:31-05:00
; #@! TF.GenerationSoftware,Kicad,Pcbnew,(6.0.0)
; #@! TF.FileFunction,NonPlated,1,2,NPTH
FMAT,2
INCH
; #@! TA.AperFunction,NonPlated,NPTH,ComponentDrill
T1C0.0315
; #@! TA.AperFunction,NonPlated,NPTH,ComponentDrill
T2C0.0670
; #@! TA.AperFunction,NonPlated,NPTH,ComponentDrill
T3C0.1181
; #@! TA.AperFunction,NonPlated,NPTH,ComponentDrill
T4C0.1200
; #@! TA.AperFunction,NonPlated,NPTH,ComponentDrill
T5C0.1260
; #@! TA.AperFunction,NonPlated,NPTH,ComponentDrill
T6C0.1570
%
G90
G05
T1
X1.8846Y-2.7398
X1.8846Y-2.9366
T2
X1.9195Y-1.4803
X2.3195Y-1.4803
X2.482Y-2.2303
X2.5758Y-2.9803
X2.6695Y-1.4803
X2.6695Y-3.7303
X2.882Y-2.2303
X2.9758Y-2.9803
X3.0695Y-1.4803
X3.0695Y-3.7303
X3.1383Y-4.4803
X3.4195Y-1.4803
X3.4195Y-2.2303
X3.4195Y-2.9803
X3.4195Y-3.7303
X3.5383Y-4.4803
X3.8195Y-1.4803
X3.8195Y-2.2303
X3.8195Y-2.9803
X3.8195Y-3.7303
X4.0758Y-4.4803
X4.1695Y-1.4803
X4.1695Y-2.2303
X4.1695Y-2.9803
X4.1695Y-3.7303
X4.4758Y-4.4803
X4.5695Y-1.4803
X4.5695Y-2.2303
X4.5695Y-2.9803
X4.5695Y-3.7303
X4.9195Y-1.4803
X4.9195Y-2.2303
X4.9195Y-2.9803
X4.9195Y-3.7303
X5.3195Y-1.4803
X5.3195Y-2.2303
X5.3195Y-2.9803
X5.3195Y-3.7303
X5.6695Y-1.4803
X5.6695Y-2.2303
X5.6695Y-2.9803
X5.6695Y-3.7303
X5.6695Y-4.4803
X6.0695Y-1.4803
X6.0695Y-2.2303
X6.0695Y-2.9803
X6.0695Y-3.7303
X6.0695Y-4.4803
X6.4195Y-1.4803
X6.4195Y-2.2303
X6.4195Y-2.9803
X6.4195Y-3.7303
X6.8195Y-1.4803
X6.8195Y-2.2303
X6.8195Y-2.9803
X6.8195Y-3.7303
X7.1695Y-1.4803
X7.1695Y-2.2303
X7.1695Y-2.9803
X7.1695Y-3.7303
X7.1695Y-4.4803
X7.5695Y-1.4803
X7.5695Y-2.2303
X7.5695Y-2.9803
X7.5695Y-3.7303
X7.5695Y-4.4803
X7.9195Y-1.4803
X7.9195Y-2.2303
X7.9195Y-2.9803
X7.9195Y-3.7303
X8.3195Y-1.4803
X8.3195Y-2.2303
X8.3195Y-2.9803
X8.3195Y-3.7303
X8.6695Y-1.4803
X8.6695Y-2.2303
X8.6695Y-2.9803
X8.6695Y-3.7303
X8.6695Y-4.4803
X9.0695Y-1.4803
X9.0695Y-2.2303
X9.0695Y-2.9803
X9.0695Y-3.7303
X9.0695Y-4.4803
X9.4195Y-1.4803
X9.4195Y-2.2303
X9.4195Y-2.9803
X9.4195Y-3.7303
X9.8195Y-1.4803
X9.8195Y-2.2303
X9.8195Y-2.9803
X9.8195Y-3.7303
X10.1695Y-1.4803
X10.1695Y-2.2303
X10.1695Y-2.9803
X10.1695Y-3.7303
X10.2633Y-4.4803
X10.5695Y-1.4803
X10.5695Y-2.2303
X10.5695Y-2.9803
X10.5695Y-3.7303
X10.6633Y-4.4803
X10.9195Y-1.4803
X10.9195Y-2.2303
X10.9195Y-2.9803
X11.107Y-4.4803
X11.2945Y-3.7303
X11.3195Y-1.4803
X11.3195Y-2.2303
X11.3195Y-2.9803
X11.507Y-4.4803
X11.6695Y-1.4803
X11.6695Y-2.2303
X11.6945Y-3.7303
X11.9508Y-4.4803
X12.0695Y-1.4803
X12.0695Y-2.2303
X12.1383Y-2.9803
X12.3508Y-4.4803
X12.4195Y-3.7303
X12.5383Y-2.9803
X12.607Y-2.2303
X12.7955Y-1.4799
X12.8195Y-3.7303
X13.007Y-2.2303
X13.1955Y-1.4799
T3
X1.9695Y-1.3803
X2.2195Y-1.2803
X2.532Y-2.1303
X2.6258Y-2.8803
X2.7195Y-1.3803
X2.7195Y-3.6303
X2.782Y-2.0303
X2.8758Y-2.7803
X2.9695Y-1.2803
X2.9695Y-3.5303
X3.1883Y-4.3803
X3.4383Y-4.2803
X3.4695Y-1.3803
X3.4695Y-2.1303
X3.4695Y-2.8803
X3.4695Y-3.6303
X3.7195Y-1.2803
X3.7195Y-2.0303
X3.7195Y-2.7803
X3.7195Y-3.5303
X4.1258Y-4.3803
X4.2195Y-1.3803
X4.2195Y-2.1303
X4.2195Y-2.8803
X4.2195Y-3.6303
X4.3758Y-4.2803
X4.4695Y-1.2803
X4.4695Y-2.0303
X4.4695Y-2.7803
X4.4695Y-3.5303
X4.9695Y-1.3803
X4.9695Y-2.1303
X4.9695Y-2.8803
X4.9695Y-3.6303
X5.2195Y-1.2803
X5.2195Y-2.0303
X5.2195Y-2.7803
X5.2195Y-3.5303
X5.7195Y-1.3803
X5.7195Y-2.1303
X5.7195Y-2.8803
X5.7195Y-3.6303
X5.7195Y-4.3803
X5.9695Y-1.2803
X5.9695Y-2.0303
X5.9695Y-2.7803
X5.9695Y-3.5303
X5.9695Y-4.2803
X6.4695Y-1.3803
X6.4695Y-2.1303
X6.4695Y-2.8803
X6.4695Y-3.6303
X6.7195Y-1.2803
X6.7195Y-2.0303
X6.7195Y-2.7803
X6.7195Y-3.5303
X7.2195Y-1.3803
X7.2195Y-2.1303
X7.2195Y-2.8803
X7.2195Y-3.6303
X7.2195Y-4.3803
X7.4695Y-1.2803
X7.4695Y-2.0303
X7.4695Y-2.7803
X7.4695Y-3.5303
X7.4695Y-4.2803
X7.9695Y-1.3803
X7.9695Y-2.1303
X7.9695Y-2.8803
X7.9695Y-3.6303
X8.2195Y-1.2803
X8.2195Y-2.0303
X8.2195Y-2.7803
X8.2195Y-3.5303
X8.7195Y-1.3803
X8.7195Y-2.1303
X8.7195Y-2.8803
X8.7195Y-3.6303
X8.7195Y-4.3803
X8.9695Y-1.2803
X8.9695Y-2.0303
X8.9695Y-2.7803
X8.9695Y-3.5303
X8.9695Y-4.2803
X9.4695Y-1.3803
X9.4695Y-2.1303
X9.4695Y-2.8803
X9.4695Y-3.6303
X9.7195Y-1.2803
X9.7195Y-2.0303
X9.7195Y-2.7803
X9.7195Y-3.5303
X10.2195Y-1.3803
X10.2195Y-2.1303
X10.2195Y-2.8803
X10.2195Y-3.6303
X10.3133Y-4.3803
X10.4695Y-1.2803
X10.4695Y-2.0303
X10.4695Y-2.7803
X10.4695Y-3.5303
X10.5633Y-4.2803
X10.9695Y-1.3803
X10.9695Y-2.1303
X10.9695Y-2.8803
X11.157Y-4.3803
X11.2195Y-1.2803
X11.2195Y-2.0303
X11.2195Y-2.7803
X11.3445Y-3.6303
X11.407Y-4.2803
X11.5945Y-3.5303
X11.7195Y-1.3803
X11.7195Y-2.1303
X11.9695Y-1.2803
X11.9695Y-2.0303
X12.0008Y-4.3803
X12.1883Y-2.8803
X12.2508Y-4.2803
X12.4383Y-2.7803
X12.4695Y-3.6303
X12.657Y-2.1303
X12.7195Y-3.5303
X12.8455Y-1.3799
X12.907Y-2.0303
X13.0955Y-1.2799
T4
X5.1197Y-4.2051
X6.6197Y-4.2051
X8.1197Y-4.2053
X9.6197Y-4.2053
X11.0245Y-3.4553
X11.869Y-2.7051
X11.9645Y-3.4553
X12.5245Y-1.2055
X12.809Y-2.7051
X13.4645Y-1.2055
T5
X2.1665Y-2.1035
X4.7575Y-4.4539
X9.9559Y-4.3831
X13.4224Y-2.1035
T6
X2.1195Y-1.4803
X2.682Y-2.2303
X2.7758Y-2.9803
X2.8695Y-1.4803
X2.8695Y-3.7303
X3.3383Y-4.4803
X3.6195Y-1.4803
X3.6195Y-2.2303
X3.6195Y-2.9803
X3.6195Y-3.7303
X4.2758Y-4.4803
X4.3695Y-1.4803
X4.3695Y-2.2303
X4.3695Y-2.9803
X4.3695Y-3.7303
X5.1195Y-1.4803
X5.1195Y-2.2303
X5.1195Y-2.9803
X5.1195Y-3.7303
X5.1197Y-4.8039
X5.8695Y-1.4803
X5.8695Y-2.2303
X5.8695Y-2.9803
X5.8695Y-3.7303
X5.8695Y-4.4803
X6.6195Y-1.4803
X6.6195Y-2.2303
X6.6195Y-2.9803
X6.6195Y-3.7303
X6.6197Y-4.8039
X7.3695Y-1.4803
X7.3695Y-2.2303
X7.3695Y-2.9803
X7.3695Y-3.7303
X7.3695Y-4.4803
X8.1195Y-1.4803
X8.1195Y-2.2303
X8.1195Y-2.9803
X8.1195Y-3.7303
X8.1197Y-4.8041
X8.8695Y-1.4803
X8.8695Y-2.2303
X8.8695Y-2.9803
X8.8695Y-3.7303
X8.8695Y-4.4803
X9.6195Y-1.4803
X9.6195Y-2.2303
X9.6195Y-2.9803
X9.6195Y-3.7303
X9.6197Y-4.8041
X10.3695Y-1.4803
X10.3695Y-2.2303
X10.3695Y-2.9803
X10.3695Y-3.7303
X10.4633Y-4.4803
X11.0245Y-4.0541
X11.1195Y-1.4803
X11.1195Y-2.2303
X11.1195Y-2.9803
X11.307Y-4.4803
X11.4945Y-3.7303
X11.869Y-3.3039
X11.8695Y-1.4803
X11.8695Y-2.2303
X11.9645Y-4.0541
X12.1508Y-4.4803
X12.3383Y-2.9803
X12.5245Y-1.8043
X12.6195Y-3.7303
X12.807Y-2.2303
X12.809Y-3.3039
X12.9955Y-1.4799
X13.4645Y-1.8043
T0
M30
