G04 #@! TF.GenerationSoftware,KiCad,Pcbnew,(6.0.0)*
G04 #@! TF.CreationDate,2022-06-17T00:07:40-05:00*
G04 #@! TF.ProjectId,okeeb,6f6b6565-622e-46b6-9963-61645f706362,rev?*
G04 #@! TF.SameCoordinates,Original*
G04 #@! TF.FileFunction,Legend,Top*
G04 #@! TF.FilePolarity,Positive*
%FSLAX46Y46*%
G04 Gerber Fmt 4.6, Leading zero omitted, Abs format (unit mm)*
G04 Created by KiCad (PCBNEW (6.0.0)) date 2022-06-17 00:07:40*
%MOMM*%
%LPD*%
G01*
G04 APERTURE LIST*
%ADD10C,0.150000*%
G04 APERTURE END LIST*
D10*
X54268095Y-50082380D02*
X54268095Y-49082380D01*
X54268095Y-49558571D02*
X54839523Y-49558571D01*
X54839523Y-50082380D02*
X54839523Y-49082380D01*
X55268095Y-49177619D02*
X55315714Y-49130000D01*
X55410952Y-49082380D01*
X55649047Y-49082380D01*
X55744285Y-49130000D01*
X55791904Y-49177619D01*
X55839523Y-49272857D01*
X55839523Y-49368095D01*
X55791904Y-49510952D01*
X55220476Y-50082380D01*
X55839523Y-50082380D01*
X340168095Y-50082380D02*
X340168095Y-49082380D01*
X340168095Y-49558571D02*
X340739523Y-49558571D01*
X340739523Y-50082380D02*
X340739523Y-49082380D01*
X341120476Y-49082380D02*
X341739523Y-49082380D01*
X341406190Y-49463333D01*
X341549047Y-49463333D01*
X341644285Y-49510952D01*
X341691904Y-49558571D01*
X341739523Y-49653809D01*
X341739523Y-49891904D01*
X341691904Y-49987142D01*
X341644285Y-50034761D01*
X341549047Y-50082380D01*
X341263333Y-50082380D01*
X341168095Y-50034761D01*
X341120476Y-49987142D01*
X252118095Y-107982380D02*
X252118095Y-106982380D01*
X252118095Y-107458571D02*
X252689523Y-107458571D01*
X252689523Y-107982380D02*
X252689523Y-106982380D01*
X253594285Y-107315714D02*
X253594285Y-107982380D01*
X253356190Y-106934761D02*
X253118095Y-107649047D01*
X253737142Y-107649047D01*
X120078095Y-109782380D02*
X120078095Y-108782380D01*
X120078095Y-109258571D02*
X120649523Y-109258571D01*
X120649523Y-109782380D02*
X120649523Y-108782380D01*
X121649523Y-109782380D02*
X121078095Y-109782380D01*
X121363809Y-109782380D02*
X121363809Y-108782380D01*
X121268571Y-108925238D01*
X121173333Y-109020476D01*
X121078095Y-109068095D01*
X147423333Y-112247430D02*
X147423333Y-111247430D01*
X147661428Y-111247430D01*
X147804285Y-111295050D01*
X147899523Y-111390288D01*
X147947142Y-111485526D01*
X147994761Y-111676002D01*
X147994761Y-111818859D01*
X147947142Y-112009335D01*
X147899523Y-112104573D01*
X147804285Y-112199811D01*
X147661428Y-112247430D01*
X147423333Y-112247430D01*
X148994761Y-112247430D02*
X148661428Y-111771240D01*
X148423333Y-112247430D02*
X148423333Y-111247430D01*
X148804285Y-111247430D01*
X148899523Y-111295050D01*
X148947142Y-111342669D01*
X148994761Y-111437907D01*
X148994761Y-111580764D01*
X148947142Y-111676002D01*
X148899523Y-111723621D01*
X148804285Y-111771240D01*
X148423333Y-111771240D01*
X149375714Y-111961716D02*
X149851904Y-111961716D01*
X149280476Y-112247430D02*
X149613809Y-111247430D01*
X149947142Y-112247430D01*
X150709047Y-111580764D02*
X150709047Y-112247430D01*
X150470952Y-111199811D02*
X150232857Y-111914097D01*
X150851904Y-111914097D01*
X223623333Y-112252380D02*
X223623333Y-111252380D01*
X223861428Y-111252380D01*
X224004285Y-111300000D01*
X224099523Y-111395238D01*
X224147142Y-111490476D01*
X224194761Y-111680952D01*
X224194761Y-111823809D01*
X224147142Y-112014285D01*
X224099523Y-112109523D01*
X224004285Y-112204761D01*
X223861428Y-112252380D01*
X223623333Y-112252380D01*
X225194761Y-112252380D02*
X224861428Y-111776190D01*
X224623333Y-112252380D02*
X224623333Y-111252380D01*
X225004285Y-111252380D01*
X225099523Y-111300000D01*
X225147142Y-111347619D01*
X225194761Y-111442857D01*
X225194761Y-111585714D01*
X225147142Y-111680952D01*
X225099523Y-111728571D01*
X225004285Y-111776190D01*
X224623333Y-111776190D01*
X225575714Y-111966666D02*
X226051904Y-111966666D01*
X225480476Y-112252380D02*
X225813809Y-111252380D01*
X226147142Y-112252380D01*
X226385238Y-111252380D02*
X227004285Y-111252380D01*
X226670952Y-111633333D01*
X226813809Y-111633333D01*
X226909047Y-111680952D01*
X226956666Y-111728571D01*
X227004285Y-111823809D01*
X227004285Y-112061904D01*
X226956666Y-112157142D01*
X226909047Y-112204761D01*
X226813809Y-112252380D01*
X226528095Y-112252380D01*
X226432857Y-112204761D01*
X226385238Y-112157142D01*
X328393333Y-36057380D02*
X328393333Y-35057380D01*
X328631428Y-35057380D01*
X328774285Y-35105000D01*
X328869523Y-35200238D01*
X328917142Y-35295476D01*
X328964761Y-35485952D01*
X328964761Y-35628809D01*
X328917142Y-35819285D01*
X328869523Y-35914523D01*
X328774285Y-36009761D01*
X328631428Y-36057380D01*
X328393333Y-36057380D01*
X329964761Y-36057380D02*
X329631428Y-35581190D01*
X329393333Y-36057380D02*
X329393333Y-35057380D01*
X329774285Y-35057380D01*
X329869523Y-35105000D01*
X329917142Y-35152619D01*
X329964761Y-35247857D01*
X329964761Y-35390714D01*
X329917142Y-35485952D01*
X329869523Y-35533571D01*
X329774285Y-35581190D01*
X329393333Y-35581190D01*
X330345714Y-35771666D02*
X330821904Y-35771666D01*
X330250476Y-36057380D02*
X330583809Y-35057380D01*
X330917142Y-36057380D01*
X331726666Y-35057380D02*
X331250476Y-35057380D01*
X331202857Y-35533571D01*
X331250476Y-35485952D01*
X331345714Y-35438333D01*
X331583809Y-35438333D01*
X331679047Y-35485952D01*
X331726666Y-35533571D01*
X331774285Y-35628809D01*
X331774285Y-35866904D01*
X331726666Y-35962142D01*
X331679047Y-36009761D01*
X331583809Y-36057380D01*
X331345714Y-36057380D01*
X331250476Y-36009761D01*
X331202857Y-35962142D01*
X311743333Y-74147430D02*
X311743333Y-73147430D01*
X311981428Y-73147430D01*
X312124285Y-73195050D01*
X312219523Y-73290288D01*
X312267142Y-73385526D01*
X312314761Y-73576002D01*
X312314761Y-73718859D01*
X312267142Y-73909335D01*
X312219523Y-74004573D01*
X312124285Y-74099811D01*
X311981428Y-74147430D01*
X311743333Y-74147430D01*
X313314761Y-74147430D02*
X312981428Y-73671240D01*
X312743333Y-74147430D02*
X312743333Y-73147430D01*
X313124285Y-73147430D01*
X313219523Y-73195050D01*
X313267142Y-73242669D01*
X313314761Y-73337907D01*
X313314761Y-73480764D01*
X313267142Y-73576002D01*
X313219523Y-73623621D01*
X313124285Y-73671240D01*
X312743333Y-73671240D01*
X313695714Y-73861716D02*
X314171904Y-73861716D01*
X313600476Y-74147430D02*
X313933809Y-73147430D01*
X314267142Y-74147430D01*
X314552857Y-73242669D02*
X314600476Y-73195050D01*
X314695714Y-73147430D01*
X314933809Y-73147430D01*
X315029047Y-73195050D01*
X315076666Y-73242669D01*
X315124285Y-73337907D01*
X315124285Y-73433145D01*
X315076666Y-73576002D01*
X314505238Y-74147430D01*
X315124285Y-74147430D01*
X290293333Y-93202380D02*
X290293333Y-92202380D01*
X290531428Y-92202380D01*
X290674285Y-92250000D01*
X290769523Y-92345238D01*
X290817142Y-92440476D01*
X290864761Y-92630952D01*
X290864761Y-92773809D01*
X290817142Y-92964285D01*
X290769523Y-93059523D01*
X290674285Y-93154761D01*
X290531428Y-93202380D01*
X290293333Y-93202380D01*
X291864761Y-93202380D02*
X291531428Y-92726190D01*
X291293333Y-93202380D02*
X291293333Y-92202380D01*
X291674285Y-92202380D01*
X291769523Y-92250000D01*
X291817142Y-92297619D01*
X291864761Y-92392857D01*
X291864761Y-92535714D01*
X291817142Y-92630952D01*
X291769523Y-92678571D01*
X291674285Y-92726190D01*
X291293333Y-92726190D01*
X292245714Y-92916666D02*
X292721904Y-92916666D01*
X292150476Y-93202380D02*
X292483809Y-92202380D01*
X292817142Y-93202380D01*
X293674285Y-93202380D02*
X293102857Y-93202380D01*
X293388571Y-93202380D02*
X293388571Y-92202380D01*
X293293333Y-92345238D01*
X293198095Y-92440476D01*
X293102857Y-92488095D01*
X60836250Y-30600000D02*
X60836250Y-31600000D01*
X60836250Y-43600000D02*
X60836250Y-44600000D01*
X60836250Y-30600000D02*
X59836250Y-30600000D01*
X47836250Y-30600000D02*
X46836250Y-30600000D01*
X59836250Y-44600000D02*
X60836250Y-44600000D01*
X46836250Y-31600000D02*
X46836250Y-30600000D01*
X46836250Y-44600000D02*
X46836250Y-43600000D01*
X46836250Y-44600000D02*
X47836250Y-44600000D01*
X281198750Y-106800000D02*
X280198750Y-106800000D01*
X294198750Y-106800000D02*
X293198750Y-106800000D01*
X294198750Y-119800000D02*
X294198750Y-120800000D01*
X293198750Y-120800000D02*
X294198750Y-120800000D01*
X280198750Y-120800000D02*
X280198750Y-119800000D01*
X294198750Y-106800000D02*
X294198750Y-107800000D01*
X280198750Y-107800000D02*
X280198750Y-106800000D01*
X280198750Y-120800000D02*
X281198750Y-120800000D01*
X284961250Y-101750000D02*
X285961250Y-101750000D01*
X284961250Y-101750000D02*
X284961250Y-100750000D01*
X298961250Y-87750000D02*
X298961250Y-88750000D01*
X297961250Y-101750000D02*
X298961250Y-101750000D01*
X284961250Y-88750000D02*
X284961250Y-87750000D01*
X298961250Y-87750000D02*
X297961250Y-87750000D01*
X298961250Y-100750000D02*
X298961250Y-101750000D01*
X285961250Y-87750000D02*
X284961250Y-87750000D01*
X156086250Y-68700000D02*
X156086250Y-69700000D01*
X143086250Y-68700000D02*
X142086250Y-68700000D01*
X156086250Y-81700000D02*
X156086250Y-82700000D01*
X142086250Y-82700000D02*
X142086250Y-81700000D01*
X156086250Y-68700000D02*
X155086250Y-68700000D01*
X155086250Y-82700000D02*
X156086250Y-82700000D01*
X142086250Y-82700000D02*
X143086250Y-82700000D01*
X142086250Y-69700000D02*
X142086250Y-68700000D01*
X231286250Y-82700000D02*
X232286250Y-82700000D01*
X218286250Y-82700000D02*
X218286250Y-81700000D01*
X232286250Y-81700000D02*
X232286250Y-82700000D01*
X219286250Y-68700000D02*
X218286250Y-68700000D01*
X232286250Y-68700000D02*
X231286250Y-68700000D01*
X218286250Y-82700000D02*
X219286250Y-82700000D01*
X218286250Y-69700000D02*
X218286250Y-68700000D01*
X232286250Y-68700000D02*
X232286250Y-69700000D01*
X232286250Y-49650000D02*
X231286250Y-49650000D01*
X218286250Y-63650000D02*
X218286250Y-62650000D01*
X232286250Y-49650000D02*
X232286250Y-50650000D01*
X232286250Y-62650000D02*
X232286250Y-63650000D01*
X218286250Y-50650000D02*
X218286250Y-49650000D01*
X231286250Y-63650000D02*
X232286250Y-63650000D01*
X218286250Y-63650000D02*
X219286250Y-63650000D01*
X219286250Y-49650000D02*
X218286250Y-49650000D01*
X175136250Y-43600000D02*
X175136250Y-44600000D01*
X175136250Y-30600000D02*
X175136250Y-31600000D01*
X175136250Y-30600000D02*
X174136250Y-30600000D01*
X161136250Y-44600000D02*
X162136250Y-44600000D01*
X161136250Y-31600000D02*
X161136250Y-30600000D01*
X174136250Y-44600000D02*
X175136250Y-44600000D01*
X161136250Y-44600000D02*
X161136250Y-43600000D01*
X162136250Y-30600000D02*
X161136250Y-30600000D01*
X258767500Y-107800000D02*
X258767500Y-106800000D01*
X272767500Y-106800000D02*
X272767500Y-107800000D01*
X258767500Y-120800000D02*
X259767500Y-120800000D01*
X272767500Y-106800000D02*
X271767500Y-106800000D01*
X271767500Y-120800000D02*
X272767500Y-120800000D01*
X259767500Y-106800000D02*
X258767500Y-106800000D01*
X272767500Y-119800000D02*
X272767500Y-120800000D01*
X258767500Y-120800000D02*
X258767500Y-119800000D01*
X327536250Y-87750000D02*
X327536250Y-88750000D01*
X326536250Y-101750000D02*
X327536250Y-101750000D01*
X313536250Y-101750000D02*
X313536250Y-100750000D01*
X314536250Y-87750000D02*
X313536250Y-87750000D01*
X327536250Y-87750000D02*
X326536250Y-87750000D01*
X327536250Y-100750000D02*
X327536250Y-101750000D01*
X313536250Y-101750000D02*
X314536250Y-101750000D01*
X313536250Y-88750000D02*
X313536250Y-87750000D01*
X75123750Y-62650000D02*
X75123750Y-63650000D01*
X61123750Y-63650000D02*
X61123750Y-62650000D01*
X74123750Y-63650000D02*
X75123750Y-63650000D01*
X61123750Y-50650000D02*
X61123750Y-49650000D01*
X75123750Y-49650000D02*
X74123750Y-49650000D01*
X61123750Y-63650000D02*
X62123750Y-63650000D01*
X75123750Y-49650000D02*
X75123750Y-50650000D01*
X62123750Y-49650000D02*
X61123750Y-49650000D01*
X77505000Y-68700000D02*
X76505000Y-68700000D01*
X77505000Y-81700000D02*
X77505000Y-82700000D01*
X63505000Y-69700000D02*
X63505000Y-68700000D01*
X63505000Y-82700000D02*
X63505000Y-81700000D01*
X76505000Y-82700000D02*
X77505000Y-82700000D01*
X77505000Y-68700000D02*
X77505000Y-69700000D01*
X64505000Y-68700000D02*
X63505000Y-68700000D01*
X63505000Y-82700000D02*
X64505000Y-82700000D01*
X194186250Y-43600000D02*
X194186250Y-44600000D01*
X180186250Y-44600000D02*
X180186250Y-43600000D01*
X180186250Y-31600000D02*
X180186250Y-30600000D01*
X193186250Y-44600000D02*
X194186250Y-44600000D01*
X194186250Y-30600000D02*
X193186250Y-30600000D01*
X194186250Y-30600000D02*
X194186250Y-31600000D01*
X181186250Y-30600000D02*
X180186250Y-30600000D01*
X180186250Y-44600000D02*
X181186250Y-44600000D01*
X104986250Y-49650000D02*
X103986250Y-49650000D01*
X117986250Y-49650000D02*
X116986250Y-49650000D01*
X103986250Y-63650000D02*
X104986250Y-63650000D01*
X117986250Y-49650000D02*
X117986250Y-50650000D01*
X117986250Y-62650000D02*
X117986250Y-63650000D01*
X116986250Y-63650000D02*
X117986250Y-63650000D01*
X103986250Y-63650000D02*
X103986250Y-62650000D01*
X103986250Y-50650000D02*
X103986250Y-49650000D01*
X137036250Y-49650000D02*
X137036250Y-50650000D01*
X123036250Y-50650000D02*
X123036250Y-49650000D01*
X123036250Y-63650000D02*
X124036250Y-63650000D01*
X123036250Y-63650000D02*
X123036250Y-62650000D01*
X136036250Y-63650000D02*
X137036250Y-63650000D01*
X137036250Y-62650000D02*
X137036250Y-63650000D01*
X137036250Y-49650000D02*
X136036250Y-49650000D01*
X124036250Y-49650000D02*
X123036250Y-49650000D01*
X66886250Y-30600000D02*
X65886250Y-30600000D01*
X65886250Y-44600000D02*
X66886250Y-44600000D01*
X79886250Y-30600000D02*
X78886250Y-30600000D01*
X65886250Y-44600000D02*
X65886250Y-43600000D01*
X79886250Y-30600000D02*
X79886250Y-31600000D01*
X65886250Y-31600000D02*
X65886250Y-30600000D01*
X79886250Y-43600000D02*
X79886250Y-44600000D01*
X78886250Y-44600000D02*
X79886250Y-44600000D01*
X180186250Y-120800000D02*
X181186250Y-120800000D01*
X193186250Y-120800000D02*
X194186250Y-120800000D01*
X180186250Y-120800000D02*
X180186250Y-119800000D01*
X194186250Y-119800000D02*
X194186250Y-120800000D01*
X194186250Y-106800000D02*
X193186250Y-106800000D01*
X194186250Y-106800000D02*
X194186250Y-107800000D01*
X181186250Y-106800000D02*
X180186250Y-106800000D01*
X180186250Y-107800000D02*
X180186250Y-106800000D01*
X275436250Y-63650000D02*
X275436250Y-62650000D01*
X288436250Y-63650000D02*
X289436250Y-63650000D01*
X275436250Y-63650000D02*
X276436250Y-63650000D01*
X275436250Y-50650000D02*
X275436250Y-49650000D01*
X289436250Y-49650000D02*
X288436250Y-49650000D01*
X289436250Y-49650000D02*
X289436250Y-50650000D01*
X276436250Y-49650000D02*
X275436250Y-49650000D01*
X289436250Y-62650000D02*
X289436250Y-63650000D01*
X275436250Y-31600000D02*
X275436250Y-30600000D01*
X276436250Y-30600000D02*
X275436250Y-30600000D01*
X288436250Y-44600000D02*
X289436250Y-44600000D01*
X275436250Y-44600000D02*
X275436250Y-43600000D01*
X289436250Y-43600000D02*
X289436250Y-44600000D01*
X275436250Y-44600000D02*
X276436250Y-44600000D01*
X289436250Y-30600000D02*
X289436250Y-31600000D01*
X289436250Y-30600000D02*
X288436250Y-30600000D01*
X320392500Y-68700000D02*
X320392500Y-69700000D01*
X307392500Y-68700000D02*
X306392500Y-68700000D01*
X306392500Y-82700000D02*
X307392500Y-82700000D01*
X319392500Y-82700000D02*
X320392500Y-82700000D01*
X320392500Y-68700000D02*
X319392500Y-68700000D01*
X306392500Y-69700000D02*
X306392500Y-68700000D01*
X306392500Y-82700000D02*
X306392500Y-81700000D01*
X320392500Y-81700000D02*
X320392500Y-82700000D01*
X98936250Y-68700000D02*
X98936250Y-69700000D01*
X84936250Y-69700000D02*
X84936250Y-68700000D01*
X97936250Y-82700000D02*
X98936250Y-82700000D01*
X85936250Y-68700000D02*
X84936250Y-68700000D01*
X98936250Y-68700000D02*
X97936250Y-68700000D01*
X98936250Y-81700000D02*
X98936250Y-82700000D01*
X84936250Y-82700000D02*
X84936250Y-81700000D01*
X84936250Y-82700000D02*
X85936250Y-82700000D01*
X175136250Y-49650000D02*
X174136250Y-49650000D01*
X161136250Y-50650000D02*
X161136250Y-49650000D01*
X174136250Y-63650000D02*
X175136250Y-63650000D01*
X161136250Y-63650000D02*
X161136250Y-62650000D01*
X175136250Y-62650000D02*
X175136250Y-63650000D01*
X175136250Y-49650000D02*
X175136250Y-50650000D01*
X162136250Y-49650000D02*
X161136250Y-49650000D01*
X161136250Y-63650000D02*
X162136250Y-63650000D01*
X123036250Y-101750000D02*
X123036250Y-100750000D01*
X136036250Y-101750000D02*
X137036250Y-101750000D01*
X123036250Y-101750000D02*
X124036250Y-101750000D01*
X137036250Y-87750000D02*
X137036250Y-88750000D01*
X123036250Y-88750000D02*
X123036250Y-87750000D01*
X137036250Y-87750000D02*
X136036250Y-87750000D01*
X124036250Y-87750000D02*
X123036250Y-87750000D01*
X137036250Y-100750000D02*
X137036250Y-101750000D01*
X294486250Y-31600000D02*
X294486250Y-30600000D01*
X307486250Y-44600000D02*
X308486250Y-44600000D01*
X308486250Y-30600000D02*
X308486250Y-31600000D01*
X308486250Y-30600000D02*
X307486250Y-30600000D01*
X294486250Y-44600000D02*
X295486250Y-44600000D01*
X294486250Y-44600000D02*
X294486250Y-43600000D01*
X308486250Y-43600000D02*
X308486250Y-44600000D01*
X295486250Y-30600000D02*
X294486250Y-30600000D01*
X270386250Y-62650000D02*
X270386250Y-63650000D01*
X256386250Y-63650000D02*
X257386250Y-63650000D01*
X256386250Y-63650000D02*
X256386250Y-62650000D01*
X256386250Y-50650000D02*
X256386250Y-49650000D01*
X270386250Y-49650000D02*
X270386250Y-50650000D01*
X270386250Y-49650000D02*
X269386250Y-49650000D01*
X257386250Y-49650000D02*
X256386250Y-49650000D01*
X269386250Y-63650000D02*
X270386250Y-63650000D01*
X237336250Y-31600000D02*
X237336250Y-30600000D01*
X251336250Y-43600000D02*
X251336250Y-44600000D01*
X237336250Y-44600000D02*
X238336250Y-44600000D01*
X237336250Y-44600000D02*
X237336250Y-43600000D01*
X250336250Y-44600000D02*
X251336250Y-44600000D01*
X238336250Y-30600000D02*
X237336250Y-30600000D01*
X251336250Y-30600000D02*
X250336250Y-30600000D01*
X251336250Y-30600000D02*
X251336250Y-31600000D01*
X199236250Y-44600000D02*
X199236250Y-43600000D01*
X199236250Y-44600000D02*
X200236250Y-44600000D01*
X213236250Y-30600000D02*
X212236250Y-30600000D01*
X212236250Y-44600000D02*
X213236250Y-44600000D01*
X213236250Y-43600000D02*
X213236250Y-44600000D01*
X213236250Y-30600000D02*
X213236250Y-31600000D01*
X200236250Y-30600000D02*
X199236250Y-30600000D01*
X199236250Y-31600000D02*
X199236250Y-30600000D01*
X124036250Y-30600000D02*
X123036250Y-30600000D01*
X123036250Y-31600000D02*
X123036250Y-30600000D01*
X137036250Y-30600000D02*
X136036250Y-30600000D01*
X136036250Y-44600000D02*
X137036250Y-44600000D01*
X123036250Y-44600000D02*
X124036250Y-44600000D01*
X137036250Y-43600000D02*
X137036250Y-44600000D01*
X123036250Y-44600000D02*
X123036250Y-43600000D01*
X137036250Y-30600000D02*
X137036250Y-31600000D01*
X218286250Y-107800000D02*
X218286250Y-106800000D01*
X232286250Y-106800000D02*
X232286250Y-107800000D01*
X232286250Y-106800000D02*
X231286250Y-106800000D01*
X218286250Y-120800000D02*
X219286250Y-120800000D01*
X231286250Y-120800000D02*
X232286250Y-120800000D01*
X219286250Y-106800000D02*
X218286250Y-106800000D01*
X218286250Y-120800000D02*
X218286250Y-119800000D01*
X232286250Y-119800000D02*
X232286250Y-120800000D01*
X142086250Y-101750000D02*
X142086250Y-100750000D01*
X156086250Y-87750000D02*
X156086250Y-88750000D01*
X155086250Y-101750000D02*
X156086250Y-101750000D01*
X142086250Y-88750000D02*
X142086250Y-87750000D01*
X156086250Y-87750000D02*
X155086250Y-87750000D01*
X143086250Y-87750000D02*
X142086250Y-87750000D01*
X156086250Y-100750000D02*
X156086250Y-101750000D01*
X142086250Y-101750000D02*
X143086250Y-101750000D01*
X218286250Y-101750000D02*
X218286250Y-100750000D01*
X232286250Y-87750000D02*
X231286250Y-87750000D01*
X232286250Y-100750000D02*
X232286250Y-101750000D01*
X219286250Y-87750000D02*
X218286250Y-87750000D01*
X232286250Y-87750000D02*
X232286250Y-88750000D01*
X218286250Y-101750000D02*
X219286250Y-101750000D01*
X218286250Y-88750000D02*
X218286250Y-87750000D01*
X231286250Y-101750000D02*
X232286250Y-101750000D01*
X193186250Y-101750000D02*
X194186250Y-101750000D01*
X180186250Y-101750000D02*
X181186250Y-101750000D01*
X194186250Y-87750000D02*
X194186250Y-88750000D01*
X181186250Y-87750000D02*
X180186250Y-87750000D01*
X194186250Y-100750000D02*
X194186250Y-101750000D01*
X180186250Y-88750000D02*
X180186250Y-87750000D01*
X194186250Y-87750000D02*
X193186250Y-87750000D01*
X180186250Y-101750000D02*
X180186250Y-100750000D01*
X212236250Y-82700000D02*
X213236250Y-82700000D01*
X213236250Y-68700000D02*
X213236250Y-69700000D01*
X199236250Y-82700000D02*
X199236250Y-81700000D01*
X200236250Y-68700000D02*
X199236250Y-68700000D01*
X213236250Y-68700000D02*
X212236250Y-68700000D01*
X199236250Y-82700000D02*
X200236250Y-82700000D01*
X199236250Y-69700000D02*
X199236250Y-68700000D01*
X213236250Y-81700000D02*
X213236250Y-82700000D01*
X212236250Y-101750000D02*
X213236250Y-101750000D01*
X213236250Y-87750000D02*
X212236250Y-87750000D01*
X199236250Y-101750000D02*
X199236250Y-100750000D01*
X213236250Y-87750000D02*
X213236250Y-88750000D01*
X199236250Y-88750000D02*
X199236250Y-87750000D01*
X199236250Y-101750000D02*
X200236250Y-101750000D01*
X200236250Y-87750000D02*
X199236250Y-87750000D01*
X213236250Y-100750000D02*
X213236250Y-101750000D01*
X162136250Y-68700000D02*
X161136250Y-68700000D01*
X175136250Y-68700000D02*
X175136250Y-69700000D01*
X161136250Y-82700000D02*
X162136250Y-82700000D01*
X174136250Y-82700000D02*
X175136250Y-82700000D01*
X161136250Y-82700000D02*
X161136250Y-81700000D01*
X175136250Y-81700000D02*
X175136250Y-82700000D01*
X175136250Y-68700000D02*
X174136250Y-68700000D01*
X161136250Y-69700000D02*
X161136250Y-68700000D01*
X156086250Y-62650000D02*
X156086250Y-63650000D01*
X142086250Y-63650000D02*
X142086250Y-62650000D01*
X142086250Y-63650000D02*
X143086250Y-63650000D01*
X142086250Y-50650000D02*
X142086250Y-49650000D01*
X156086250Y-49650000D02*
X156086250Y-50650000D01*
X143086250Y-49650000D02*
X142086250Y-49650000D01*
X156086250Y-49650000D02*
X155086250Y-49650000D01*
X155086250Y-63650000D02*
X156086250Y-63650000D01*
X237336250Y-101750000D02*
X238336250Y-101750000D01*
X251336250Y-87750000D02*
X250336250Y-87750000D01*
X237336250Y-101750000D02*
X237336250Y-100750000D01*
X250336250Y-101750000D02*
X251336250Y-101750000D01*
X238336250Y-87750000D02*
X237336250Y-87750000D01*
X251336250Y-87750000D02*
X251336250Y-88750000D01*
X237336250Y-88750000D02*
X237336250Y-87750000D01*
X251336250Y-100750000D02*
X251336250Y-101750000D01*
X84936250Y-44600000D02*
X84936250Y-43600000D01*
X84936250Y-31600000D02*
X84936250Y-30600000D01*
X97936250Y-44600000D02*
X98936250Y-44600000D01*
X85936250Y-30600000D02*
X84936250Y-30600000D01*
X98936250Y-30600000D02*
X98936250Y-31600000D01*
X84936250Y-44600000D02*
X85936250Y-44600000D01*
X98936250Y-30600000D02*
X97936250Y-30600000D01*
X98936250Y-43600000D02*
X98936250Y-44600000D01*
X256386250Y-82700000D02*
X256386250Y-81700000D01*
X270386250Y-68700000D02*
X269386250Y-68700000D01*
X257386250Y-68700000D02*
X256386250Y-68700000D01*
X270386250Y-81700000D02*
X270386250Y-82700000D01*
X256386250Y-82700000D02*
X257386250Y-82700000D01*
X270386250Y-68700000D02*
X270386250Y-69700000D01*
X269386250Y-82700000D02*
X270386250Y-82700000D01*
X256386250Y-69700000D02*
X256386250Y-68700000D01*
X323085000Y-44590000D02*
X324085000Y-44590000D01*
X337085000Y-43590000D02*
X337085000Y-44590000D01*
X337085000Y-30590000D02*
X337085000Y-31590000D01*
X324085000Y-30590000D02*
X323085000Y-30590000D01*
X323085000Y-44590000D02*
X323085000Y-43590000D01*
X336085000Y-44590000D02*
X337085000Y-44590000D01*
X323085000Y-31590000D02*
X323085000Y-30590000D01*
X337085000Y-30590000D02*
X336085000Y-30590000D01*
X85936250Y-49650000D02*
X84936250Y-49650000D01*
X97936250Y-63650000D02*
X98936250Y-63650000D01*
X98936250Y-49650000D02*
X97936250Y-49650000D01*
X84936250Y-63650000D02*
X85936250Y-63650000D01*
X84936250Y-50650000D02*
X84936250Y-49650000D01*
X98936250Y-49650000D02*
X98936250Y-50650000D01*
X98936250Y-62650000D02*
X98936250Y-63650000D01*
X84936250Y-63650000D02*
X84936250Y-62650000D01*
X218286250Y-44600000D02*
X219286250Y-44600000D01*
X232286250Y-30600000D02*
X231286250Y-30600000D01*
X231286250Y-44600000D02*
X232286250Y-44600000D01*
X218286250Y-31600000D02*
X218286250Y-30600000D01*
X232286250Y-43600000D02*
X232286250Y-44600000D01*
X219286250Y-30600000D02*
X218286250Y-30600000D01*
X232286250Y-30600000D02*
X232286250Y-31600000D01*
X218286250Y-44600000D02*
X218286250Y-43600000D01*
X84936250Y-101750000D02*
X85936250Y-101750000D01*
X98936250Y-100750000D02*
X98936250Y-101750000D01*
X98936250Y-87750000D02*
X98936250Y-88750000D01*
X85936250Y-87750000D02*
X84936250Y-87750000D01*
X97936250Y-101750000D02*
X98936250Y-101750000D01*
X84936250Y-88750000D02*
X84936250Y-87750000D01*
X84936250Y-101750000D02*
X84936250Y-100750000D01*
X98936250Y-87750000D02*
X97936250Y-87750000D01*
X181186250Y-68700000D02*
X180186250Y-68700000D01*
X180186250Y-82700000D02*
X180186250Y-81700000D01*
X194186250Y-68700000D02*
X193186250Y-68700000D01*
X194186250Y-81700000D02*
X194186250Y-82700000D01*
X193186250Y-82700000D02*
X194186250Y-82700000D01*
X180186250Y-82700000D02*
X181186250Y-82700000D01*
X194186250Y-68700000D02*
X194186250Y-69700000D01*
X180186250Y-69700000D02*
X180186250Y-68700000D01*
X251336250Y-62650000D02*
X251336250Y-63650000D01*
X237336250Y-50650000D02*
X237336250Y-49650000D01*
X250336250Y-63650000D02*
X251336250Y-63650000D01*
X251336250Y-49650000D02*
X250336250Y-49650000D01*
X251336250Y-49650000D02*
X251336250Y-50650000D01*
X237336250Y-63650000D02*
X238336250Y-63650000D01*
X238336250Y-49650000D02*
X237336250Y-49650000D01*
X237336250Y-63650000D02*
X237336250Y-62650000D01*
X180186250Y-50650000D02*
X180186250Y-49650000D01*
X180186250Y-63650000D02*
X180186250Y-62650000D01*
X194186250Y-49650000D02*
X194186250Y-50650000D01*
X194186250Y-62650000D02*
X194186250Y-63650000D01*
X194186250Y-49650000D02*
X193186250Y-49650000D01*
X181186250Y-49650000D02*
X180186250Y-49650000D01*
X180186250Y-63650000D02*
X181186250Y-63650000D01*
X193186250Y-63650000D02*
X194186250Y-63650000D01*
X200236250Y-49650000D02*
X199236250Y-49650000D01*
X199236250Y-63650000D02*
X200236250Y-63650000D01*
X213236250Y-62650000D02*
X213236250Y-63650000D01*
X213236250Y-49650000D02*
X212236250Y-49650000D01*
X199236250Y-50650000D02*
X199236250Y-49650000D01*
X212236250Y-63650000D02*
X213236250Y-63650000D01*
X199236250Y-63650000D02*
X199236250Y-62650000D01*
X213236250Y-49650000D02*
X213236250Y-50650000D01*
X77792500Y-107800000D02*
X77792500Y-106800000D01*
X77792500Y-120800000D02*
X77792500Y-119800000D01*
X90792500Y-120800000D02*
X91792500Y-120800000D01*
X91792500Y-119800000D02*
X91792500Y-120800000D01*
X77792500Y-120800000D02*
X78792500Y-120800000D01*
X78792500Y-106800000D02*
X77792500Y-106800000D01*
X91792500Y-106800000D02*
X91792500Y-107800000D01*
X91792500Y-106800000D02*
X90792500Y-106800000D01*
X332298750Y-49650000D02*
X331298750Y-49650000D01*
X318298750Y-63650000D02*
X318298750Y-62650000D01*
X318298750Y-63650000D02*
X319298750Y-63650000D01*
X318298750Y-50650000D02*
X318298750Y-49650000D01*
X319298750Y-49650000D02*
X318298750Y-49650000D01*
X331298750Y-63650000D02*
X332298750Y-63650000D01*
X332298750Y-62650000D02*
X332298750Y-63650000D01*
X332298750Y-49650000D02*
X332298750Y-50650000D01*
X117986250Y-87750000D02*
X117986250Y-88750000D01*
X104986250Y-87750000D02*
X103986250Y-87750000D01*
X117986250Y-100750000D02*
X117986250Y-101750000D01*
X103986250Y-88750000D02*
X103986250Y-87750000D01*
X103986250Y-101750000D02*
X103986250Y-100750000D01*
X116986250Y-101750000D02*
X117986250Y-101750000D01*
X103986250Y-101750000D02*
X104986250Y-101750000D01*
X117986250Y-87750000D02*
X116986250Y-87750000D01*
X66886250Y-87750000D02*
X65886250Y-87750000D01*
X65886250Y-88750000D02*
X65886250Y-87750000D01*
X65886250Y-101750000D02*
X65886250Y-100750000D01*
X79886250Y-100750000D02*
X79886250Y-101750000D01*
X65886250Y-101750000D02*
X66886250Y-101750000D01*
X79886250Y-87750000D02*
X79886250Y-88750000D01*
X79886250Y-87750000D02*
X78886250Y-87750000D01*
X78886250Y-101750000D02*
X79886250Y-101750000D01*
X256386250Y-101750000D02*
X256386250Y-100750000D01*
X256386250Y-88750000D02*
X256386250Y-87750000D01*
X270386250Y-87750000D02*
X269386250Y-87750000D01*
X269386250Y-101750000D02*
X270386250Y-101750000D01*
X270386250Y-100750000D02*
X270386250Y-101750000D01*
X257386250Y-87750000D02*
X256386250Y-87750000D01*
X256386250Y-101750000D02*
X257386250Y-101750000D01*
X270386250Y-87750000D02*
X270386250Y-88750000D01*
X307486250Y-63650000D02*
X308486250Y-63650000D01*
X308486250Y-49650000D02*
X308486250Y-50650000D01*
X295486250Y-49650000D02*
X294486250Y-49650000D01*
X308486250Y-49650000D02*
X307486250Y-49650000D01*
X294486250Y-63650000D02*
X295486250Y-63650000D01*
X294486250Y-50650000D02*
X294486250Y-49650000D01*
X294486250Y-63650000D02*
X294486250Y-62650000D01*
X308486250Y-62650000D02*
X308486250Y-63650000D01*
X123036250Y-69700000D02*
X123036250Y-68700000D01*
X136036250Y-82700000D02*
X137036250Y-82700000D01*
X137036250Y-68700000D02*
X136036250Y-68700000D01*
X123036250Y-82700000D02*
X123036250Y-81700000D01*
X124036250Y-68700000D02*
X123036250Y-68700000D01*
X137036250Y-81700000D02*
X137036250Y-82700000D01*
X123036250Y-82700000D02*
X124036250Y-82700000D01*
X137036250Y-68700000D02*
X137036250Y-69700000D01*
X251336250Y-68700000D02*
X251336250Y-69700000D01*
X237336250Y-82700000D02*
X238336250Y-82700000D01*
X251336250Y-81700000D02*
X251336250Y-82700000D01*
X237336250Y-69700000D02*
X237336250Y-68700000D01*
X251336250Y-68700000D02*
X250336250Y-68700000D01*
X250336250Y-82700000D02*
X251336250Y-82700000D01*
X238336250Y-68700000D02*
X237336250Y-68700000D01*
X237336250Y-82700000D02*
X237336250Y-81700000D01*
X301630000Y-107800000D02*
X301630000Y-106800000D01*
X315630000Y-106800000D02*
X315630000Y-107800000D01*
X314630000Y-120800000D02*
X315630000Y-120800000D01*
X315630000Y-106800000D02*
X314630000Y-106800000D01*
X301630000Y-120800000D02*
X301630000Y-119800000D01*
X301630000Y-120800000D02*
X302630000Y-120800000D01*
X302630000Y-106800000D02*
X301630000Y-106800000D01*
X315630000Y-119800000D02*
X315630000Y-120800000D01*
X142086250Y-44600000D02*
X143086250Y-44600000D01*
X142086250Y-44600000D02*
X142086250Y-43600000D01*
X142086250Y-31600000D02*
X142086250Y-30600000D01*
X156086250Y-30600000D02*
X156086250Y-31600000D01*
X143086250Y-30600000D02*
X142086250Y-30600000D01*
X155086250Y-44600000D02*
X156086250Y-44600000D01*
X156086250Y-30600000D02*
X155086250Y-30600000D01*
X156086250Y-43600000D02*
X156086250Y-44600000D01*
X117986250Y-68700000D02*
X116986250Y-68700000D01*
X116986250Y-82700000D02*
X117986250Y-82700000D01*
X103986250Y-82700000D02*
X103986250Y-81700000D01*
X117986250Y-81700000D02*
X117986250Y-82700000D01*
X104986250Y-68700000D02*
X103986250Y-68700000D01*
X103986250Y-82700000D02*
X104986250Y-82700000D01*
X103986250Y-69700000D02*
X103986250Y-68700000D01*
X117986250Y-68700000D02*
X117986250Y-69700000D01*
X115605000Y-119800000D02*
X115605000Y-120800000D01*
X101605000Y-107800000D02*
X101605000Y-106800000D01*
X101605000Y-120800000D02*
X101605000Y-119800000D01*
X115605000Y-106800000D02*
X114605000Y-106800000D01*
X102605000Y-106800000D02*
X101605000Y-106800000D01*
X101605000Y-120800000D02*
X102605000Y-120800000D01*
X114605000Y-120800000D02*
X115605000Y-120800000D01*
X115605000Y-106800000D02*
X115605000Y-107800000D01*
X161136250Y-101750000D02*
X161136250Y-100750000D01*
X175136250Y-87750000D02*
X174136250Y-87750000D01*
X162136250Y-87750000D02*
X161136250Y-87750000D01*
X175136250Y-100750000D02*
X175136250Y-101750000D01*
X175136250Y-87750000D02*
X175136250Y-88750000D01*
X161136250Y-101750000D02*
X162136250Y-101750000D01*
X174136250Y-101750000D02*
X175136250Y-101750000D01*
X161136250Y-88750000D02*
X161136250Y-87750000D01*
X269386250Y-44600000D02*
X270386250Y-44600000D01*
X256386250Y-44600000D02*
X256386250Y-43600000D01*
X257386250Y-30600000D02*
X256386250Y-30600000D01*
X270386250Y-30600000D02*
X269386250Y-30600000D01*
X256386250Y-31600000D02*
X256386250Y-30600000D01*
X256386250Y-44600000D02*
X257386250Y-44600000D01*
X270386250Y-43600000D02*
X270386250Y-44600000D01*
X270386250Y-30600000D02*
X270386250Y-31600000D01*
X142086250Y-120800000D02*
X143086250Y-120800000D01*
X156086250Y-119800000D02*
X156086250Y-120800000D01*
X156086250Y-106800000D02*
X155086250Y-106800000D01*
X142086250Y-120800000D02*
X142086250Y-119800000D01*
X155086250Y-120800000D02*
X156086250Y-120800000D01*
X142086250Y-107800000D02*
X142086250Y-106800000D01*
X156086250Y-106800000D02*
X156086250Y-107800000D01*
X143086250Y-106800000D02*
X142086250Y-106800000D01*
X117986250Y-30600000D02*
X116986250Y-30600000D01*
X117986250Y-43600000D02*
X117986250Y-44600000D01*
X103986250Y-44600000D02*
X104986250Y-44600000D01*
X116986250Y-44600000D02*
X117986250Y-44600000D01*
X104986250Y-30600000D02*
X103986250Y-30600000D01*
X103986250Y-31600000D02*
X103986250Y-30600000D01*
X117986250Y-30600000D02*
X117986250Y-31600000D01*
X103986250Y-44600000D02*
X103986250Y-43600000D01*
X288436250Y-82700000D02*
X289436250Y-82700000D01*
X275436250Y-82700000D02*
X276436250Y-82700000D01*
X289436250Y-81700000D02*
X289436250Y-82700000D01*
X275436250Y-69700000D02*
X275436250Y-68700000D01*
X289436250Y-68700000D02*
X289436250Y-69700000D01*
X275436250Y-82700000D02*
X275436250Y-81700000D01*
X276436250Y-68700000D02*
X275436250Y-68700000D01*
X289436250Y-68700000D02*
X288436250Y-68700000D01*
M02*
