G04 #@! TF.GenerationSoftware,KiCad,Pcbnew,(6.0.0)*
G04 #@! TF.CreationDate,2022-06-17T00:07:40-05:00*
G04 #@! TF.ProjectId,okeeb,6f6b6565-622e-46b6-9963-61645f706362,rev?*
G04 #@! TF.SameCoordinates,Original*
G04 #@! TF.FileFunction,Soldermask,Top*
G04 #@! TF.FilePolarity,Negative*
%FSLAX46Y46*%
G04 Gerber Fmt 4.6, Leading zero omitted, Abs format (unit mm)*
G04 Created by KiCad (PCBNEW (6.0.0)) date 2022-06-17 00:07:40*
%MOMM*%
%LPD*%
G01*
G04 APERTURE LIST*
%ADD10C,3.987800*%
%ADD11C,1.701800*%
%ADD12C,3.000000*%
%ADD13C,3.200000*%
%ADD14C,3.048000*%
%ADD15R,1.700000X1.700000*%
%ADD16O,1.700000X1.700000*%
%ADD17C,0.800000*%
%ADD18C,2.000000*%
%ADD19C,1.800000*%
G04 APERTURE END LIST*
D10*
X53836250Y-37600000D03*
D11*
X48756250Y-37600000D03*
D12*
X56376250Y-32520000D03*
X50026250Y-35060000D03*
D11*
X58916250Y-37600000D03*
D13*
X55030000Y-53430000D03*
X340930000Y-53430000D03*
X252880000Y-111330000D03*
X120840000Y-113130000D03*
D11*
X292278750Y-113800000D03*
D12*
X283388750Y-111260000D03*
D11*
X282118750Y-113800000D03*
D10*
X287198750Y-113800000D03*
D12*
X289738750Y-108720000D03*
D11*
X286881250Y-94750000D03*
X297041250Y-94750000D03*
D10*
X291961250Y-94750000D03*
D12*
X288151250Y-92210000D03*
X294501250Y-89670000D03*
D10*
X149086250Y-75700000D03*
D12*
X145276250Y-73160000D03*
D11*
X154166250Y-75700000D03*
D12*
X151626250Y-70620000D03*
D11*
X144006250Y-75700000D03*
X230366250Y-75700000D03*
D10*
X225286250Y-75700000D03*
D11*
X220206250Y-75700000D03*
D12*
X227826250Y-70620000D03*
X221476250Y-73160000D03*
X221476250Y-54110000D03*
D11*
X220206250Y-56650000D03*
D10*
X225286250Y-56650000D03*
D11*
X230366250Y-56650000D03*
D12*
X227826250Y-51570000D03*
X164326250Y-35060000D03*
D10*
X168136250Y-37600000D03*
D12*
X170676250Y-32520000D03*
D11*
X173216250Y-37600000D03*
X163056250Y-37600000D03*
D12*
X261957500Y-111260000D03*
D10*
X265767500Y-113800000D03*
D12*
X268307500Y-108720000D03*
D11*
X260687500Y-113800000D03*
X270847500Y-113800000D03*
X315456250Y-94750000D03*
D10*
X320536250Y-94750000D03*
D11*
X325616250Y-94750000D03*
D12*
X316726250Y-92210000D03*
X323076250Y-89670000D03*
X70663750Y-51570000D03*
D11*
X63043750Y-56650000D03*
D12*
X64313750Y-54110000D03*
D10*
X68123750Y-56650000D03*
D11*
X73203750Y-56650000D03*
D12*
X73045000Y-70620000D03*
X66695000Y-73160000D03*
D11*
X65425000Y-75700000D03*
X75585000Y-75700000D03*
D10*
X70505000Y-75700000D03*
D14*
X130040000Y-106810050D03*
D10*
X168140000Y-122020050D03*
X130040000Y-122020050D03*
D14*
X168140000Y-106810050D03*
D10*
X187186250Y-37600000D03*
D12*
X183376250Y-35060000D03*
D11*
X192266250Y-37600000D03*
D12*
X189726250Y-32520000D03*
D11*
X182106250Y-37600000D03*
D12*
X107176250Y-54110000D03*
D11*
X105906250Y-56650000D03*
D12*
X113526250Y-51570000D03*
D11*
X116066250Y-56650000D03*
D10*
X110986250Y-56650000D03*
D11*
X124956250Y-56650000D03*
D10*
X130036250Y-56650000D03*
D12*
X132576250Y-51570000D03*
D11*
X135116250Y-56650000D03*
D12*
X126226250Y-54110000D03*
D10*
X72886250Y-37600000D03*
D12*
X69076250Y-35060000D03*
D11*
X67806250Y-37600000D03*
D12*
X75426250Y-32520000D03*
D11*
X77966250Y-37600000D03*
D14*
X244340000Y-106815000D03*
X206240000Y-106815000D03*
D10*
X206240000Y-122025000D03*
X244340000Y-122025000D03*
D12*
X183376250Y-111260000D03*
X189726250Y-108720000D03*
D10*
X187186250Y-113800000D03*
D11*
X192266250Y-113800000D03*
X182106250Y-113800000D03*
D10*
X282436250Y-56650000D03*
D11*
X287516250Y-56650000D03*
X277356250Y-56650000D03*
D12*
X284976250Y-51570000D03*
X278626250Y-54110000D03*
X284976250Y-32520000D03*
D11*
X277356250Y-37600000D03*
D12*
X278626250Y-35060000D03*
D11*
X287516250Y-37600000D03*
D10*
X282436250Y-37600000D03*
D11*
X308312500Y-75700000D03*
D12*
X315932500Y-70620000D03*
X309582500Y-73160000D03*
D10*
X313392500Y-75700000D03*
D11*
X318472500Y-75700000D03*
D12*
X94476250Y-70620000D03*
X88126250Y-73160000D03*
D10*
X91936250Y-75700000D03*
D11*
X86856250Y-75700000D03*
X97016250Y-75700000D03*
X173216250Y-56650000D03*
D12*
X164326250Y-54110000D03*
D10*
X168136250Y-56650000D03*
D11*
X163056250Y-56650000D03*
D12*
X170676250Y-51570000D03*
D11*
X124956250Y-94750000D03*
D12*
X132576250Y-89670000D03*
D11*
X135116250Y-94750000D03*
D12*
X126226250Y-92210000D03*
D10*
X130036250Y-94750000D03*
D11*
X306566250Y-37600000D03*
X296406250Y-37600000D03*
D12*
X297676250Y-35060000D03*
X304026250Y-32520000D03*
D10*
X301486250Y-37600000D03*
D11*
X268466250Y-56650000D03*
D12*
X259576250Y-54110000D03*
D11*
X258306250Y-56650000D03*
D12*
X265926250Y-51570000D03*
D10*
X263386250Y-56650000D03*
D12*
X246876250Y-32520000D03*
D11*
X239256250Y-37600000D03*
D12*
X240526250Y-35060000D03*
D11*
X249416250Y-37600000D03*
D10*
X244336250Y-37600000D03*
X206236250Y-37600000D03*
D11*
X211316250Y-37600000D03*
X201156250Y-37600000D03*
D12*
X202426250Y-35060000D03*
X208776250Y-32520000D03*
D11*
X124956250Y-37600000D03*
D12*
X126226250Y-35060000D03*
D10*
X130036250Y-37600000D03*
D11*
X135116250Y-37600000D03*
D12*
X132576250Y-32520000D03*
X221476250Y-111260000D03*
X227826250Y-108720000D03*
D10*
X225286250Y-113800000D03*
D11*
X220206250Y-113800000D03*
X230366250Y-113800000D03*
D12*
X145276250Y-92210000D03*
D10*
X149086250Y-94750000D03*
D12*
X151626250Y-89670000D03*
D11*
X154166250Y-94750000D03*
X144006250Y-94750000D03*
X220206250Y-94750000D03*
D10*
X225286250Y-94750000D03*
D11*
X230366250Y-94750000D03*
D12*
X221476250Y-92210000D03*
X227826250Y-89670000D03*
D11*
X182106250Y-94750000D03*
D10*
X187186250Y-94750000D03*
D11*
X192266250Y-94750000D03*
D12*
X183376250Y-92210000D03*
X189726250Y-89670000D03*
X202426250Y-73160000D03*
D11*
X211316250Y-75700000D03*
D12*
X208776250Y-70620000D03*
D10*
X206236250Y-75700000D03*
D11*
X201156250Y-75700000D03*
D10*
X318122000Y-45830000D03*
D14*
X341998000Y-30620000D03*
D10*
X341998000Y-45830000D03*
D14*
X318122000Y-30620000D03*
D10*
X206236250Y-94750000D03*
D12*
X208776250Y-89670000D03*
X202426250Y-92210000D03*
D11*
X201156250Y-94750000D03*
X211316250Y-94750000D03*
X163056250Y-75700000D03*
D12*
X170676250Y-70620000D03*
D10*
X168136250Y-75700000D03*
D12*
X164326250Y-73160000D03*
D11*
X173216250Y-75700000D03*
D14*
X301472000Y-68710050D03*
X325348000Y-68710050D03*
D10*
X301472000Y-83920050D03*
X325348000Y-83920050D03*
X149086250Y-56650000D03*
D12*
X151626250Y-51570000D03*
D11*
X154166250Y-56650000D03*
X144006250Y-56650000D03*
D12*
X145276250Y-54110000D03*
D11*
X239256250Y-94750000D03*
D10*
X244336250Y-94750000D03*
D11*
X249416250Y-94750000D03*
D12*
X240526250Y-92210000D03*
X246876250Y-89670000D03*
X88126250Y-35060000D03*
D11*
X86856250Y-37600000D03*
D10*
X91936250Y-37600000D03*
D11*
X97016250Y-37600000D03*
D12*
X94476250Y-32520000D03*
D11*
X268466250Y-75700000D03*
D12*
X259576250Y-73160000D03*
D10*
X263386250Y-75700000D03*
D12*
X265926250Y-70620000D03*
D11*
X258306250Y-75700000D03*
X335165000Y-37590000D03*
X325005000Y-37590000D03*
D10*
X330085000Y-37590000D03*
D12*
X326275000Y-35050000D03*
X332625000Y-32510000D03*
D11*
X97016250Y-56650000D03*
X86856250Y-56650000D03*
D12*
X94476250Y-51570000D03*
D10*
X91936250Y-56650000D03*
D12*
X88126250Y-54110000D03*
X227826250Y-32520000D03*
D10*
X225286250Y-37600000D03*
D11*
X230366250Y-37600000D03*
X220206250Y-37600000D03*
D12*
X221476250Y-35060000D03*
X94476250Y-89670000D03*
X88126250Y-92210000D03*
D10*
X91936250Y-94750000D03*
D11*
X86856250Y-94750000D03*
X97016250Y-94750000D03*
D12*
X189726250Y-70620000D03*
D11*
X182106250Y-75700000D03*
X192266250Y-75700000D03*
D10*
X187186250Y-75700000D03*
D12*
X183376250Y-73160000D03*
D11*
X239256250Y-56650000D03*
D12*
X240526250Y-54110000D03*
D11*
X249416250Y-56650000D03*
D10*
X244336250Y-56650000D03*
D12*
X246876250Y-51570000D03*
D10*
X187186250Y-56650000D03*
D11*
X192266250Y-56650000D03*
D12*
X189726250Y-51570000D03*
D11*
X182106250Y-56650000D03*
D12*
X183376250Y-54110000D03*
D11*
X201156250Y-56650000D03*
D10*
X206236250Y-56650000D03*
D11*
X211316250Y-56650000D03*
D12*
X202426250Y-54110000D03*
X208776250Y-51570000D03*
D11*
X89872500Y-113800000D03*
D12*
X80982500Y-111260000D03*
D11*
X79712500Y-113800000D03*
D12*
X87332500Y-108720000D03*
D10*
X84792500Y-113800000D03*
D12*
X327838750Y-51570000D03*
D11*
X330378750Y-56650000D03*
D10*
X325298750Y-56650000D03*
D11*
X320218750Y-56650000D03*
D12*
X321488750Y-54110000D03*
X113526250Y-89670000D03*
D11*
X105906250Y-94750000D03*
D10*
X110986250Y-94750000D03*
D12*
X107176250Y-92210000D03*
D11*
X116066250Y-94750000D03*
D10*
X72886250Y-94750000D03*
D12*
X75426250Y-89670000D03*
D11*
X77966250Y-94750000D03*
X67806250Y-94750000D03*
D12*
X69076250Y-92210000D03*
D14*
X280022000Y-87765000D03*
D10*
X303898000Y-102975000D03*
D14*
X303898000Y-87765000D03*
D10*
X280022000Y-102975000D03*
D12*
X265926250Y-89670000D03*
D10*
X263386250Y-94750000D03*
D11*
X268466250Y-94750000D03*
X258306250Y-94750000D03*
D12*
X259576250Y-92210000D03*
X297676250Y-54110000D03*
X304026250Y-51570000D03*
D11*
X306566250Y-56650000D03*
X296406250Y-56650000D03*
D10*
X301486250Y-56650000D03*
D12*
X126226250Y-73160000D03*
D11*
X124956250Y-75700000D03*
D12*
X132576250Y-70620000D03*
D10*
X130036250Y-75700000D03*
D11*
X135116250Y-75700000D03*
X239256250Y-75700000D03*
D12*
X246876250Y-70620000D03*
D11*
X249416250Y-75700000D03*
D12*
X240526250Y-73160000D03*
D10*
X244336250Y-75700000D03*
D12*
X311170000Y-108720000D03*
D11*
X303550000Y-113800000D03*
D10*
X308630000Y-113800000D03*
D12*
X304820000Y-111260000D03*
D11*
X313710000Y-113800000D03*
D12*
X145276250Y-35060000D03*
D10*
X149086250Y-37600000D03*
D12*
X151626250Y-32520000D03*
D11*
X154166250Y-37600000D03*
X144006250Y-37600000D03*
X105906250Y-75700000D03*
D12*
X107176250Y-73160000D03*
D10*
X110986250Y-75700000D03*
D12*
X113526250Y-70620000D03*
D11*
X116066250Y-75700000D03*
D10*
X108605000Y-113800000D03*
D11*
X113685000Y-113800000D03*
D12*
X104795000Y-111260000D03*
X111145000Y-108720000D03*
D11*
X103525000Y-113800000D03*
D10*
X168136250Y-94750000D03*
D12*
X170676250Y-89670000D03*
D11*
X163056250Y-94750000D03*
X173216250Y-94750000D03*
D12*
X164326250Y-92210000D03*
X259576250Y-35060000D03*
D11*
X258306250Y-37600000D03*
X268466250Y-37600000D03*
D10*
X263386250Y-37600000D03*
D12*
X265926250Y-32520000D03*
D11*
X154166250Y-113800000D03*
D12*
X151626250Y-108720000D03*
D11*
X144006250Y-113800000D03*
D10*
X149086250Y-113800000D03*
D12*
X145276250Y-111260000D03*
X113526250Y-32520000D03*
X107176250Y-35060000D03*
D11*
X116066250Y-37600000D03*
D10*
X110986250Y-37600000D03*
D11*
X105906250Y-37600000D03*
X287516250Y-75700000D03*
D10*
X282436250Y-75700000D03*
D12*
X278626250Y-73160000D03*
X284976250Y-70620000D03*
D11*
X277356250Y-75700000D03*
D15*
X67985000Y-116565000D03*
D16*
X65445000Y-116565000D03*
X67985000Y-119105000D03*
X65445000Y-119105000D03*
X67985000Y-121645000D03*
X65445000Y-121645000D03*
D17*
X47870000Y-74590000D03*
X47870000Y-69590000D03*
D18*
X48920000Y-75815000D03*
D19*
X45120000Y-68215000D03*
D18*
X48920000Y-68365000D03*
D19*
X45120000Y-75965000D03*
M02*
