  0
SECTION
  2
HEADER
  9
$ACADVER
  1
AC1009
  9
$FILLMODE
 70
 0
  9
$SPLFRAME
 70
 1
  9
$EXTMIN
 10
0
 20
0
 30
0.0
  9
$EXTMAX
 10
1058.33
 20
1058.33
 30
0.0
  0
ENDSEC
  0
SECTION
  2
TABLES
  0
TABLE
  2
LAYER
 70
1
  0
LAYER
  2
0
 70
     0
 62
     7
  6
CONTINUOUS
  0
ENDTAB
  0
ENDSEC
  0
SECTION
  2
ENTITIES
  0
LINE
  8
0
 62
     0
 10
0.0950846
 20
109.619
 30
0.0
 11
318.896
 21
109.619
 31
0.0
  0
LINE
  8
0
 62
     0
 10
318.896
 20
109.619
 30
0.0
 11
318.896
 21
0.369316
 31
0.0
  0
LINE
  8
0
 62
     0
 10
318.896
 20
0.369316
 30
0.0
 11
0.0950846
 21
0.369316
 31
0.0
  0
LINE
  8
0
 62
     0
 10
0.0950846
 20
0.369316
 30
0.0
 11
0.0950846
 21
109.619
 31
0.0
  0
LINE
  8
0
 62
     0
 10
315.432
 20
4.79559
 30
0.0
 11
315.014
 21
4.58198
 31
0.0
  0
LINE
  8
0
 62
     0
 10
315.014
 20
4.58198
 30
0.0
 11
314.682
 21
4.24988
 31
0.0
  0
LINE
  8
0
 62
     0
 10
314.682
 20
4.24988
 30
0.0
 11
314.468
 21
3.83233
 31
0.0
  0
LINE
  8
0
 62
     0
 10
314.468
 20
3.83233
 30
0.0
 11
314.395
 21
3.3693
 31
0.0
  0
LINE
  8
0
 62
     0
 10
314.395
 20
3.3693
 30
0.0
 11
314.468
 21
2.90491
 31
0.0
  0
LINE
  8
0
 62
     0
 10
314.468
 20
2.90491
 30
0.0
 11
314.682
 21
2.48736
 31
0.0
  0
LINE
  8
0
 62
     0
 10
314.682
 20
2.48736
 30
0.0
 11
315.014
 21
2.15525
 31
0.0
  0
LINE
  8
0
 62
     0
 10
315.014
 20
2.15525
 30
0.0
 11
315.432
 21
1.94303
 31
0.0
  0
LINE
  8
0
 62
     0
 10
315.432
 20
1.94303
 30
0.0
 11
315.896
 21
1.87
 31
0.0
  0
LINE
  8
0
 62
     0
 10
315.896
 20
1.87
 30
0.0
 11
316.359
 21
1.94303
 31
0.0
  0
LINE
  8
0
 62
     0
 10
316.359
 20
1.94303
 30
0.0
 11
316.776
 21
2.15525
 31
0.0
  0
LINE
  8
0
 62
     0
 10
316.776
 20
2.15525
 30
0.0
 11
317.109
 21
2.48736
 31
0.0
  0
LINE
  8
0
 62
     0
 10
317.109
 20
2.48736
 30
0.0
 11
317.321
 21
2.90491
 31
0.0
  0
LINE
  8
0
 62
     0
 10
317.321
 20
2.90491
 30
0.0
 11
317.395
 21
3.3693
 31
0.0
  0
LINE
  8
0
 62
     0
 10
317.395
 20
3.3693
 30
0.0
 11
317.321
 21
3.83233
 31
0.0
  0
LINE
  8
0
 62
     0
 10
317.321
 20
3.83233
 30
0.0
 11
317.109
 21
4.24988
 31
0.0
  0
LINE
  8
0
 62
     0
 10
317.109
 20
4.24988
 30
0.0
 11
316.776
 21
4.58198
 31
0.0
  0
LINE
  8
0
 62
     0
 10
316.776
 20
4.58198
 30
0.0
 11
316.359
 21
4.79559
 31
0.0
  0
LINE
  8
0
 62
     0
 10
316.359
 20
4.79559
 30
0.0
 11
315.896
 21
4.86999
 31
0.0
  0
LINE
  8
0
 62
     0
 10
315.896
 20
4.86999
 30
0.0
 11
315.432
 21
4.79559
 31
0.0
  0
LINE
  8
0
 62
     0
 10
211.165
 20
4.79559
 30
0.0
 11
210.746
 21
4.58198
 31
0.0
  0
LINE
  8
0
 62
     0
 10
210.746
 20
4.58198
 30
0.0
 11
210.414
 21
4.24988
 31
0.0
  0
LINE
  8
0
 62
     0
 10
210.414
 20
4.24988
 30
0.0
 11
210.202
 21
3.83233
 31
0.0
  0
LINE
  8
0
 62
     0
 10
210.202
 20
3.83233
 30
0.0
 11
210.129
 21
3.3693
 31
0.0
  0
LINE
  8
0
 62
     0
 10
210.129
 20
3.3693
 30
0.0
 11
210.202
 21
2.90491
 31
0.0
  0
LINE
  8
0
 62
     0
 10
210.202
 20
2.90491
 30
0.0
 11
210.414
 21
2.48736
 31
0.0
  0
LINE
  8
0
 62
     0
 10
210.414
 20
2.48736
 30
0.0
 11
210.746
 21
2.15525
 31
0.0
  0
LINE
  8
0
 62
     0
 10
210.746
 20
2.15525
 30
0.0
 11
211.165
 21
1.94303
 31
0.0
  0
LINE
  8
0
 62
     0
 10
211.165
 20
1.94303
 30
0.0
 11
211.628
 21
1.87
 31
0.0
  0
LINE
  8
0
 62
     0
 10
211.628
 20
1.87
 30
0.0
 11
212.091
 21
1.94303
 31
0.0
  0
LINE
  8
0
 62
     0
 10
212.091
 20
1.94303
 30
0.0
 11
212.51
 21
2.15525
 31
0.0
  0
LINE
  8
0
 62
     0
 10
212.51
 20
2.15525
 30
0.0
 11
212.842
 21
2.48736
 31
0.0
  0
LINE
  8
0
 62
     0
 10
212.842
 20
2.48736
 30
0.0
 11
213.055
 21
2.90491
 31
0.0
  0
LINE
  8
0
 62
     0
 10
213.055
 20
2.90491
 30
0.0
 11
213.129
 21
3.3693
 31
0.0
  0
LINE
  8
0
 62
     0
 10
213.129
 20
3.3693
 30
0.0
 11
213.055
 21
3.83233
 31
0.0
  0
LINE
  8
0
 62
     0
 10
213.055
 20
3.83233
 30
0.0
 11
212.842
 21
4.24988
 31
0.0
  0
LINE
  8
0
 62
     0
 10
212.842
 20
4.24988
 30
0.0
 11
212.51
 21
4.58198
 31
0.0
  0
LINE
  8
0
 62
     0
 10
212.51
 20
4.58198
 30
0.0
 11
212.091
 21
4.79559
 31
0.0
  0
LINE
  8
0
 62
     0
 10
212.091
 20
4.79559
 30
0.0
 11
211.628
 21
4.86999
 31
0.0
  0
LINE
  8
0
 62
     0
 10
211.628
 20
4.86999
 30
0.0
 11
211.165
 21
4.79559
 31
0.0
  0
LINE
  8
0
 62
     0
 10
106.897
 20
4.79559
 30
0.0
 11
106.48
 21
4.58198
 31
0.0
  0
LINE
  8
0
 62
     0
 10
106.48
 20
4.58198
 30
0.0
 11
106.148
 21
4.24988
 31
0.0
  0
LINE
  8
0
 62
     0
 10
106.148
 20
4.24988
 30
0.0
 11
105.934
 21
3.83233
 31
0.0
  0
LINE
  8
0
 62
     0
 10
105.934
 20
3.83233
 30
0.0
 11
105.861
 21
3.3693
 31
0.0
  0
LINE
  8
0
 62
     0
 10
105.861
 20
3.3693
 30
0.0
 11
105.934
 21
2.90491
 31
0.0
  0
LINE
  8
0
 62
     0
 10
105.934
 20
2.90491
 30
0.0
 11
106.148
 21
2.48736
 31
0.0
  0
LINE
  8
0
 62
     0
 10
106.148
 20
2.48736
 30
0.0
 11
106.48
 21
2.15525
 31
0.0
  0
LINE
  8
0
 62
     0
 10
106.48
 20
2.15525
 30
0.0
 11
106.897
 21
1.94303
 31
0.0
  0
LINE
  8
0
 62
     0
 10
106.897
 20
1.94303
 30
0.0
 11
107.362
 21
1.87
 31
0.0
  0
LINE
  8
0
 62
     0
 10
107.362
 20
1.87
 30
0.0
 11
107.825
 21
1.94303
 31
0.0
  0
LINE
  8
0
 62
     0
 10
107.825
 20
1.94303
 30
0.0
 11
108.242
 21
2.15525
 31
0.0
  0
LINE
  8
0
 62
     0
 10
108.242
 20
2.15525
 30
0.0
 11
108.574
 21
2.48736
 31
0.0
  0
LINE
  8
0
 62
     0
 10
108.574
 20
2.48736
 30
0.0
 11
108.788
 21
2.90491
 31
0.0
  0
LINE
  8
0
 62
     0
 10
108.788
 20
2.90491
 30
0.0
 11
108.861
 21
3.3693
 31
0.0
  0
LINE
  8
0
 62
     0
 10
108.861
 20
3.3693
 30
0.0
 11
108.788
 21
3.83233
 31
0.0
  0
LINE
  8
0
 62
     0
 10
108.788
 20
3.83233
 30
0.0
 11
108.574
 21
4.24988
 31
0.0
  0
LINE
  8
0
 62
     0
 10
108.574
 20
4.24988
 30
0.0
 11
108.242
 21
4.58198
 31
0.0
  0
LINE
  8
0
 62
     0
 10
108.242
 20
4.58198
 30
0.0
 11
107.825
 21
4.79559
 31
0.0
  0
LINE
  8
0
 62
     0
 10
107.825
 20
4.79559
 30
0.0
 11
107.362
 21
4.86999
 31
0.0
  0
LINE
  8
0
 62
     0
 10
107.362
 20
4.86999
 30
0.0
 11
106.897
 21
4.79559
 31
0.0
  0
LINE
  8
0
 62
     0
 10
2.63067
 20
4.79559
 30
0.0
 11
2.21313
 21
4.58198
 31
0.0
  0
LINE
  8
0
 62
     0
 10
2.21313
 20
4.58198
 30
0.0
 11
1.88102
 21
4.24988
 31
0.0
  0
LINE
  8
0
 62
     0
 10
1.88102
 20
4.24988
 30
0.0
 11
1.66743
 21
3.83233
 31
0.0
  0
LINE
  8
0
 62
     0
 10
1.66743
 20
3.83233
 30
0.0
 11
1.59439
 21
3.3693
 31
0.0
  0
LINE
  8
0
 62
     0
 10
1.59439
 20
3.3693
 30
0.0
 11
1.66743
 21
2.90491
 31
0.0
  0
LINE
  8
0
 62
     0
 10
1.66743
 20
2.90491
 30
0.0
 11
1.88102
 21
2.48736
 31
0.0
  0
LINE
  8
0
 62
     0
 10
1.88102
 20
2.48736
 30
0.0
 11
2.21313
 21
2.15525
 31
0.0
  0
LINE
  8
0
 62
     0
 10
2.21313
 20
2.15525
 30
0.0
 11
2.63067
 21
1.94303
 31
0.0
  0
LINE
  8
0
 62
     0
 10
2.63067
 20
1.94303
 30
0.0
 11
3.09507
 21
1.87
 31
0.0
  0
LINE
  8
0
 62
     0
 10
3.09507
 20
1.87
 30
0.0
 11
3.55808
 21
1.94303
 31
0.0
  0
LINE
  8
0
 62
     0
 10
3.55808
 20
1.94303
 30
0.0
 11
3.97563
 21
2.15525
 31
0.0
  0
LINE
  8
0
 62
     0
 10
3.97563
 20
2.15525
 30
0.0
 11
4.30773
 21
2.48736
 31
0.0
  0
LINE
  8
0
 62
     0
 10
4.30773
 20
2.48736
 30
0.0
 11
4.51997
 21
2.90491
 31
0.0
  0
LINE
  8
0
 62
     0
 10
4.51997
 20
2.90491
 30
0.0
 11
4.59437
 21
3.3693
 31
0.0
  0
LINE
  8
0
 62
     0
 10
4.59437
 20
3.3693
 30
0.0
 11
4.51997
 21
3.83233
 31
0.0
  0
LINE
  8
0
 62
     0
 10
4.51997
 20
3.83233
 30
0.0
 11
4.30773
 21
4.24988
 31
0.0
  0
LINE
  8
0
 62
     0
 10
4.30773
 20
4.24988
 30
0.0
 11
3.97563
 21
4.58198
 31
0.0
  0
LINE
  8
0
 62
     0
 10
3.97563
 20
4.58198
 30
0.0
 11
3.55808
 21
4.79559
 31
0.0
  0
LINE
  8
0
 62
     0
 10
3.55808
 20
4.79559
 30
0.0
 11
3.09507
 21
4.86999
 31
0.0
  0
LINE
  8
0
 62
     0
 10
3.09507
 20
4.86999
 30
0.0
 11
2.63067
 21
4.79559
 31
0.0
  0
LINE
  8
0
 62
     0
 10
104.87
 20
23.8938
 30
0.0
 11
104.87
 21
22.8947
 31
0.0
  0
LINE
  8
0
 62
     0
 10
104.87
 20
22.8947
 30
0.0
 11
104.069
 21
22.8947
 31
0.0
  0
LINE
  8
0
 62
     0
 10
104.069
 20
22.8947
 30
0.0
 11
104.069
 21
19.7955
 31
0.0
  0
LINE
  8
0
 62
     0
 10
104.069
 20
19.7955
 30
0.0
 11
104.87
 21
19.7955
 31
0.0
  0
LINE
  8
0
 62
     0
 10
104.87
 20
19.7955
 30
0.0
 11
104.87
 21
19.1947
 31
0.0
  0
LINE
  8
0
 62
     0
 10
104.87
 20
19.1947
 30
0.0
 11
96.194
 21
19.1947
 31
0.0
  0
LINE
  8
0
 62
     0
 10
96.194
 20
19.1947
 30
0.0
 11
96.194
 21
22.4248
 31
0.0
  0
LINE
  8
0
 62
     0
 10
96.194
 20
22.4248
 30
0.0
 11
94.47
 21
22.4248
 31
0.0
  0
LINE
  8
0
 62
     0
 10
94.47
 20
22.4248
 30
0.0
 11
94.47
 21
23.3454
 31
0.0
  0
LINE
  8
0
 62
     0
 10
94.47
 20
23.3454
 30
0.0
 11
91.1698
 21
23.3454
 31
0.0
  0
LINE
  8
0
 62
     0
 10
91.1698
 20
23.3454
 30
0.0
 11
91.1698
 21
22.4248
 31
0.0
  0
LINE
  8
0
 62
     0
 10
91.1698
 20
22.4248
 30
0.0
 11
89.4443
 21
22.4248
 31
0.0
  0
LINE
  8
0
 62
     0
 10
89.4443
 20
22.4248
 30
0.0
 11
89.4443
 21
19.1947
 31
0.0
  0
LINE
  8
0
 62
     0
 10
89.4443
 20
19.1947
 30
0.0
 11
88.6188
 21
19.1947
 31
0.0
  0
LINE
  8
0
 62
     0
 10
88.6188
 20
19.1947
 30
0.0
 11
88.6188
 21
16.3945
 31
0.0
  0
LINE
  8
0
 62
     0
 10
88.6188
 20
16.3945
 30
0.0
 11
89.4443
 21
16.3945
 31
0.0
  0
LINE
  8
0
 62
     0
 10
89.4443
 20
16.3945
 30
0.0
 11
89.4443
 21
10.1258
 31
0.0
  0
LINE
  8
0
 62
     0
 10
89.4443
 20
10.1258
 30
0.0
 11
91.1698
 21
10.1258
 31
0.0
  0
LINE
  8
0
 62
     0
 10
91.1698
 20
10.1258
 30
0.0
 11
91.1698
 21
9.14467
 31
0.0
  0
LINE
  8
0
 62
     0
 10
91.1698
 20
9.14467
 30
0.0
 11
94.47
 21
9.14467
 31
0.0
  0
LINE
  8
0
 62
     0
 10
94.47
 20
9.14467
 30
0.0
 11
94.47
 21
10.1258
 31
0.0
  0
LINE
  8
0
 62
     0
 10
94.47
 20
10.1258
 30
0.0
 11
96.194
 21
10.1258
 31
0.0
  0
LINE
  8
0
 62
     0
 10
96.194
 20
10.1258
 30
0.0
 11
96.194
 21
14.5948
 31
0.0
  0
LINE
  8
0
 62
     0
 10
96.194
 20
14.5948
 30
0.0
 11
104.87
 21
14.5948
 31
0.0
  0
LINE
  8
0
 62
     0
 10
104.87
 20
14.5948
 30
0.0
 11
104.87
 21
13.994
 31
0.0
  0
LINE
  8
0
 62
     0
 10
104.87
 20
13.994
 30
0.0
 11
104.069
 21
13.994
 31
0.0
  0
LINE
  8
0
 62
     0
 10
104.069
 20
13.994
 30
0.0
 11
104.069
 21
10.8948
 31
0.0
  0
LINE
  8
0
 62
     0
 10
104.069
 20
10.8948
 30
0.0
 11
104.87
 21
10.8948
 31
0.0
  0
LINE
  8
0
 62
     0
 10
104.87
 20
10.8948
 30
0.0
 11
104.87
 21
9.89432
 31
0.0
  0
LINE
  8
0
 62
     0
 10
104.87
 20
9.89432
 30
0.0
 11
118.87
 21
9.89432
 31
0.0
  0
LINE
  8
0
 62
     0
 10
118.87
 20
9.89432
 30
0.0
 11
118.87
 21
10.8948
 31
0.0
  0
LINE
  8
0
 62
     0
 10
118.87
 20
10.8948
 30
0.0
 11
119.669
 21
10.8948
 31
0.0
  0
LINE
  8
0
 62
     0
 10
119.669
 20
10.8948
 30
0.0
 11
119.669
 21
13.994
 31
0.0
  0
LINE
  8
0
 62
     0
 10
119.669
 20
13.994
 30
0.0
 11
118.87
 21
13.994
 31
0.0
  0
LINE
  8
0
 62
     0
 10
118.87
 20
13.994
 30
0.0
 11
118.87
 21
14.5948
 31
0.0
  0
LINE
  8
0
 62
     0
 10
118.87
 20
14.5948
 30
0.0
 11
127.544
 21
14.5948
 31
0.0
  0
LINE
  8
0
 62
     0
 10
127.544
 20
14.5948
 30
0.0
 11
127.544
 21
10.1258
 31
0.0
  0
LINE
  8
0
 62
     0
 10
127.544
 20
10.1258
 30
0.0
 11
129.27
 21
10.1258
 31
0.0
  0
LINE
  8
0
 62
     0
 10
129.27
 20
10.1258
 30
0.0
 11
129.27
 21
9.14467
 31
0.0
  0
LINE
  8
0
 62
     0
 10
129.27
 20
9.14467
 30
0.0
 11
132.57
 21
9.14467
 31
0.0
  0
LINE
  8
0
 62
     0
 10
132.57
 20
9.14467
 30
0.0
 11
132.57
 21
10.1258
 31
0.0
  0
LINE
  8
0
 62
     0
 10
132.57
 20
10.1258
 30
0.0
 11
134.294
 21
10.1258
 31
0.0
  0
LINE
  8
0
 62
     0
 10
134.294
 20
10.1258
 30
0.0
 11
134.294
 21
16.3945
 31
0.0
  0
LINE
  8
0
 62
     0
 10
134.294
 20
16.3945
 30
0.0
 11
135.12
 21
16.3945
 31
0.0
  0
LINE
  8
0
 62
     0
 10
135.12
 20
16.3945
 30
0.0
 11
135.12
 21
19.1947
 31
0.0
  0
LINE
  8
0
 62
     0
 10
135.12
 20
19.1947
 30
0.0
 11
134.294
 21
19.1947
 31
0.0
  0
LINE
  8
0
 62
     0
 10
134.294
 20
19.1947
 30
0.0
 11
134.294
 21
22.4248
 31
0.0
  0
LINE
  8
0
 62
     0
 10
134.294
 20
22.4248
 30
0.0
 11
132.57
 21
22.4248
 31
0.0
  0
LINE
  8
0
 62
     0
 10
132.57
 20
22.4248
 30
0.0
 11
132.57
 21
23.3454
 31
0.0
  0
LINE
  8
0
 62
     0
 10
132.57
 20
23.3454
 30
0.0
 11
129.27
 21
23.3454
 31
0.0
  0
LINE
  8
0
 62
     0
 10
129.27
 20
23.3454
 30
0.0
 11
129.27
 21
22.4248
 31
0.0
  0
LINE
  8
0
 62
     0
 10
129.27
 20
22.4248
 30
0.0
 11
127.544
 21
22.4248
 31
0.0
  0
LINE
  8
0
 62
     0
 10
127.544
 20
22.4248
 30
0.0
 11
127.544
 21
19.1947
 31
0.0
  0
LINE
  8
0
 62
     0
 10
127.544
 20
19.1947
 30
0.0
 11
118.87
 21
19.1947
 31
0.0
  0
LINE
  8
0
 62
     0
 10
118.87
 20
19.1947
 30
0.0
 11
118.87
 21
19.7955
 31
0.0
  0
LINE
  8
0
 62
     0
 10
118.87
 20
19.7955
 30
0.0
 11
119.669
 21
19.7955
 31
0.0
  0
LINE
  8
0
 62
     0
 10
119.669
 20
19.7955
 30
0.0
 11
119.669
 21
22.8947
 31
0.0
  0
LINE
  8
0
 62
     0
 10
119.669
 20
22.8947
 30
0.0
 11
118.87
 21
22.8947
 31
0.0
  0
LINE
  8
0
 62
     0
 10
118.87
 20
22.8947
 30
0.0
 11
118.87
 21
23.8938
 31
0.0
  0
LINE
  8
0
 62
     0
 10
118.87
 20
23.8938
 30
0.0
 11
104.87
 21
23.8938
 31
0.0
  0
LINE
  8
0
 62
     0
 10
181.07
 20
23.8938
 30
0.0
 11
181.07
 21
22.8947
 31
0.0
  0
LINE
  8
0
 62
     0
 10
181.07
 20
22.8947
 30
0.0
 11
180.268
 21
22.8947
 31
0.0
  0
LINE
  8
0
 62
     0
 10
180.268
 20
22.8947
 30
0.0
 11
180.268
 21
19.7955
 31
0.0
  0
LINE
  8
0
 62
     0
 10
180.268
 20
19.7955
 30
0.0
 11
181.07
 21
19.7955
 31
0.0
  0
LINE
  8
0
 62
     0
 10
181.07
 20
19.7955
 30
0.0
 11
181.07
 21
19.1947
 31
0.0
  0
LINE
  8
0
 62
     0
 10
181.07
 20
19.1947
 30
0.0
 11
172.394
 21
19.1947
 31
0.0
  0
LINE
  8
0
 62
     0
 10
172.394
 20
19.1947
 30
0.0
 11
172.394
 21
22.4248
 31
0.0
  0
LINE
  8
0
 62
     0
 10
172.394
 20
22.4248
 30
0.0
 11
170.67
 21
22.4248
 31
0.0
  0
LINE
  8
0
 62
     0
 10
170.67
 20
22.4248
 30
0.0
 11
170.67
 21
23.3454
 31
0.0
  0
LINE
  8
0
 62
     0
 10
170.67
 20
23.3454
 30
0.0
 11
167.37
 21
23.3454
 31
0.0
  0
LINE
  8
0
 62
     0
 10
167.37
 20
23.3454
 30
0.0
 11
167.37
 21
22.4248
 31
0.0
  0
LINE
  8
0
 62
     0
 10
167.37
 20
22.4248
 30
0.0
 11
165.643
 21
22.4248
 31
0.0
  0
LINE
  8
0
 62
     0
 10
165.643
 20
22.4248
 30
0.0
 11
165.643
 21
19.1947
 31
0.0
  0
LINE
  8
0
 62
     0
 10
165.643
 20
19.1947
 30
0.0
 11
164.819
 21
19.1947
 31
0.0
  0
LINE
  8
0
 62
     0
 10
164.819
 20
19.1947
 30
0.0
 11
164.819
 21
16.3945
 31
0.0
  0
LINE
  8
0
 62
     0
 10
164.819
 20
16.3945
 30
0.0
 11
165.643
 21
16.3945
 31
0.0
  0
LINE
  8
0
 62
     0
 10
165.643
 20
16.3945
 30
0.0
 11
165.643
 21
10.1258
 31
0.0
  0
LINE
  8
0
 62
     0
 10
165.643
 20
10.1258
 30
0.0
 11
167.37
 21
10.1258
 31
0.0
  0
LINE
  8
0
 62
     0
 10
167.37
 20
10.1258
 30
0.0
 11
167.37
 21
9.14467
 31
0.0
  0
LINE
  8
0
 62
     0
 10
167.37
 20
9.14467
 30
0.0
 11
170.67
 21
9.14467
 31
0.0
  0
LINE
  8
0
 62
     0
 10
170.67
 20
9.14467
 30
0.0
 11
170.67
 21
10.1258
 31
0.0
  0
LINE
  8
0
 62
     0
 10
170.67
 20
10.1258
 30
0.0
 11
172.394
 21
10.1258
 31
0.0
  0
LINE
  8
0
 62
     0
 10
172.394
 20
10.1258
 30
0.0
 11
172.394
 21
14.5948
 31
0.0
  0
LINE
  8
0
 62
     0
 10
172.394
 20
14.5948
 30
0.0
 11
181.07
 21
14.5948
 31
0.0
  0
LINE
  8
0
 62
     0
 10
181.07
 20
14.5948
 30
0.0
 11
181.07
 21
13.994
 31
0.0
  0
LINE
  8
0
 62
     0
 10
181.07
 20
13.994
 30
0.0
 11
180.268
 21
13.994
 31
0.0
  0
LINE
  8
0
 62
     0
 10
180.268
 20
13.994
 30
0.0
 11
180.268
 21
10.8948
 31
0.0
  0
LINE
  8
0
 62
     0
 10
180.268
 20
10.8948
 30
0.0
 11
181.07
 21
10.8948
 31
0.0
  0
LINE
  8
0
 62
     0
 10
181.07
 20
10.8948
 30
0.0
 11
181.07
 21
9.89432
 31
0.0
  0
LINE
  8
0
 62
     0
 10
181.07
 20
9.89432
 30
0.0
 11
195.07
 21
9.89432
 31
0.0
  0
LINE
  8
0
 62
     0
 10
195.07
 20
9.89432
 30
0.0
 11
195.07
 21
10.8948
 31
0.0
  0
LINE
  8
0
 62
     0
 10
195.07
 20
10.8948
 30
0.0
 11
195.869
 21
10.8948
 31
0.0
  0
LINE
  8
0
 62
     0
 10
195.869
 20
10.8948
 30
0.0
 11
195.869
 21
13.994
 31
0.0
  0
LINE
  8
0
 62
     0
 10
195.869
 20
13.994
 30
0.0
 11
195.07
 21
13.994
 31
0.0
  0
LINE
  8
0
 62
     0
 10
195.07
 20
13.994
 30
0.0
 11
195.07
 21
14.5948
 31
0.0
  0
LINE
  8
0
 62
     0
 10
195.07
 20
14.5948
 30
0.0
 11
203.744
 21
14.5948
 31
0.0
  0
LINE
  8
0
 62
     0
 10
203.744
 20
14.5948
 30
0.0
 11
203.744
 21
10.1258
 31
0.0
  0
LINE
  8
0
 62
     0
 10
203.744
 20
10.1258
 30
0.0
 11
205.47
 21
10.1258
 31
0.0
  0
LINE
  8
0
 62
     0
 10
205.47
 20
10.1258
 30
0.0
 11
205.47
 21
9.14467
 31
0.0
  0
LINE
  8
0
 62
     0
 10
205.47
 20
9.14467
 30
0.0
 11
208.769
 21
9.14467
 31
0.0
  0
LINE
  8
0
 62
     0
 10
208.769
 20
9.14467
 30
0.0
 11
208.769
 21
10.1258
 31
0.0
  0
LINE
  8
0
 62
     0
 10
208.769
 20
10.1258
 30
0.0
 11
210.494
 21
10.1258
 31
0.0
  0
LINE
  8
0
 62
     0
 10
210.494
 20
10.1258
 30
0.0
 11
210.494
 21
16.3945
 31
0.0
  0
LINE
  8
0
 62
     0
 10
210.494
 20
16.3945
 30
0.0
 11
211.32
 21
16.3945
 31
0.0
  0
LINE
  8
0
 62
     0
 10
211.32
 20
16.3945
 30
0.0
 11
211.32
 21
19.1947
 31
0.0
  0
LINE
  8
0
 62
     0
 10
211.32
 20
19.1947
 30
0.0
 11
210.494
 21
19.1947
 31
0.0
  0
LINE
  8
0
 62
     0
 10
210.494
 20
19.1947
 30
0.0
 11
210.494
 21
22.4248
 31
0.0
  0
LINE
  8
0
 62
     0
 10
210.494
 20
22.4248
 30
0.0
 11
208.769
 21
22.4248
 31
0.0
  0
LINE
  8
0
 62
     0
 10
208.769
 20
22.4248
 30
0.0
 11
208.769
 21
23.3454
 31
0.0
  0
LINE
  8
0
 62
     0
 10
208.769
 20
23.3454
 30
0.0
 11
205.47
 21
23.3454
 31
0.0
  0
LINE
  8
0
 62
     0
 10
205.47
 20
23.3454
 30
0.0
 11
205.47
 21
22.4248
 31
0.0
  0
LINE
  8
0
 62
     0
 10
205.47
 20
22.4248
 30
0.0
 11
203.744
 21
22.4248
 31
0.0
  0
LINE
  8
0
 62
     0
 10
203.744
 20
22.4248
 30
0.0
 11
203.744
 21
19.1947
 31
0.0
  0
LINE
  8
0
 62
     0
 10
203.744
 20
19.1947
 30
0.0
 11
195.07
 21
19.1947
 31
0.0
  0
LINE
  8
0
 62
     0
 10
195.07
 20
19.1947
 30
0.0
 11
195.07
 21
19.7955
 31
0.0
  0
LINE
  8
0
 62
     0
 10
195.07
 20
19.7955
 30
0.0
 11
195.869
 21
19.7955
 31
0.0
  0
LINE
  8
0
 62
     0
 10
195.869
 20
19.7955
 30
0.0
 11
195.869
 21
22.8947
 31
0.0
  0
LINE
  8
0
 62
     0
 10
195.869
 20
22.8947
 30
0.0
 11
195.07
 21
22.8947
 31
0.0
  0
LINE
  8
0
 62
     0
 10
195.07
 20
22.8947
 30
0.0
 11
195.07
 21
23.8938
 31
0.0
  0
LINE
  8
0
 62
     0
 10
195.07
 20
23.8938
 30
0.0
 11
181.07
 21
23.8938
 31
0.0
  0
LINE
  8
0
 62
     0
 10
40.5751
 20
23.8938
 30
0.0
 11
40.5751
 21
22.8947
 31
0.0
  0
LINE
  8
0
 62
     0
 10
40.5751
 20
22.8947
 30
0.0
 11
39.7757
 21
22.8947
 31
0.0
  0
LINE
  8
0
 62
     0
 10
39.7757
 20
22.8947
 30
0.0
 11
39.7757
 21
19.7955
 31
0.0
  0
LINE
  8
0
 62
     0
 10
39.7757
 20
19.7955
 30
0.0
 11
40.5751
 21
19.7955
 31
0.0
  0
LINE
  8
0
 62
     0
 10
40.5751
 20
19.7955
 30
0.0
 11
40.5751
 21
13.994
 31
0.0
  0
LINE
  8
0
 62
     0
 10
40.5751
 20
13.994
 30
0.0
 11
39.7757
 21
13.994
 31
0.0
  0
LINE
  8
0
 62
     0
 10
39.7757
 20
13.994
 30
0.0
 11
39.7757
 21
10.8948
 31
0.0
  0
LINE
  8
0
 62
     0
 10
39.7757
 20
10.8948
 30
0.0
 11
40.5751
 21
10.8948
 31
0.0
  0
LINE
  8
0
 62
     0
 10
40.5751
 20
10.8948
 30
0.0
 11
40.5751
 21
9.89432
 31
0.0
  0
LINE
  8
0
 62
     0
 10
40.5751
 20
9.89432
 30
0.0
 11
54.5758
 21
9.89432
 31
0.0
  0
LINE
  8
0
 62
     0
 10
54.5758
 20
9.89432
 30
0.0
 11
54.5758
 21
10.8948
 31
0.0
  0
LINE
  8
0
 62
     0
 10
54.5758
 20
10.8948
 30
0.0
 11
55.3752
 21
10.8948
 31
0.0
  0
LINE
  8
0
 62
     0
 10
55.3752
 20
10.8948
 30
0.0
 11
55.3752
 21
13.994
 31
0.0
  0
LINE
  8
0
 62
     0
 10
55.3752
 20
13.994
 30
0.0
 11
54.5758
 21
13.994
 31
0.0
  0
LINE
  8
0
 62
     0
 10
54.5758
 20
13.994
 30
0.0
 11
54.5758
 21
19.7955
 31
0.0
  0
LINE
  8
0
 62
     0
 10
54.5758
 20
19.7955
 30
0.0
 11
55.3752
 21
19.7955
 31
0.0
  0
LINE
  8
0
 62
     0
 10
55.3752
 20
19.7955
 30
0.0
 11
55.3752
 21
22.8947
 31
0.0
  0
LINE
  8
0
 62
     0
 10
55.3752
 20
22.8947
 30
0.0
 11
54.5758
 21
22.8947
 31
0.0
  0
LINE
  8
0
 62
     0
 10
54.5758
 20
22.8947
 30
0.0
 11
54.5758
 21
23.8938
 31
0.0
  0
LINE
  8
0
 62
     0
 10
54.5758
 20
23.8938
 30
0.0
 11
40.5751
 21
23.8938
 31
0.0
  0
LINE
  8
0
 62
     0
 10
64.3876
 20
23.8938
 30
0.0
 11
64.3876
 21
22.8947
 31
0.0
  0
LINE
  8
0
 62
     0
 10
64.3876
 20
22.8947
 30
0.0
 11
63.5868
 21
22.8947
 31
0.0
  0
LINE
  8
0
 62
     0
 10
63.5868
 20
22.8947
 30
0.0
 11
63.5868
 21
19.7955
 31
0.0
  0
LINE
  8
0
 62
     0
 10
63.5868
 20
19.7955
 30
0.0
 11
64.3876
 21
19.7955
 31
0.0
  0
LINE
  8
0
 62
     0
 10
64.3876
 20
19.7955
 30
0.0
 11
64.3876
 21
13.994
 31
0.0
  0
LINE
  8
0
 62
     0
 10
64.3876
 20
13.994
 30
0.0
 11
63.5868
 21
13.994
 31
0.0
  0
LINE
  8
0
 62
     0
 10
63.5868
 20
13.994
 30
0.0
 11
63.5868
 21
10.8948
 31
0.0
  0
LINE
  8
0
 62
     0
 10
63.5868
 20
10.8948
 30
0.0
 11
64.3876
 21
10.8948
 31
0.0
  0
LINE
  8
0
 62
     0
 10
64.3876
 20
10.8948
 30
0.0
 11
64.3876
 21
9.89432
 31
0.0
  0
LINE
  8
0
 62
     0
 10
64.3876
 20
9.89432
 30
0.0
 11
78.3869
 21
9.89432
 31
0.0
  0
LINE
  8
0
 62
     0
 10
78.3869
 20
9.89432
 30
0.0
 11
78.3869
 21
10.8948
 31
0.0
  0
LINE
  8
0
 62
     0
 10
78.3869
 20
10.8948
 30
0.0
 11
79.1877
 21
10.8948
 31
0.0
  0
LINE
  8
0
 62
     0
 10
79.1877
 20
10.8948
 30
0.0
 11
79.1877
 21
13.994
 31
0.0
  0
LINE
  8
0
 62
     0
 10
79.1877
 20
13.994
 30
0.0
 11
78.3869
 21
13.994
 31
0.0
  0
LINE
  8
0
 62
     0
 10
78.3869
 20
13.994
 30
0.0
 11
78.3869
 21
19.7955
 31
0.0
  0
LINE
  8
0
 62
     0
 10
78.3869
 20
19.7955
 30
0.0
 11
79.1877
 21
19.7955
 31
0.0
  0
LINE
  8
0
 62
     0
 10
79.1877
 20
19.7955
 30
0.0
 11
79.1877
 21
22.8947
 31
0.0
  0
LINE
  8
0
 62
     0
 10
79.1877
 20
22.8947
 30
0.0
 11
78.3869
 21
22.8947
 31
0.0
  0
LINE
  8
0
 62
     0
 10
78.3869
 20
22.8947
 30
0.0
 11
78.3869
 21
23.8938
 31
0.0
  0
LINE
  8
0
 62
     0
 10
78.3869
 20
23.8938
 30
0.0
 11
64.3876
 21
23.8938
 31
0.0
  0
LINE
  8
0
 62
     0
 10
142.97
 20
23.8938
 30
0.0
 11
142.97
 21
22.8947
 31
0.0
  0
LINE
  8
0
 62
     0
 10
142.97
 20
22.8947
 30
0.0
 11
142.169
 21
22.8947
 31
0.0
  0
LINE
  8
0
 62
     0
 10
142.169
 20
22.8947
 30
0.0
 11
142.169
 21
19.7955
 31
0.0
  0
LINE
  8
0
 62
     0
 10
142.169
 20
19.7955
 30
0.0
 11
142.97
 21
19.7955
 31
0.0
  0
LINE
  8
0
 62
     0
 10
142.97
 20
19.7955
 30
0.0
 11
142.97
 21
13.994
 31
0.0
  0
LINE
  8
0
 62
     0
 10
142.97
 20
13.994
 30
0.0
 11
142.169
 21
13.994
 31
0.0
  0
LINE
  8
0
 62
     0
 10
142.169
 20
13.994
 30
0.0
 11
142.169
 21
10.8948
 31
0.0
  0
LINE
  8
0
 62
     0
 10
142.169
 20
10.8948
 30
0.0
 11
142.97
 21
10.8948
 31
0.0
  0
LINE
  8
0
 62
     0
 10
142.97
 20
10.8948
 30
0.0
 11
142.97
 21
9.89432
 31
0.0
  0
LINE
  8
0
 62
     0
 10
142.97
 20
9.89432
 30
0.0
 11
156.97
 21
9.89432
 31
0.0
  0
LINE
  8
0
 62
     0
 10
156.97
 20
9.89432
 30
0.0
 11
156.97
 21
10.8948
 31
0.0
  0
LINE
  8
0
 62
     0
 10
156.97
 20
10.8948
 30
0.0
 11
157.769
 21
10.8948
 31
0.0
  0
LINE
  8
0
 62
     0
 10
157.769
 20
10.8948
 30
0.0
 11
157.769
 21
13.994
 31
0.0
  0
LINE
  8
0
 62
     0
 10
157.769
 20
13.994
 30
0.0
 11
156.97
 21
13.994
 31
0.0
  0
LINE
  8
0
 62
     0
 10
156.97
 20
13.994
 30
0.0
 11
156.97
 21
19.7955
 31
0.0
  0
LINE
  8
0
 62
     0
 10
156.97
 20
19.7955
 30
0.0
 11
157.769
 21
19.7955
 31
0.0
  0
LINE
  8
0
 62
     0
 10
157.769
 20
19.7955
 30
0.0
 11
157.769
 21
22.8947
 31
0.0
  0
LINE
  8
0
 62
     0
 10
157.769
 20
22.8947
 30
0.0
 11
156.97
 21
22.8947
 31
0.0
  0
LINE
  8
0
 62
     0
 10
156.97
 20
22.8947
 30
0.0
 11
156.97
 21
23.8938
 31
0.0
  0
LINE
  8
0
 62
     0
 10
156.97
 20
23.8938
 30
0.0
 11
142.97
 21
23.8938
 31
0.0
  0
LINE
  8
0
 62
     0
 10
221.55
 20
23.8938
 30
0.0
 11
221.55
 21
22.8947
 31
0.0
  0
LINE
  8
0
 62
     0
 10
221.55
 20
22.8947
 30
0.0
 11
220.751
 21
22.8947
 31
0.0
  0
LINE
  8
0
 62
     0
 10
220.751
 20
22.8947
 30
0.0
 11
220.751
 21
19.7955
 31
0.0
  0
LINE
  8
0
 62
     0
 10
220.751
 20
19.7955
 30
0.0
 11
221.55
 21
19.7955
 31
0.0
  0
LINE
  8
0
 62
     0
 10
221.55
 20
19.7955
 30
0.0
 11
221.55
 21
13.994
 31
0.0
  0
LINE
  8
0
 62
     0
 10
221.55
 20
13.994
 30
0.0
 11
220.751
 21
13.994
 31
0.0
  0
LINE
  8
0
 62
     0
 10
220.751
 20
13.994
 30
0.0
 11
220.751
 21
10.8948
 31
0.0
  0
LINE
  8
0
 62
     0
 10
220.751
 20
10.8948
 30
0.0
 11
221.55
 21
10.8948
 31
0.0
  0
LINE
  8
0
 62
     0
 10
221.55
 20
10.8948
 30
0.0
 11
221.55
 21
9.89432
 31
0.0
  0
LINE
  8
0
 62
     0
 10
221.55
 20
9.89432
 30
0.0
 11
235.551
 21
9.89432
 31
0.0
  0
LINE
  8
0
 62
     0
 10
235.551
 20
9.89432
 30
0.0
 11
235.551
 21
10.8948
 31
0.0
  0
LINE
  8
0
 62
     0
 10
235.551
 20
10.8948
 30
0.0
 11
236.35
 21
10.8948
 31
0.0
  0
LINE
  8
0
 62
     0
 10
236.35
 20
10.8948
 30
0.0
 11
236.35
 21
13.994
 31
0.0
  0
LINE
  8
0
 62
     0
 10
236.35
 20
13.994
 30
0.0
 11
235.551
 21
13.994
 31
0.0
  0
LINE
  8
0
 62
     0
 10
235.551
 20
13.994
 30
0.0
 11
235.551
 21
19.7955
 31
0.0
  0
LINE
  8
0
 62
     0
 10
235.551
 20
19.7955
 30
0.0
 11
236.35
 21
19.7955
 31
0.0
  0
LINE
  8
0
 62
     0
 10
236.35
 20
19.7955
 30
0.0
 11
236.35
 21
22.8947
 31
0.0
  0
LINE
  8
0
 62
     0
 10
236.35
 20
22.8947
 30
0.0
 11
235.551
 21
22.8947
 31
0.0
  0
LINE
  8
0
 62
     0
 10
235.551
 20
22.8947
 30
0.0
 11
235.551
 21
23.8938
 31
0.0
  0
LINE
  8
0
 62
     0
 10
235.551
 20
23.8938
 30
0.0
 11
221.55
 21
23.8938
 31
0.0
  0
LINE
  8
0
 62
     0
 10
242.981
 20
23.8938
 30
0.0
 11
242.981
 21
22.8947
 31
0.0
  0
LINE
  8
0
 62
     0
 10
242.981
 20
22.8947
 30
0.0
 11
242.182
 21
22.8947
 31
0.0
  0
LINE
  8
0
 62
     0
 10
242.182
 20
22.8947
 30
0.0
 11
242.182
 21
19.7955
 31
0.0
  0
LINE
  8
0
 62
     0
 10
242.182
 20
19.7955
 30
0.0
 11
242.981
 21
19.7955
 31
0.0
  0
LINE
  8
0
 62
     0
 10
242.981
 20
19.7955
 30
0.0
 11
242.981
 21
13.994
 31
0.0
  0
LINE
  8
0
 62
     0
 10
242.981
 20
13.994
 30
0.0
 11
242.182
 21
13.994
 31
0.0
  0
LINE
  8
0
 62
     0
 10
242.182
 20
13.994
 30
0.0
 11
242.182
 21
10.8948
 31
0.0
  0
LINE
  8
0
 62
     0
 10
242.182
 20
10.8948
 30
0.0
 11
242.981
 21
10.8948
 31
0.0
  0
LINE
  8
0
 62
     0
 10
242.981
 20
10.8948
 30
0.0
 11
242.981
 21
9.89432
 31
0.0
  0
LINE
  8
0
 62
     0
 10
242.981
 20
9.89432
 30
0.0
 11
256.982
 21
9.89432
 31
0.0
  0
LINE
  8
0
 62
     0
 10
256.982
 20
9.89432
 30
0.0
 11
256.982
 21
10.8948
 31
0.0
  0
LINE
  8
0
 62
     0
 10
256.982
 20
10.8948
 30
0.0
 11
257.781
 21
10.8948
 31
0.0
  0
LINE
  8
0
 62
     0
 10
257.781
 20
10.8948
 30
0.0
 11
257.781
 21
13.994
 31
0.0
  0
LINE
  8
0
 62
     0
 10
257.781
 20
13.994
 30
0.0
 11
256.982
 21
13.994
 31
0.0
  0
LINE
  8
0
 62
     0
 10
256.982
 20
13.994
 30
0.0
 11
256.982
 21
19.7955
 31
0.0
  0
LINE
  8
0
 62
     0
 10
256.982
 20
19.7955
 30
0.0
 11
257.781
 21
19.7955
 31
0.0
  0
LINE
  8
0
 62
     0
 10
257.781
 20
19.7955
 30
0.0
 11
257.781
 21
22.8947
 31
0.0
  0
LINE
  8
0
 62
     0
 10
257.781
 20
22.8947
 30
0.0
 11
256.982
 21
22.8947
 31
0.0
  0
LINE
  8
0
 62
     0
 10
256.982
 20
22.8947
 30
0.0
 11
256.982
 21
23.8938
 31
0.0
  0
LINE
  8
0
 62
     0
 10
256.982
 20
23.8938
 30
0.0
 11
242.981
 21
23.8938
 31
0.0
  0
LINE
  8
0
 62
     0
 10
264.413
 20
23.8938
 30
0.0
 11
264.413
 21
22.8947
 31
0.0
  0
LINE
  8
0
 62
     0
 10
264.413
 20
22.8947
 30
0.0
 11
263.612
 21
22.8947
 31
0.0
  0
LINE
  8
0
 62
     0
 10
263.612
 20
22.8947
 30
0.0
 11
263.612
 21
19.7955
 31
0.0
  0
LINE
  8
0
 62
     0
 10
263.612
 20
19.7955
 30
0.0
 11
264.413
 21
19.7955
 31
0.0
  0
LINE
  8
0
 62
     0
 10
264.413
 20
19.7955
 30
0.0
 11
264.413
 21
13.994
 31
0.0
  0
LINE
  8
0
 62
     0
 10
264.413
 20
13.994
 30
0.0
 11
263.612
 21
13.994
 31
0.0
  0
LINE
  8
0
 62
     0
 10
263.612
 20
13.994
 30
0.0
 11
263.612
 21
10.8948
 31
0.0
  0
LINE
  8
0
 62
     0
 10
263.612
 20
10.8948
 30
0.0
 11
264.413
 21
10.8948
 31
0.0
  0
LINE
  8
0
 62
     0
 10
264.413
 20
10.8948
 30
0.0
 11
264.413
 21
9.89432
 31
0.0
  0
LINE
  8
0
 62
     0
 10
264.413
 20
9.89432
 30
0.0
 11
278.412
 21
9.89432
 31
0.0
  0
LINE
  8
0
 62
     0
 10
278.412
 20
9.89432
 30
0.0
 11
278.412
 21
10.8948
 31
0.0
  0
LINE
  8
0
 62
     0
 10
278.412
 20
10.8948
 30
0.0
 11
279.213
 21
10.8948
 31
0.0
  0
LINE
  8
0
 62
     0
 10
279.213
 20
10.8948
 30
0.0
 11
279.213
 21
13.994
 31
0.0
  0
LINE
  8
0
 62
     0
 10
279.213
 20
13.994
 30
0.0
 11
278.412
 21
13.994
 31
0.0
  0
LINE
  8
0
 62
     0
 10
278.412
 20
13.994
 30
0.0
 11
278.412
 21
19.7955
 31
0.0
  0
LINE
  8
0
 62
     0
 10
278.412
 20
19.7955
 30
0.0
 11
279.213
 21
19.7955
 31
0.0
  0
LINE
  8
0
 62
     0
 10
279.213
 20
19.7955
 30
0.0
 11
279.213
 21
22.8947
 31
0.0
  0
LINE
  8
0
 62
     0
 10
279.213
 20
22.8947
 30
0.0
 11
278.412
 21
22.8947
 31
0.0
  0
LINE
  8
0
 62
     0
 10
278.412
 20
22.8947
 30
0.0
 11
278.412
 21
23.8938
 31
0.0
  0
LINE
  8
0
 62
     0
 10
278.412
 20
23.8938
 30
0.0
 11
264.413
 21
23.8938
 31
0.0
  0
LINE
  8
0
 62
     0
 10
247.745
 20
42.9436
 30
0.0
 11
247.745
 21
41.9446
 31
0.0
  0
LINE
  8
0
 62
     0
 10
247.745
 20
41.9446
 30
0.0
 11
246.944
 21
41.9446
 31
0.0
  0
LINE
  8
0
 62
     0
 10
246.944
 20
41.9446
 30
0.0
 11
246.944
 21
38.8454
 31
0.0
  0
LINE
  8
0
 62
     0
 10
246.944
 20
38.8454
 30
0.0
 11
247.745
 21
38.8454
 31
0.0
  0
LINE
  8
0
 62
     0
 10
247.745
 20
38.8454
 30
0.0
 11
247.745
 21
38.2446
 31
0.0
  0
LINE
  8
0
 62
     0
 10
247.745
 20
38.2446
 30
0.0
 11
246.219
 21
38.2446
 31
0.0
  0
LINE
  8
0
 62
     0
 10
246.219
 20
38.2446
 30
0.0
 11
246.219
 21
41.4747
 31
0.0
  0
LINE
  8
0
 62
     0
 10
246.219
 20
41.4747
 30
0.0
 11
244.494
 21
41.4747
 31
0.0
  0
LINE
  8
0
 62
     0
 10
244.494
 20
41.4747
 30
0.0
 11
244.494
 21
42.394
 31
0.0
  0
LINE
  8
0
 62
     0
 10
244.494
 20
42.394
 30
0.0
 11
241.194
 21
42.394
 31
0.0
  0
LINE
  8
0
 62
     0
 10
241.194
 20
42.394
 30
0.0
 11
241.194
 21
41.4747
 31
0.0
  0
LINE
  8
0
 62
     0
 10
241.194
 20
41.4747
 30
0.0
 11
239.47
 21
41.4747
 31
0.0
  0
LINE
  8
0
 62
     0
 10
239.47
 20
41.4747
 30
0.0
 11
239.47
 21
38.2446
 31
0.0
  0
LINE
  8
0
 62
     0
 10
239.47
 20
38.2446
 30
0.0
 11
238.645
 21
38.2446
 31
0.0
  0
LINE
  8
0
 62
     0
 10
238.645
 20
38.2446
 30
0.0
 11
238.645
 21
35.4446
 31
0.0
  0
LINE
  8
0
 62
     0
 10
238.645
 20
35.4446
 30
0.0
 11
239.47
 21
35.4446
 31
0.0
  0
LINE
  8
0
 62
     0
 10
239.47
 20
35.4446
 30
0.0
 11
239.47
 21
29.1744
 31
0.0
  0
LINE
  8
0
 62
     0
 10
239.47
 20
29.1744
 30
0.0
 11
241.194
 21
29.1744
 31
0.0
  0
LINE
  8
0
 62
     0
 10
241.194
 20
29.1744
 30
0.0
 11
241.194
 21
28.1947
 31
0.0
  0
LINE
  8
0
 62
     0
 10
241.194
 20
28.1947
 30
0.0
 11
244.494
 21
28.1947
 31
0.0
  0
LINE
  8
0
 62
     0
 10
244.494
 20
28.1947
 30
0.0
 11
244.494
 21
29.1744
 31
0.0
  0
LINE
  8
0
 62
     0
 10
244.494
 20
29.1744
 30
0.0
 11
246.219
 21
29.1744
 31
0.0
  0
LINE
  8
0
 62
     0
 10
246.219
 20
29.1744
 30
0.0
 11
246.219
 21
33.6448
 31
0.0
  0
LINE
  8
0
 62
     0
 10
246.219
 20
33.6448
 30
0.0
 11
247.745
 21
33.6448
 31
0.0
  0
LINE
  8
0
 62
     0
 10
247.745
 20
33.6448
 30
0.0
 11
247.745
 21
33.044
 31
0.0
  0
LINE
  8
0
 62
     0
 10
247.745
 20
33.044
 30
0.0
 11
246.944
 21
33.044
 31
0.0
  0
LINE
  8
0
 62
     0
 10
246.944
 20
33.044
 30
0.0
 11
246.944
 21
29.9448
 31
0.0
  0
LINE
  8
0
 62
     0
 10
246.944
 20
29.9448
 30
0.0
 11
247.745
 21
29.9448
 31
0.0
  0
LINE
  8
0
 62
     0
 10
247.745
 20
29.9448
 30
0.0
 11
247.745
 21
28.9443
 31
0.0
  0
LINE
  8
0
 62
     0
 10
247.745
 20
28.9443
 30
0.0
 11
261.745
 21
28.9443
 31
0.0
  0
LINE
  8
0
 62
     0
 10
261.745
 20
28.9443
 30
0.0
 11
261.745
 21
29.9448
 31
0.0
  0
LINE
  8
0
 62
     0
 10
261.745
 20
29.9448
 30
0.0
 11
262.544
 21
29.9448
 31
0.0
  0
LINE
  8
0
 62
     0
 10
262.544
 20
29.9448
 30
0.0
 11
262.544
 21
33.044
 31
0.0
  0
LINE
  8
0
 62
     0
 10
262.544
 20
33.044
 30
0.0
 11
261.745
 21
33.044
 31
0.0
  0
LINE
  8
0
 62
     0
 10
261.745
 20
33.044
 30
0.0
 11
261.745
 21
33.6448
 31
0.0
  0
LINE
  8
0
 62
     0
 10
261.745
 20
33.6448
 30
0.0
 11
263.27
 21
33.6448
 31
0.0
  0
LINE
  8
0
 62
     0
 10
263.27
 20
33.6448
 30
0.0
 11
263.27
 21
29.1744
 31
0.0
  0
LINE
  8
0
 62
     0
 10
263.27
 20
29.1744
 30
0.0
 11
264.994
 21
29.1744
 31
0.0
  0
LINE
  8
0
 62
     0
 10
264.994
 20
29.1744
 30
0.0
 11
264.994
 21
28.1947
 31
0.0
  0
LINE
  8
0
 62
     0
 10
264.994
 20
28.1947
 30
0.0
 11
268.295
 21
28.1947
 31
0.0
  0
LINE
  8
0
 62
     0
 10
268.295
 20
28.1947
 30
0.0
 11
268.295
 21
29.1744
 31
0.0
  0
LINE
  8
0
 62
     0
 10
268.295
 20
29.1744
 30
0.0
 11
270.02
 21
29.1744
 31
0.0
  0
LINE
  8
0
 62
     0
 10
270.02
 20
29.1744
 30
0.0
 11
270.02
 21
35.4446
 31
0.0
  0
LINE
  8
0
 62
     0
 10
270.02
 20
35.4446
 30
0.0
 11
270.845
 21
35.4446
 31
0.0
  0
LINE
  8
0
 62
     0
 10
270.845
 20
35.4446
 30
0.0
 11
270.845
 21
38.2446
 31
0.0
  0
LINE
  8
0
 62
     0
 10
270.845
 20
38.2446
 30
0.0
 11
270.02
 21
38.2446
 31
0.0
  0
LINE
  8
0
 62
     0
 10
270.02
 20
38.2446
 30
0.0
 11
270.02
 21
41.4747
 31
0.0
  0
LINE
  8
0
 62
     0
 10
270.02
 20
41.4747
 30
0.0
 11
268.295
 21
41.4747
 31
0.0
  0
LINE
  8
0
 62
     0
 10
268.295
 20
41.4747
 30
0.0
 11
268.295
 21
42.394
 31
0.0
  0
LINE
  8
0
 62
     0
 10
268.295
 20
42.394
 30
0.0
 11
264.994
 21
42.394
 31
0.0
  0
LINE
  8
0
 62
     0
 10
264.994
 20
42.394
 30
0.0
 11
264.994
 21
41.4747
 31
0.0
  0
LINE
  8
0
 62
     0
 10
264.994
 20
41.4747
 30
0.0
 11
263.27
 21
41.4747
 31
0.0
  0
LINE
  8
0
 62
     0
 10
263.27
 20
41.4747
 30
0.0
 11
263.27
 21
38.2446
 31
0.0
  0
LINE
  8
0
 62
     0
 10
263.27
 20
38.2446
 30
0.0
 11
261.745
 21
38.2446
 31
0.0
  0
LINE
  8
0
 62
     0
 10
261.745
 20
38.2446
 30
0.0
 11
261.745
 21
38.8454
 31
0.0
  0
LINE
  8
0
 62
     0
 10
261.745
 20
38.8454
 30
0.0
 11
262.544
 21
38.8454
 31
0.0
  0
LINE
  8
0
 62
     0
 10
262.544
 20
38.8454
 30
0.0
 11
262.544
 21
41.9446
 31
0.0
  0
LINE
  8
0
 62
     0
 10
262.544
 20
41.9446
 30
0.0
 11
261.745
 21
41.9446
 31
0.0
  0
LINE
  8
0
 62
     0
 10
261.745
 20
41.9446
 30
0.0
 11
261.745
 21
42.9436
 31
0.0
  0
LINE
  8
0
 62
     0
 10
261.745
 20
42.9436
 30
0.0
 11
247.745
 21
42.9436
 31
0.0
  0
LINE
  8
0
 62
     0
 10
28.6701
 20
42.9436
 30
0.0
 11
28.6701
 21
41.9446
 31
0.0
  0
LINE
  8
0
 62
     0
 10
28.6701
 20
41.9446
 30
0.0
 11
27.8694
 21
41.9446
 31
0.0
  0
LINE
  8
0
 62
     0
 10
27.8694
 20
41.9446
 30
0.0
 11
27.8694
 21
38.8454
 31
0.0
  0
LINE
  8
0
 62
     0
 10
27.8694
 20
38.8454
 30
0.0
 11
28.6701
 21
38.8454
 31
0.0
  0
LINE
  8
0
 62
     0
 10
28.6701
 20
38.8454
 30
0.0
 11
28.6701
 21
33.044
 31
0.0
  0
LINE
  8
0
 62
     0
 10
28.6701
 20
33.044
 30
0.0
 11
27.8694
 21
33.044
 31
0.0
  0
LINE
  8
0
 62
     0
 10
27.8694
 20
33.044
 30
0.0
 11
27.8694
 21
29.9448
 31
0.0
  0
LINE
  8
0
 62
     0
 10
27.8694
 20
29.9448
 30
0.0
 11
28.6701
 21
29.9448
 31
0.0
  0
LINE
  8
0
 62
     0
 10
28.6701
 20
29.9448
 30
0.0
 11
28.6701
 21
28.9443
 31
0.0
  0
LINE
  8
0
 62
     0
 10
28.6701
 20
28.9443
 30
0.0
 11
42.6695
 21
28.9443
 31
0.0
  0
LINE
  8
0
 62
     0
 10
42.6695
 20
28.9443
 30
0.0
 11
42.6695
 21
29.9448
 31
0.0
  0
LINE
  8
0
 62
     0
 10
42.6695
 20
29.9448
 30
0.0
 11
43.4689
 21
29.9448
 31
0.0
  0
LINE
  8
0
 62
     0
 10
43.4689
 20
29.9448
 30
0.0
 11
43.4689
 21
33.044
 31
0.0
  0
LINE
  8
0
 62
     0
 10
43.4689
 20
33.044
 30
0.0
 11
42.6695
 21
33.044
 31
0.0
  0
LINE
  8
0
 62
     0
 10
42.6695
 20
33.044
 30
0.0
 11
42.6695
 21
38.8454
 31
0.0
  0
LINE
  8
0
 62
     0
 10
42.6695
 20
38.8454
 30
0.0
 11
43.4689
 21
38.8454
 31
0.0
  0
LINE
  8
0
 62
     0
 10
43.4689
 20
38.8454
 30
0.0
 11
43.4689
 21
41.9446
 31
0.0
  0
LINE
  8
0
 62
     0
 10
43.4689
 20
41.9446
 30
0.0
 11
42.6695
 21
41.9446
 31
0.0
  0
LINE
  8
0
 62
     0
 10
42.6695
 20
41.9446
 30
0.0
 11
42.6695
 21
42.9436
 31
0.0
  0
LINE
  8
0
 62
     0
 10
42.6695
 20
42.9436
 30
0.0
 11
28.6701
 21
42.9436
 31
0.0
  0
LINE
  8
0
 62
     0
 10
47.7203
 20
42.9436
 30
0.0
 11
47.7203
 21
41.9446
 31
0.0
  0
LINE
  8
0
 62
     0
 10
47.7203
 20
41.9446
 30
0.0
 11
46.9194
 21
41.9446
 31
0.0
  0
LINE
  8
0
 62
     0
 10
46.9194
 20
41.9446
 30
0.0
 11
46.9194
 21
38.8454
 31
0.0
  0
LINE
  8
0
 62
     0
 10
46.9194
 20
38.8454
 30
0.0
 11
47.7203
 21
38.8454
 31
0.0
  0
LINE
  8
0
 62
     0
 10
47.7203
 20
38.8454
 30
0.0
 11
47.7203
 21
33.044
 31
0.0
  0
LINE
  8
0
 62
     0
 10
47.7203
 20
33.044
 30
0.0
 11
46.9194
 21
33.044
 31
0.0
  0
LINE
  8
0
 62
     0
 10
46.9194
 20
33.044
 30
0.0
 11
46.9194
 21
29.9448
 31
0.0
  0
LINE
  8
0
 62
     0
 10
46.9194
 20
29.9448
 30
0.0
 11
47.7203
 21
29.9448
 31
0.0
  0
LINE
  8
0
 62
     0
 10
47.7203
 20
29.9448
 30
0.0
 11
47.7203
 21
28.9443
 31
0.0
  0
LINE
  8
0
 62
     0
 10
47.7203
 20
28.9443
 30
0.0
 11
61.7195
 21
28.9443
 31
0.0
  0
LINE
  8
0
 62
     0
 10
61.7195
 20
28.9443
 30
0.0
 11
61.7195
 21
29.9448
 31
0.0
  0
LINE
  8
0
 62
     0
 10
61.7195
 20
29.9448
 30
0.0
 11
62.5189
 21
29.9448
 31
0.0
  0
LINE
  8
0
 62
     0
 10
62.5189
 20
29.9448
 30
0.0
 11
62.5189
 21
33.044
 31
0.0
  0
LINE
  8
0
 62
     0
 10
62.5189
 20
33.044
 30
0.0
 11
61.7195
 21
33.044
 31
0.0
  0
LINE
  8
0
 62
     0
 10
61.7195
 20
33.044
 30
0.0
 11
61.7195
 21
38.8454
 31
0.0
  0
LINE
  8
0
 62
     0
 10
61.7195
 20
38.8454
 30
0.0
 11
62.5189
 21
38.8454
 31
0.0
  0
LINE
  8
0
 62
     0
 10
62.5189
 20
38.8454
 30
0.0
 11
62.5189
 21
41.9446
 31
0.0
  0
LINE
  8
0
 62
     0
 10
62.5189
 20
41.9446
 30
0.0
 11
61.7195
 21
41.9446
 31
0.0
  0
LINE
  8
0
 62
     0
 10
61.7195
 20
41.9446
 30
0.0
 11
61.7195
 21
42.9436
 31
0.0
  0
LINE
  8
0
 62
     0
 10
61.7195
 20
42.9436
 30
0.0
 11
47.7203
 21
42.9436
 31
0.0
  0
LINE
  8
0
 62
     0
 10
66.7703
 20
42.9436
 30
0.0
 11
66.7703
 21
41.9446
 31
0.0
  0
LINE
  8
0
 62
     0
 10
66.7703
 20
41.9446
 30
0.0
 11
65.9694
 21
41.9446
 31
0.0
  0
LINE
  8
0
 62
     0
 10
65.9694
 20
41.9446
 30
0.0
 11
65.9694
 21
38.8454
 31
0.0
  0
LINE
  8
0
 62
     0
 10
65.9694
 20
38.8454
 30
0.0
 11
66.7703
 21
38.8454
 31
0.0
  0
LINE
  8
0
 62
     0
 10
66.7703
 20
38.8454
 30
0.0
 11
66.7703
 21
33.044
 31
0.0
  0
LINE
  8
0
 62
     0
 10
66.7703
 20
33.044
 30
0.0
 11
65.9694
 21
33.044
 31
0.0
  0
LINE
  8
0
 62
     0
 10
65.9694
 20
33.044
 30
0.0
 11
65.9694
 21
29.9448
 31
0.0
  0
LINE
  8
0
 62
     0
 10
65.9694
 20
29.9448
 30
0.0
 11
66.7703
 21
29.9448
 31
0.0
  0
LINE
  8
0
 62
     0
 10
66.7703
 20
29.9448
 30
0.0
 11
66.7703
 21
28.9443
 31
0.0
  0
LINE
  8
0
 62
     0
 10
66.7703
 20
28.9443
 30
0.0
 11
80.7695
 21
28.9443
 31
0.0
  0
LINE
  8
0
 62
     0
 10
80.7695
 20
28.9443
 30
0.0
 11
80.7695
 21
29.9448
 31
0.0
  0
LINE
  8
0
 62
     0
 10
80.7695
 20
29.9448
 30
0.0
 11
81.5689
 21
29.9448
 31
0.0
  0
LINE
  8
0
 62
     0
 10
81.5689
 20
29.9448
 30
0.0
 11
81.5689
 21
33.044
 31
0.0
  0
LINE
  8
0
 62
     0
 10
81.5689
 20
33.044
 30
0.0
 11
80.7695
 21
33.044
 31
0.0
  0
LINE
  8
0
 62
     0
 10
80.7695
 20
33.044
 30
0.0
 11
80.7695
 21
38.8454
 31
0.0
  0
LINE
  8
0
 62
     0
 10
80.7695
 20
38.8454
 30
0.0
 11
81.5689
 21
38.8454
 31
0.0
  0
LINE
  8
0
 62
     0
 10
81.5689
 20
38.8454
 30
0.0
 11
81.5689
 21
41.9446
 31
0.0
  0
LINE
  8
0
 62
     0
 10
81.5689
 20
41.9446
 30
0.0
 11
80.7695
 21
41.9446
 31
0.0
  0
LINE
  8
0
 62
     0
 10
80.7695
 20
41.9446
 30
0.0
 11
80.7695
 21
42.9436
 31
0.0
  0
LINE
  8
0
 62
     0
 10
80.7695
 20
42.9436
 30
0.0
 11
66.7703
 21
42.9436
 31
0.0
  0
LINE
  8
0
 62
     0
 10
85.8203
 20
42.9436
 30
0.0
 11
85.8203
 21
41.9446
 31
0.0
  0
LINE
  8
0
 62
     0
 10
85.8203
 20
41.9446
 30
0.0
 11
85.0194
 21
41.9446
 31
0.0
  0
LINE
  8
0
 62
     0
 10
85.0194
 20
41.9446
 30
0.0
 11
85.0194
 21
38.8454
 31
0.0
  0
LINE
  8
0
 62
     0
 10
85.0194
 20
38.8454
 30
0.0
 11
85.8203
 21
38.8454
 31
0.0
  0
LINE
  8
0
 62
     0
 10
85.8203
 20
38.8454
 30
0.0
 11
85.8203
 21
33.044
 31
0.0
  0
LINE
  8
0
 62
     0
 10
85.8203
 20
33.044
 30
0.0
 11
85.0194
 21
33.044
 31
0.0
  0
LINE
  8
0
 62
     0
 10
85.0194
 20
33.044
 30
0.0
 11
85.0194
 21
29.9448
 31
0.0
  0
LINE
  8
0
 62
     0
 10
85.0194
 20
29.9448
 30
0.0
 11
85.8203
 21
29.9448
 31
0.0
  0
LINE
  8
0
 62
     0
 10
85.8203
 20
29.9448
 30
0.0
 11
85.8203
 21
28.9443
 31
0.0
  0
LINE
  8
0
 62
     0
 10
85.8203
 20
28.9443
 30
0.0
 11
99.8195
 21
28.9443
 31
0.0
  0
LINE
  8
0
 62
     0
 10
99.8195
 20
28.9443
 30
0.0
 11
99.8195
 21
29.9448
 31
0.0
  0
LINE
  8
0
 62
     0
 10
99.8195
 20
29.9448
 30
0.0
 11
100.619
 21
29.9448
 31
0.0
  0
LINE
  8
0
 62
     0
 10
100.619
 20
29.9448
 30
0.0
 11
100.619
 21
33.044
 31
0.0
  0
LINE
  8
0
 62
     0
 10
100.619
 20
33.044
 30
0.0
 11
99.8195
 21
33.044
 31
0.0
  0
LINE
  8
0
 62
     0
 10
99.8195
 20
33.044
 30
0.0
 11
99.8195
 21
38.8454
 31
0.0
  0
LINE
  8
0
 62
     0
 10
99.8195
 20
38.8454
 30
0.0
 11
100.619
 21
38.8454
 31
0.0
  0
LINE
  8
0
 62
     0
 10
100.619
 20
38.8454
 30
0.0
 11
100.619
 21
41.9446
 31
0.0
  0
LINE
  8
0
 62
     0
 10
100.619
 20
41.9446
 30
0.0
 11
99.8195
 21
41.9446
 31
0.0
  0
LINE
  8
0
 62
     0
 10
99.8195
 20
41.9446
 30
0.0
 11
99.8195
 21
42.9436
 31
0.0
  0
LINE
  8
0
 62
     0
 10
99.8195
 20
42.9436
 30
0.0
 11
85.8203
 21
42.9436
 31
0.0
  0
LINE
  8
0
 62
     0
 10
104.869
 20
42.9436
 30
0.0
 11
104.869
 21
41.9446
 31
0.0
  0
LINE
  8
0
 62
     0
 10
104.869
 20
41.9446
 30
0.0
 11
104.069
 21
41.9446
 31
0.0
  0
LINE
  8
0
 62
     0
 10
104.069
 20
41.9446
 30
0.0
 11
104.069
 21
38.8454
 31
0.0
  0
LINE
  8
0
 62
     0
 10
104.069
 20
38.8454
 30
0.0
 11
104.869
 21
38.8454
 31
0.0
  0
LINE
  8
0
 62
     0
 10
104.869
 20
38.8454
 30
0.0
 11
104.869
 21
33.044
 31
0.0
  0
LINE
  8
0
 62
     0
 10
104.869
 20
33.044
 30
0.0
 11
104.069
 21
33.044
 31
0.0
  0
LINE
  8
0
 62
     0
 10
104.069
 20
33.044
 30
0.0
 11
104.069
 21
29.9448
 31
0.0
  0
LINE
  8
0
 62
     0
 10
104.069
 20
29.9448
 30
0.0
 11
104.869
 21
29.9448
 31
0.0
  0
LINE
  8
0
 62
     0
 10
104.869
 20
29.9448
 30
0.0
 11
104.869
 21
28.9443
 31
0.0
  0
LINE
  8
0
 62
     0
 10
104.869
 20
28.9443
 30
0.0
 11
118.868
 21
28.9443
 31
0.0
  0
LINE
  8
0
 62
     0
 10
118.868
 20
28.9443
 30
0.0
 11
118.868
 21
29.9448
 31
0.0
  0
LINE
  8
0
 62
     0
 10
118.868
 20
29.9448
 30
0.0
 11
119.669
 21
29.9448
 31
0.0
  0
LINE
  8
0
 62
     0
 10
119.669
 20
29.9448
 30
0.0
 11
119.669
 21
33.044
 31
0.0
  0
LINE
  8
0
 62
     0
 10
119.669
 20
33.044
 30
0.0
 11
118.868
 21
33.044
 31
0.0
  0
LINE
  8
0
 62
     0
 10
118.868
 20
33.044
 30
0.0
 11
118.868
 21
38.8454
 31
0.0
  0
LINE
  8
0
 62
     0
 10
118.868
 20
38.8454
 30
0.0
 11
119.669
 21
38.8454
 31
0.0
  0
LINE
  8
0
 62
     0
 10
119.669
 20
38.8454
 30
0.0
 11
119.669
 21
41.9446
 31
0.0
  0
LINE
  8
0
 62
     0
 10
119.669
 20
41.9446
 30
0.0
 11
118.868
 21
41.9446
 31
0.0
  0
LINE
  8
0
 62
     0
 10
118.868
 20
41.9446
 30
0.0
 11
118.868
 21
42.9436
 31
0.0
  0
LINE
  8
0
 62
     0
 10
118.868
 20
42.9436
 30
0.0
 11
104.869
 21
42.9436
 31
0.0
  0
LINE
  8
0
 62
     0
 10
123.919
 20
42.9436
 30
0.0
 11
123.919
 21
41.9446
 31
0.0
  0
LINE
  8
0
 62
     0
 10
123.919
 20
41.9446
 30
0.0
 11
123.118
 21
41.9446
 31
0.0
  0
LINE
  8
0
 62
     0
 10
123.118
 20
41.9446
 30
0.0
 11
123.118
 21
38.8454
 31
0.0
  0
LINE
  8
0
 62
     0
 10
123.118
 20
38.8454
 30
0.0
 11
123.919
 21
38.8454
 31
0.0
  0
LINE
  8
0
 62
     0
 10
123.919
 20
38.8454
 30
0.0
 11
123.919
 21
33.044
 31
0.0
  0
LINE
  8
0
 62
     0
 10
123.919
 20
33.044
 30
0.0
 11
123.118
 21
33.044
 31
0.0
  0
LINE
  8
0
 62
     0
 10
123.118
 20
33.044
 30
0.0
 11
123.118
 21
29.9448
 31
0.0
  0
LINE
  8
0
 62
     0
 10
123.118
 20
29.9448
 30
0.0
 11
123.919
 21
29.9448
 31
0.0
  0
LINE
  8
0
 62
     0
 10
123.919
 20
29.9448
 30
0.0
 11
123.919
 21
28.9443
 31
0.0
  0
LINE
  8
0
 62
     0
 10
123.919
 20
28.9443
 30
0.0
 11
137.92
 21
28.9443
 31
0.0
  0
LINE
  8
0
 62
     0
 10
137.92
 20
28.9443
 30
0.0
 11
137.92
 21
29.9448
 31
0.0
  0
LINE
  8
0
 62
     0
 10
137.92
 20
29.9448
 30
0.0
 11
138.719
 21
29.9448
 31
0.0
  0
LINE
  8
0
 62
     0
 10
138.719
 20
29.9448
 30
0.0
 11
138.719
 21
33.044
 31
0.0
  0
LINE
  8
0
 62
     0
 10
138.719
 20
33.044
 30
0.0
 11
137.92
 21
33.044
 31
0.0
  0
LINE
  8
0
 62
     0
 10
137.92
 20
33.044
 30
0.0
 11
137.92
 21
38.8454
 31
0.0
  0
LINE
  8
0
 62
     0
 10
137.92
 20
38.8454
 30
0.0
 11
138.719
 21
38.8454
 31
0.0
  0
LINE
  8
0
 62
     0
 10
138.719
 20
38.8454
 30
0.0
 11
138.719
 21
41.9446
 31
0.0
  0
LINE
  8
0
 62
     0
 10
138.719
 20
41.9446
 30
0.0
 11
137.92
 21
41.9446
 31
0.0
  0
LINE
  8
0
 62
     0
 10
137.92
 20
41.9446
 30
0.0
 11
137.92
 21
42.9436
 31
0.0
  0
LINE
  8
0
 62
     0
 10
137.92
 20
42.9436
 30
0.0
 11
123.919
 21
42.9436
 31
0.0
  0
LINE
  8
0
 62
     0
 10
142.97
 20
42.9436
 30
0.0
 11
142.97
 21
41.9446
 31
0.0
  0
LINE
  8
0
 62
     0
 10
142.97
 20
41.9446
 30
0.0
 11
142.169
 21
41.9446
 31
0.0
  0
LINE
  8
0
 62
     0
 10
142.169
 20
41.9446
 30
0.0
 11
142.169
 21
38.8454
 31
0.0
  0
LINE
  8
0
 62
     0
 10
142.169
 20
38.8454
 30
0.0
 11
142.97
 21
38.8454
 31
0.0
  0
LINE
  8
0
 62
     0
 10
142.97
 20
38.8454
 30
0.0
 11
142.97
 21
33.044
 31
0.0
  0
LINE
  8
0
 62
     0
 10
142.97
 20
33.044
 30
0.0
 11
142.169
 21
33.044
 31
0.0
  0
LINE
  8
0
 62
     0
 10
142.169
 20
33.044
 30
0.0
 11
142.169
 21
29.9448
 31
0.0
  0
LINE
  8
0
 62
     0
 10
142.169
 20
29.9448
 30
0.0
 11
142.97
 21
29.9448
 31
0.0
  0
LINE
  8
0
 62
     0
 10
142.97
 20
29.9448
 30
0.0
 11
142.97
 21
28.9443
 31
0.0
  0
LINE
  8
0
 62
     0
 10
142.97
 20
28.9443
 30
0.0
 11
156.97
 21
28.9443
 31
0.0
  0
LINE
  8
0
 62
     0
 10
156.97
 20
28.9443
 30
0.0
 11
156.97
 21
29.9448
 31
0.0
  0
LINE
  8
0
 62
     0
 10
156.97
 20
29.9448
 30
0.0
 11
157.769
 21
29.9448
 31
0.0
  0
LINE
  8
0
 62
     0
 10
157.769
 20
29.9448
 30
0.0
 11
157.769
 21
33.044
 31
0.0
  0
LINE
  8
0
 62
     0
 10
157.769
 20
33.044
 30
0.0
 11
156.97
 21
33.044
 31
0.0
  0
LINE
  8
0
 62
     0
 10
156.97
 20
33.044
 30
0.0
 11
156.97
 21
38.8454
 31
0.0
  0
LINE
  8
0
 62
     0
 10
156.97
 20
38.8454
 30
0.0
 11
157.769
 21
38.8454
 31
0.0
  0
LINE
  8
0
 62
     0
 10
157.769
 20
38.8454
 30
0.0
 11
157.769
 21
41.9446
 31
0.0
  0
LINE
  8
0
 62
     0
 10
157.769
 20
41.9446
 30
0.0
 11
156.97
 21
41.9446
 31
0.0
  0
LINE
  8
0
 62
     0
 10
156.97
 20
41.9446
 30
0.0
 11
156.97
 21
42.9436
 31
0.0
  0
LINE
  8
0
 62
     0
 10
156.97
 20
42.9436
 30
0.0
 11
142.97
 21
42.9436
 31
0.0
  0
LINE
  8
0
 62
     0
 10
162.02
 20
42.9436
 30
0.0
 11
162.02
 21
41.9446
 31
0.0
  0
LINE
  8
0
 62
     0
 10
162.02
 20
41.9446
 30
0.0
 11
161.219
 21
41.9446
 31
0.0
  0
LINE
  8
0
 62
     0
 10
161.219
 20
41.9446
 30
0.0
 11
161.219
 21
38.8454
 31
0.0
  0
LINE
  8
0
 62
     0
 10
161.219
 20
38.8454
 30
0.0
 11
162.02
 21
38.8454
 31
0.0
  0
LINE
  8
0
 62
     0
 10
162.02
 20
38.8454
 30
0.0
 11
162.02
 21
33.044
 31
0.0
  0
LINE
  8
0
 62
     0
 10
162.02
 20
33.044
 30
0.0
 11
161.219
 21
33.044
 31
0.0
  0
LINE
  8
0
 62
     0
 10
161.219
 20
33.044
 30
0.0
 11
161.219
 21
29.9448
 31
0.0
  0
LINE
  8
0
 62
     0
 10
161.219
 20
29.9448
 30
0.0
 11
162.02
 21
29.9448
 31
0.0
  0
LINE
  8
0
 62
     0
 10
162.02
 20
29.9448
 30
0.0
 11
162.02
 21
28.9443
 31
0.0
  0
LINE
  8
0
 62
     0
 10
162.02
 20
28.9443
 30
0.0
 11
176.02
 21
28.9443
 31
0.0
  0
LINE
  8
0
 62
     0
 10
176.02
 20
28.9443
 30
0.0
 11
176.02
 21
29.9448
 31
0.0
  0
LINE
  8
0
 62
     0
 10
176.02
 20
29.9448
 30
0.0
 11
176.819
 21
29.9448
 31
0.0
  0
LINE
  8
0
 62
     0
 10
176.819
 20
29.9448
 30
0.0
 11
176.819
 21
33.044
 31
0.0
  0
LINE
  8
0
 62
     0
 10
176.819
 20
33.044
 30
0.0
 11
176.02
 21
33.044
 31
0.0
  0
LINE
  8
0
 62
     0
 10
176.02
 20
33.044
 30
0.0
 11
176.02
 21
38.8454
 31
0.0
  0
LINE
  8
0
 62
     0
 10
176.02
 20
38.8454
 30
0.0
 11
176.819
 21
38.8454
 31
0.0
  0
LINE
  8
0
 62
     0
 10
176.819
 20
38.8454
 30
0.0
 11
176.819
 21
41.9446
 31
0.0
  0
LINE
  8
0
 62
     0
 10
176.819
 20
41.9446
 30
0.0
 11
176.02
 21
41.9446
 31
0.0
  0
LINE
  8
0
 62
     0
 10
176.02
 20
41.9446
 30
0.0
 11
176.02
 21
42.9436
 31
0.0
  0
LINE
  8
0
 62
     0
 10
176.02
 20
42.9436
 30
0.0
 11
162.02
 21
42.9436
 31
0.0
  0
LINE
  8
0
 62
     0
 10
181.07
 20
42.9436
 30
0.0
 11
181.07
 21
41.9446
 31
0.0
  0
LINE
  8
0
 62
     0
 10
181.07
 20
41.9446
 30
0.0
 11
180.269
 21
41.9446
 31
0.0
  0
LINE
  8
0
 62
     0
 10
180.269
 20
41.9446
 30
0.0
 11
180.269
 21
38.8454
 31
0.0
  0
LINE
  8
0
 62
     0
 10
180.269
 20
38.8454
 30
0.0
 11
181.07
 21
38.8454
 31
0.0
  0
LINE
  8
0
 62
     0
 10
181.07
 20
38.8454
 30
0.0
 11
181.07
 21
33.044
 31
0.0
  0
LINE
  8
0
 62
     0
 10
181.07
 20
33.044
 30
0.0
 11
180.269
 21
33.044
 31
0.0
  0
LINE
  8
0
 62
     0
 10
180.269
 20
33.044
 30
0.0
 11
180.269
 21
29.9448
 31
0.0
  0
LINE
  8
0
 62
     0
 10
180.269
 20
29.9448
 30
0.0
 11
181.07
 21
29.9448
 31
0.0
  0
LINE
  8
0
 62
     0
 10
181.07
 20
29.9448
 30
0.0
 11
181.07
 21
28.9443
 31
0.0
  0
LINE
  8
0
 62
     0
 10
181.07
 20
28.9443
 30
0.0
 11
195.07
 21
28.9443
 31
0.0
  0
LINE
  8
0
 62
     0
 10
195.07
 20
28.9443
 30
0.0
 11
195.07
 21
29.9448
 31
0.0
  0
LINE
  8
0
 62
     0
 10
195.07
 20
29.9448
 30
0.0
 11
195.869
 21
29.9448
 31
0.0
  0
LINE
  8
0
 62
     0
 10
195.869
 20
29.9448
 30
0.0
 11
195.869
 21
33.044
 31
0.0
  0
LINE
  8
0
 62
     0
 10
195.869
 20
33.044
 30
0.0
 11
195.07
 21
33.044
 31
0.0
  0
LINE
  8
0
 62
     0
 10
195.07
 20
33.044
 30
0.0
 11
195.07
 21
38.8454
 31
0.0
  0
LINE
  8
0
 62
     0
 10
195.07
 20
38.8454
 30
0.0
 11
195.869
 21
38.8454
 31
0.0
  0
LINE
  8
0
 62
     0
 10
195.869
 20
38.8454
 30
0.0
 11
195.869
 21
41.9446
 31
0.0
  0
LINE
  8
0
 62
     0
 10
195.869
 20
41.9446
 30
0.0
 11
195.07
 21
41.9446
 31
0.0
  0
LINE
  8
0
 62
     0
 10
195.07
 20
41.9446
 30
0.0
 11
195.07
 21
42.9436
 31
0.0
  0
LINE
  8
0
 62
     0
 10
195.07
 20
42.9436
 30
0.0
 11
181.07
 21
42.9436
 31
0.0
  0
LINE
  8
0
 62
     0
 10
200.12
 20
42.9436
 30
0.0
 11
200.12
 21
41.9446
 31
0.0
  0
LINE
  8
0
 62
     0
 10
200.12
 20
41.9446
 30
0.0
 11
199.319
 21
41.9446
 31
0.0
  0
LINE
  8
0
 62
     0
 10
199.319
 20
41.9446
 30
0.0
 11
199.319
 21
38.8454
 31
0.0
  0
LINE
  8
0
 62
     0
 10
199.319
 20
38.8454
 30
0.0
 11
200.12
 21
38.8454
 31
0.0
  0
LINE
  8
0
 62
     0
 10
200.12
 20
38.8454
 30
0.0
 11
200.12
 21
33.044
 31
0.0
  0
LINE
  8
0
 62
     0
 10
200.12
 20
33.044
 30
0.0
 11
199.319
 21
33.044
 31
0.0
  0
LINE
  8
0
 62
     0
 10
199.319
 20
33.044
 30
0.0
 11
199.319
 21
29.9448
 31
0.0
  0
LINE
  8
0
 62
     0
 10
199.319
 20
29.9448
 30
0.0
 11
200.12
 21
29.9448
 31
0.0
  0
LINE
  8
0
 62
     0
 10
200.12
 20
29.9448
 30
0.0
 11
200.12
 21
28.9443
 31
0.0
  0
LINE
  8
0
 62
     0
 10
200.12
 20
28.9443
 30
0.0
 11
214.12
 21
28.9443
 31
0.0
  0
LINE
  8
0
 62
     0
 10
214.12
 20
28.9443
 30
0.0
 11
214.12
 21
29.9448
 31
0.0
  0
LINE
  8
0
 62
     0
 10
214.12
 20
29.9448
 30
0.0
 11
214.919
 21
29.9448
 31
0.0
  0
LINE
  8
0
 62
     0
 10
214.919
 20
29.9448
 30
0.0
 11
214.919
 21
33.044
 31
0.0
  0
LINE
  8
0
 62
     0
 10
214.919
 20
33.044
 30
0.0
 11
214.12
 21
33.044
 31
0.0
  0
LINE
  8
0
 62
     0
 10
214.12
 20
33.044
 30
0.0
 11
214.12
 21
38.8454
 31
0.0
  0
LINE
  8
0
 62
     0
 10
214.12
 20
38.8454
 30
0.0
 11
214.919
 21
38.8454
 31
0.0
  0
LINE
  8
0
 62
     0
 10
214.919
 20
38.8454
 30
0.0
 11
214.919
 21
41.9446
 31
0.0
  0
LINE
  8
0
 62
     0
 10
214.919
 20
41.9446
 30
0.0
 11
214.12
 21
41.9446
 31
0.0
  0
LINE
  8
0
 62
     0
 10
214.12
 20
41.9446
 30
0.0
 11
214.12
 21
42.9436
 31
0.0
  0
LINE
  8
0
 62
     0
 10
214.12
 20
42.9436
 30
0.0
 11
200.12
 21
42.9436
 31
0.0
  0
LINE
  8
0
 62
     0
 10
219.17
 20
42.9436
 30
0.0
 11
219.17
 21
41.9446
 31
0.0
  0
LINE
  8
0
 62
     0
 10
219.17
 20
41.9446
 30
0.0
 11
218.369
 21
41.9446
 31
0.0
  0
LINE
  8
0
 62
     0
 10
218.369
 20
41.9446
 30
0.0
 11
218.369
 21
38.8454
 31
0.0
  0
LINE
  8
0
 62
     0
 10
218.369
 20
38.8454
 30
0.0
 11
219.17
 21
38.8454
 31
0.0
  0
LINE
  8
0
 62
     0
 10
219.17
 20
38.8454
 30
0.0
 11
219.17
 21
33.044
 31
0.0
  0
LINE
  8
0
 62
     0
 10
219.17
 20
33.044
 30
0.0
 11
218.369
 21
33.044
 31
0.0
  0
LINE
  8
0
 62
     0
 10
218.369
 20
33.044
 30
0.0
 11
218.369
 21
29.9448
 31
0.0
  0
LINE
  8
0
 62
     0
 10
218.369
 20
29.9448
 30
0.0
 11
219.17
 21
29.9448
 31
0.0
  0
LINE
  8
0
 62
     0
 10
219.17
 20
29.9448
 30
0.0
 11
219.17
 21
28.9443
 31
0.0
  0
LINE
  8
0
 62
     0
 10
219.17
 20
28.9443
 30
0.0
 11
233.17
 21
28.9443
 31
0.0
  0
LINE
  8
0
 62
     0
 10
233.17
 20
28.9443
 30
0.0
 11
233.17
 21
29.9448
 31
0.0
  0
LINE
  8
0
 62
     0
 10
233.17
 20
29.9448
 30
0.0
 11
233.969
 21
29.9448
 31
0.0
  0
LINE
  8
0
 62
     0
 10
233.969
 20
29.9448
 30
0.0
 11
233.969
 21
33.044
 31
0.0
  0
LINE
  8
0
 62
     0
 10
233.969
 20
33.044
 30
0.0
 11
233.17
 21
33.044
 31
0.0
  0
LINE
  8
0
 62
     0
 10
233.17
 20
33.044
 30
0.0
 11
233.17
 21
38.8454
 31
0.0
  0
LINE
  8
0
 62
     0
 10
233.17
 20
38.8454
 30
0.0
 11
233.969
 21
38.8454
 31
0.0
  0
LINE
  8
0
 62
     0
 10
233.969
 20
38.8454
 30
0.0
 11
233.969
 21
41.9446
 31
0.0
  0
LINE
  8
0
 62
     0
 10
233.969
 20
41.9446
 30
0.0
 11
233.17
 21
41.9446
 31
0.0
  0
LINE
  8
0
 62
     0
 10
233.17
 20
41.9446
 30
0.0
 11
233.17
 21
42.9436
 31
0.0
  0
LINE
  8
0
 62
     0
 10
233.17
 20
42.9436
 30
0.0
 11
219.17
 21
42.9436
 31
0.0
  0
LINE
  8
0
 62
     0
 10
276.32
 20
42.9436
 30
0.0
 11
276.32
 21
41.9446
 31
0.0
  0
LINE
  8
0
 62
     0
 10
276.32
 20
41.9446
 30
0.0
 11
275.519
 21
41.9446
 31
0.0
  0
LINE
  8
0
 62
     0
 10
275.519
 20
41.9446
 30
0.0
 11
275.519
 21
38.8454
 31
0.0
  0
LINE
  8
0
 62
     0
 10
275.519
 20
38.8454
 30
0.0
 11
276.32
 21
38.8454
 31
0.0
  0
LINE
  8
0
 62
     0
 10
276.32
 20
38.8454
 30
0.0
 11
276.32
 21
33.044
 31
0.0
  0
LINE
  8
0
 62
     0
 10
276.32
 20
33.044
 30
0.0
 11
275.519
 21
33.044
 31
0.0
  0
LINE
  8
0
 62
     0
 10
275.519
 20
33.044
 30
0.0
 11
275.519
 21
29.9448
 31
0.0
  0
LINE
  8
0
 62
     0
 10
275.519
 20
29.9448
 30
0.0
 11
276.32
 21
29.9448
 31
0.0
  0
LINE
  8
0
 62
     0
 10
276.32
 20
29.9448
 30
0.0
 11
276.32
 21
28.9443
 31
0.0
  0
LINE
  8
0
 62
     0
 10
276.32
 20
28.9443
 30
0.0
 11
290.32
 21
28.9443
 31
0.0
  0
LINE
  8
0
 62
     0
 10
290.32
 20
28.9443
 30
0.0
 11
290.32
 21
29.9448
 31
0.0
  0
LINE
  8
0
 62
     0
 10
290.32
 20
29.9448
 30
0.0
 11
291.119
 21
29.9448
 31
0.0
  0
LINE
  8
0
 62
     0
 10
291.119
 20
29.9448
 30
0.0
 11
291.119
 21
33.044
 31
0.0
  0
LINE
  8
0
 62
     0
 10
291.119
 20
33.044
 30
0.0
 11
290.32
 21
33.044
 31
0.0
  0
LINE
  8
0
 62
     0
 10
290.32
 20
33.044
 30
0.0
 11
290.32
 21
38.8454
 31
0.0
  0
LINE
  8
0
 62
     0
 10
290.32
 20
38.8454
 30
0.0
 11
291.119
 21
38.8454
 31
0.0
  0
LINE
  8
0
 62
     0
 10
291.119
 20
38.8454
 30
0.0
 11
291.119
 21
41.9446
 31
0.0
  0
LINE
  8
0
 62
     0
 10
291.119
 20
41.9446
 30
0.0
 11
290.32
 21
41.9446
 31
0.0
  0
LINE
  8
0
 62
     0
 10
290.32
 20
41.9446
 30
0.0
 11
290.32
 21
42.9436
 31
0.0
  0
LINE
  8
0
 62
     0
 10
290.32
 20
42.9436
 30
0.0
 11
276.32
 21
42.9436
 31
0.0
  0
LINE
  8
0
 62
     0
 10
269.175
 20
61.9936
 30
0.0
 11
269.175
 21
60.9946
 31
0.0
  0
LINE
  8
0
 62
     0
 10
269.175
 20
60.9946
 30
0.0
 11
268.376
 21
60.9946
 31
0.0
  0
LINE
  8
0
 62
     0
 10
268.376
 20
60.9946
 30
0.0
 11
268.376
 21
57.894
 31
0.0
  0
LINE
  8
0
 62
     0
 10
268.376
 20
57.894
 30
0.0
 11
269.175
 21
57.894
 31
0.0
  0
LINE
  8
0
 62
     0
 10
269.175
 20
57.894
 30
0.0
 11
269.175
 21
57.2946
 31
0.0
  0
LINE
  8
0
 62
     0
 10
269.175
 20
57.2946
 30
0.0
 11
267.651
 21
57.2946
 31
0.0
  0
LINE
  8
0
 62
     0
 10
267.651
 20
57.2946
 30
0.0
 11
267.651
 21
60.5247
 31
0.0
  0
LINE
  8
0
 62
     0
 10
267.651
 20
60.5247
 30
0.0
 11
265.926
 21
60.5247
 31
0.0
  0
LINE
  8
0
 62
     0
 10
265.926
 20
60.5247
 30
0.0
 11
265.926
 21
61.444
 31
0.0
  0
LINE
  8
0
 62
     0
 10
265.926
 20
61.444
 30
0.0
 11
262.625
 21
61.444
 31
0.0
  0
LINE
  8
0
 62
     0
 10
262.625
 20
61.444
 30
0.0
 11
262.625
 21
60.5247
 31
0.0
  0
LINE
  8
0
 62
     0
 10
262.625
 20
60.5247
 30
0.0
 11
260.9
 21
60.5247
 31
0.0
  0
LINE
  8
0
 62
     0
 10
260.9
 20
60.5247
 30
0.0
 11
260.9
 21
57.2946
 31
0.0
  0
LINE
  8
0
 62
     0
 10
260.9
 20
57.2946
 30
0.0
 11
260.076
 21
57.2946
 31
0.0
  0
LINE
  8
0
 62
     0
 10
260.076
 20
57.2946
 30
0.0
 11
260.076
 21
54.4946
 31
0.0
  0
LINE
  8
0
 62
     0
 10
260.076
 20
54.4946
 30
0.0
 11
260.9
 21
54.4946
 31
0.0
  0
LINE
  8
0
 62
     0
 10
260.9
 20
54.4946
 30
0.0
 11
260.9
 21
48.2244
 31
0.0
  0
LINE
  8
0
 62
     0
 10
260.9
 20
48.2244
 30
0.0
 11
262.625
 21
48.2244
 31
0.0
  0
LINE
  8
0
 62
     0
 10
262.625
 20
48.2244
 30
0.0
 11
262.625
 21
47.2447
 31
0.0
  0
LINE
  8
0
 62
     0
 10
262.625
 20
47.2447
 30
0.0
 11
265.926
 21
47.2447
 31
0.0
  0
LINE
  8
0
 62
     0
 10
265.926
 20
47.2447
 30
0.0
 11
265.926
 21
48.2244
 31
0.0
  0
LINE
  8
0
 62
     0
 10
265.926
 20
48.2244
 30
0.0
 11
267.651
 21
48.2244
 31
0.0
  0
LINE
  8
0
 62
     0
 10
267.651
 20
48.2244
 30
0.0
 11
267.651
 21
52.6948
 31
0.0
  0
LINE
  8
0
 62
     0
 10
267.651
 20
52.6948
 30
0.0
 11
269.175
 21
52.6948
 31
0.0
  0
LINE
  8
0
 62
     0
 10
269.175
 20
52.6948
 30
0.0
 11
269.175
 21
52.094
 31
0.0
  0
LINE
  8
0
 62
     0
 10
269.175
 20
52.094
 30
0.0
 11
268.376
 21
52.094
 31
0.0
  0
LINE
  8
0
 62
     0
 10
268.376
 20
52.094
 30
0.0
 11
268.376
 21
48.9948
 31
0.0
  0
LINE
  8
0
 62
     0
 10
268.376
 20
48.9948
 30
0.0
 11
269.175
 21
48.9948
 31
0.0
  0
LINE
  8
0
 62
     0
 10
269.175
 20
48.9948
 30
0.0
 11
269.175
 21
47.9944
 31
0.0
  0
LINE
  8
0
 62
     0
 10
269.175
 20
47.9944
 30
0.0
 11
283.176
 21
47.9944
 31
0.0
  0
LINE
  8
0
 62
     0
 10
283.176
 20
47.9944
 30
0.0
 11
283.176
 21
48.9948
 31
0.0
  0
LINE
  8
0
 62
     0
 10
283.176
 20
48.9948
 30
0.0
 11
283.975
 21
48.9948
 31
0.0
  0
LINE
  8
0
 62
     0
 10
283.975
 20
48.9948
 30
0.0
 11
283.975
 21
52.094
 31
0.0
  0
LINE
  8
0
 62
     0
 10
283.975
 20
52.094
 30
0.0
 11
283.176
 21
52.094
 31
0.0
  0
LINE
  8
0
 62
     0
 10
283.176
 20
52.094
 30
0.0
 11
283.176
 21
52.6948
 31
0.0
  0
LINE
  8
0
 62
     0
 10
283.176
 20
52.6948
 30
0.0
 11
284.7
 21
52.6948
 31
0.0
  0
LINE
  8
0
 62
     0
 10
284.7
 20
52.6948
 30
0.0
 11
284.7
 21
48.2244
 31
0.0
  0
LINE
  8
0
 62
     0
 10
284.7
 20
48.2244
 30
0.0
 11
286.425
 21
48.2244
 31
0.0
  0
LINE
  8
0
 62
     0
 10
286.425
 20
48.2244
 30
0.0
 11
286.425
 21
47.2447
 31
0.0
  0
LINE
  8
0
 62
     0
 10
286.425
 20
47.2447
 30
0.0
 11
289.726
 21
47.2447
 31
0.0
  0
LINE
  8
0
 62
     0
 10
289.726
 20
47.2447
 30
0.0
 11
289.726
 21
48.2244
 31
0.0
  0
LINE
  8
0
 62
     0
 10
289.726
 20
48.2244
 30
0.0
 11
291.451
 21
48.2244
 31
0.0
  0
LINE
  8
0
 62
     0
 10
291.451
 20
48.2244
 30
0.0
 11
291.451
 21
54.4946
 31
0.0
  0
LINE
  8
0
 62
     0
 10
291.451
 20
54.4946
 30
0.0
 11
292.275
 21
54.4946
 31
0.0
  0
LINE
  8
0
 62
     0
 10
292.275
 20
54.4946
 30
0.0
 11
292.275
 21
57.2946
 31
0.0
  0
LINE
  8
0
 62
     0
 10
292.275
 20
57.2946
 30
0.0
 11
291.451
 21
57.2946
 31
0.0
  0
LINE
  8
0
 62
     0
 10
291.451
 20
57.2946
 30
0.0
 11
291.451
 21
60.5247
 31
0.0
  0
LINE
  8
0
 62
     0
 10
291.451
 20
60.5247
 30
0.0
 11
289.726
 21
60.5247
 31
0.0
  0
LINE
  8
0
 62
     0
 10
289.726
 20
60.5247
 30
0.0
 11
289.726
 21
61.444
 31
0.0
  0
LINE
  8
0
 62
     0
 10
289.726
 20
61.444
 30
0.0
 11
286.425
 21
61.444
 31
0.0
  0
LINE
  8
0
 62
     0
 10
286.425
 20
61.444
 30
0.0
 11
286.425
 21
60.5247
 31
0.0
  0
LINE
  8
0
 62
     0
 10
286.425
 20
60.5247
 30
0.0
 11
284.7
 21
60.5247
 31
0.0
  0
LINE
  8
0
 62
     0
 10
284.7
 20
60.5247
 30
0.0
 11
284.7
 21
57.2946
 31
0.0
  0
LINE
  8
0
 62
     0
 10
284.7
 20
57.2946
 30
0.0
 11
283.176
 21
57.2946
 31
0.0
  0
LINE
  8
0
 62
     0
 10
283.176
 20
57.2946
 30
0.0
 11
283.176
 21
57.894
 31
0.0
  0
LINE
  8
0
 62
     0
 10
283.176
 20
57.894
 30
0.0
 11
283.975
 21
57.894
 31
0.0
  0
LINE
  8
0
 62
     0
 10
283.975
 20
57.894
 30
0.0
 11
283.975
 21
60.9946
 31
0.0
  0
LINE
  8
0
 62
     0
 10
283.975
 20
60.9946
 30
0.0
 11
283.176
 21
60.9946
 31
0.0
  0
LINE
  8
0
 62
     0
 10
283.176
 20
60.9946
 30
0.0
 11
283.176
 21
61.9936
 31
0.0
  0
LINE
  8
0
 62
     0
 10
283.176
 20
61.9936
 30
0.0
 11
269.175
 21
61.9936
 31
0.0
  0
LINE
  8
0
 62
     0
 10
26.2874
 20
61.9936
 30
0.0
 11
26.2874
 21
60.9946
 31
0.0
  0
LINE
  8
0
 62
     0
 10
26.2874
 20
60.9946
 30
0.0
 11
25.4868
 21
60.9946
 31
0.0
  0
LINE
  8
0
 62
     0
 10
25.4868
 20
60.9946
 30
0.0
 11
25.4868
 21
57.894
 31
0.0
  0
LINE
  8
0
 62
     0
 10
25.4868
 20
57.894
 30
0.0
 11
26.2874
 21
57.894
 31
0.0
  0
LINE
  8
0
 62
     0
 10
26.2874
 20
57.894
 30
0.0
 11
26.2874
 21
52.094
 31
0.0
  0
LINE
  8
0
 62
     0
 10
26.2874
 20
52.094
 30
0.0
 11
25.4868
 21
52.094
 31
0.0
  0
LINE
  8
0
 62
     0
 10
25.4868
 20
52.094
 30
0.0
 11
25.4868
 21
48.9948
 31
0.0
  0
LINE
  8
0
 62
     0
 10
25.4868
 20
48.9948
 30
0.0
 11
26.2874
 21
48.9948
 31
0.0
  0
LINE
  8
0
 62
     0
 10
26.2874
 20
48.9948
 30
0.0
 11
26.2874
 21
47.9944
 31
0.0
  0
LINE
  8
0
 62
     0
 10
26.2874
 20
47.9944
 30
0.0
 11
40.2869
 21
47.9944
 31
0.0
  0
LINE
  8
0
 62
     0
 10
40.2869
 20
47.9944
 30
0.0
 11
40.2869
 21
48.9948
 31
0.0
  0
LINE
  8
0
 62
     0
 10
40.2869
 20
48.9948
 30
0.0
 11
41.0877
 21
48.9948
 31
0.0
  0
LINE
  8
0
 62
     0
 10
41.0877
 20
48.9948
 30
0.0
 11
41.0877
 21
52.094
 31
0.0
  0
LINE
  8
0
 62
     0
 10
41.0877
 20
52.094
 30
0.0
 11
40.2869
 21
52.094
 31
0.0
  0
LINE
  8
0
 62
     0
 10
40.2869
 20
52.094
 30
0.0
 11
40.2869
 21
57.894
 31
0.0
  0
LINE
  8
0
 62
     0
 10
40.2869
 20
57.894
 30
0.0
 11
41.0877
 21
57.894
 31
0.0
  0
LINE
  8
0
 62
     0
 10
41.0877
 20
57.894
 30
0.0
 11
41.0877
 21
60.9946
 31
0.0
  0
LINE
  8
0
 62
     0
 10
41.0877
 20
60.9946
 30
0.0
 11
40.2869
 21
60.9946
 31
0.0
  0
LINE
  8
0
 62
     0
 10
40.2869
 20
60.9946
 30
0.0
 11
40.2869
 21
61.9936
 31
0.0
  0
LINE
  8
0
 62
     0
 10
40.2869
 20
61.9936
 30
0.0
 11
26.2874
 21
61.9936
 31
0.0
  0
LINE
  8
0
 62
     0
 10
47.7203
 20
61.9936
 30
0.0
 11
47.7203
 21
60.9946
 31
0.0
  0
LINE
  8
0
 62
     0
 10
47.7203
 20
60.9946
 30
0.0
 11
46.9194
 21
60.9946
 31
0.0
  0
LINE
  8
0
 62
     0
 10
46.9194
 20
60.9946
 30
0.0
 11
46.9194
 21
57.894
 31
0.0
  0
LINE
  8
0
 62
     0
 10
46.9194
 20
57.894
 30
0.0
 11
47.7203
 21
57.894
 31
0.0
  0
LINE
  8
0
 62
     0
 10
47.7203
 20
57.894
 30
0.0
 11
47.7203
 21
52.094
 31
0.0
  0
LINE
  8
0
 62
     0
 10
47.7203
 20
52.094
 30
0.0
 11
46.9194
 21
52.094
 31
0.0
  0
LINE
  8
0
 62
     0
 10
46.9194
 20
52.094
 30
0.0
 11
46.9194
 21
48.9948
 31
0.0
  0
LINE
  8
0
 62
     0
 10
46.9194
 20
48.9948
 30
0.0
 11
47.7203
 21
48.9948
 31
0.0
  0
LINE
  8
0
 62
     0
 10
47.7203
 20
48.9948
 30
0.0
 11
47.7203
 21
47.9944
 31
0.0
  0
LINE
  8
0
 62
     0
 10
47.7203
 20
47.9944
 30
0.0
 11
61.7195
 21
47.9944
 31
0.0
  0
LINE
  8
0
 62
     0
 10
61.7195
 20
47.9944
 30
0.0
 11
61.7195
 21
48.9948
 31
0.0
  0
LINE
  8
0
 62
     0
 10
61.7195
 20
48.9948
 30
0.0
 11
62.5189
 21
48.9948
 31
0.0
  0
LINE
  8
0
 62
     0
 10
62.5189
 20
48.9948
 30
0.0
 11
62.5189
 21
52.094
 31
0.0
  0
LINE
  8
0
 62
     0
 10
62.5189
 20
52.094
 30
0.0
 11
61.7195
 21
52.094
 31
0.0
  0
LINE
  8
0
 62
     0
 10
61.7195
 20
52.094
 30
0.0
 11
61.7195
 21
57.894
 31
0.0
  0
LINE
  8
0
 62
     0
 10
61.7195
 20
57.894
 30
0.0
 11
62.5189
 21
57.894
 31
0.0
  0
LINE
  8
0
 62
     0
 10
62.5189
 20
57.894
 30
0.0
 11
62.5189
 21
60.9946
 31
0.0
  0
LINE
  8
0
 62
     0
 10
62.5189
 20
60.9946
 30
0.0
 11
61.7195
 21
60.9946
 31
0.0
  0
LINE
  8
0
 62
     0
 10
61.7195
 20
60.9946
 30
0.0
 11
61.7195
 21
61.9936
 31
0.0
  0
LINE
  8
0
 62
     0
 10
61.7195
 20
61.9936
 30
0.0
 11
47.7203
 21
61.9936
 31
0.0
  0
LINE
  8
0
 62
     0
 10
66.7703
 20
61.9936
 30
0.0
 11
66.7703
 21
60.9946
 31
0.0
  0
LINE
  8
0
 62
     0
 10
66.7703
 20
60.9946
 30
0.0
 11
65.9694
 21
60.9946
 31
0.0
  0
LINE
  8
0
 62
     0
 10
65.9694
 20
60.9946
 30
0.0
 11
65.9694
 21
57.894
 31
0.0
  0
LINE
  8
0
 62
     0
 10
65.9694
 20
57.894
 30
0.0
 11
66.7703
 21
57.894
 31
0.0
  0
LINE
  8
0
 62
     0
 10
66.7703
 20
57.894
 30
0.0
 11
66.7703
 21
52.094
 31
0.0
  0
LINE
  8
0
 62
     0
 10
66.7703
 20
52.094
 30
0.0
 11
65.9694
 21
52.094
 31
0.0
  0
LINE
  8
0
 62
     0
 10
65.9694
 20
52.094
 30
0.0
 11
65.9694
 21
48.9948
 31
0.0
  0
LINE
  8
0
 62
     0
 10
65.9694
 20
48.9948
 30
0.0
 11
66.7703
 21
48.9948
 31
0.0
  0
LINE
  8
0
 62
     0
 10
66.7703
 20
48.9948
 30
0.0
 11
66.7703
 21
47.9944
 31
0.0
  0
LINE
  8
0
 62
     0
 10
66.7703
 20
47.9944
 30
0.0
 11
80.7695
 21
47.9944
 31
0.0
  0
LINE
  8
0
 62
     0
 10
80.7695
 20
47.9944
 30
0.0
 11
80.7695
 21
48.9948
 31
0.0
  0
LINE
  8
0
 62
     0
 10
80.7695
 20
48.9948
 30
0.0
 11
81.5689
 21
48.9948
 31
0.0
  0
LINE
  8
0
 62
     0
 10
81.5689
 20
48.9948
 30
0.0
 11
81.5689
 21
52.094
 31
0.0
  0
LINE
  8
0
 62
     0
 10
81.5689
 20
52.094
 30
0.0
 11
80.7695
 21
52.094
 31
0.0
  0
LINE
  8
0
 62
     0
 10
80.7695
 20
52.094
 30
0.0
 11
80.7695
 21
57.894
 31
0.0
  0
LINE
  8
0
 62
     0
 10
80.7695
 20
57.894
 30
0.0
 11
81.5689
 21
57.894
 31
0.0
  0
LINE
  8
0
 62
     0
 10
81.5689
 20
57.894
 30
0.0
 11
81.5689
 21
60.9946
 31
0.0
  0
LINE
  8
0
 62
     0
 10
81.5689
 20
60.9946
 30
0.0
 11
80.7695
 21
60.9946
 31
0.0
  0
LINE
  8
0
 62
     0
 10
80.7695
 20
60.9946
 30
0.0
 11
80.7695
 21
61.9936
 31
0.0
  0
LINE
  8
0
 62
     0
 10
80.7695
 20
61.9936
 30
0.0
 11
66.7703
 21
61.9936
 31
0.0
  0
LINE
  8
0
 62
     0
 10
85.8203
 20
61.9936
 30
0.0
 11
85.8203
 21
60.9946
 31
0.0
  0
LINE
  8
0
 62
     0
 10
85.8203
 20
60.9946
 30
0.0
 11
85.0194
 21
60.9946
 31
0.0
  0
LINE
  8
0
 62
     0
 10
85.0194
 20
60.9946
 30
0.0
 11
85.0194
 21
57.894
 31
0.0
  0
LINE
  8
0
 62
     0
 10
85.0194
 20
57.894
 30
0.0
 11
85.8203
 21
57.894
 31
0.0
  0
LINE
  8
0
 62
     0
 10
85.8203
 20
57.894
 30
0.0
 11
85.8203
 21
52.094
 31
0.0
  0
LINE
  8
0
 62
     0
 10
85.8203
 20
52.094
 30
0.0
 11
85.0194
 21
52.094
 31
0.0
  0
LINE
  8
0
 62
     0
 10
85.0194
 20
52.094
 30
0.0
 11
85.0194
 21
48.9948
 31
0.0
  0
LINE
  8
0
 62
     0
 10
85.0194
 20
48.9948
 30
0.0
 11
85.8203
 21
48.9948
 31
0.0
  0
LINE
  8
0
 62
     0
 10
85.8203
 20
48.9948
 30
0.0
 11
85.8203
 21
47.9944
 31
0.0
  0
LINE
  8
0
 62
     0
 10
85.8203
 20
47.9944
 30
0.0
 11
99.8195
 21
47.9944
 31
0.0
  0
LINE
  8
0
 62
     0
 10
99.8195
 20
47.9944
 30
0.0
 11
99.8195
 21
48.9948
 31
0.0
  0
LINE
  8
0
 62
     0
 10
99.8195
 20
48.9948
 30
0.0
 11
100.619
 21
48.9948
 31
0.0
  0
LINE
  8
0
 62
     0
 10
100.619
 20
48.9948
 30
0.0
 11
100.619
 21
52.094
 31
0.0
  0
LINE
  8
0
 62
     0
 10
100.619
 20
52.094
 30
0.0
 11
99.8195
 21
52.094
 31
0.0
  0
LINE
  8
0
 62
     0
 10
99.8195
 20
52.094
 30
0.0
 11
99.8195
 21
57.894
 31
0.0
  0
LINE
  8
0
 62
     0
 10
99.8195
 20
57.894
 30
0.0
 11
100.619
 21
57.894
 31
0.0
  0
LINE
  8
0
 62
     0
 10
100.619
 20
57.894
 30
0.0
 11
100.619
 21
60.9946
 31
0.0
  0
LINE
  8
0
 62
     0
 10
100.619
 20
60.9946
 30
0.0
 11
99.8195
 21
60.9946
 31
0.0
  0
LINE
  8
0
 62
     0
 10
99.8195
 20
60.9946
 30
0.0
 11
99.8195
 21
61.9936
 31
0.0
  0
LINE
  8
0
 62
     0
 10
99.8195
 20
61.9936
 30
0.0
 11
85.8203
 21
61.9936
 31
0.0
  0
LINE
  8
0
 62
     0
 10
104.869
 20
61.9936
 30
0.0
 11
104.869
 21
60.9946
 31
0.0
  0
LINE
  8
0
 62
     0
 10
104.869
 20
60.9946
 30
0.0
 11
104.069
 21
60.9946
 31
0.0
  0
LINE
  8
0
 62
     0
 10
104.069
 20
60.9946
 30
0.0
 11
104.069
 21
57.894
 31
0.0
  0
LINE
  8
0
 62
     0
 10
104.069
 20
57.894
 30
0.0
 11
104.869
 21
57.894
 31
0.0
  0
LINE
  8
0
 62
     0
 10
104.869
 20
57.894
 30
0.0
 11
104.869
 21
52.094
 31
0.0
  0
LINE
  8
0
 62
     0
 10
104.869
 20
52.094
 30
0.0
 11
104.069
 21
52.094
 31
0.0
  0
LINE
  8
0
 62
     0
 10
104.069
 20
52.094
 30
0.0
 11
104.069
 21
48.9948
 31
0.0
  0
LINE
  8
0
 62
     0
 10
104.069
 20
48.9948
 30
0.0
 11
104.869
 21
48.9948
 31
0.0
  0
LINE
  8
0
 62
     0
 10
104.869
 20
48.9948
 30
0.0
 11
104.869
 21
47.9944
 31
0.0
  0
LINE
  8
0
 62
     0
 10
104.869
 20
47.9944
 30
0.0
 11
118.868
 21
47.9944
 31
0.0
  0
LINE
  8
0
 62
     0
 10
118.868
 20
47.9944
 30
0.0
 11
118.868
 21
48.9948
 31
0.0
  0
LINE
  8
0
 62
     0
 10
118.868
 20
48.9948
 30
0.0
 11
119.669
 21
48.9948
 31
0.0
  0
LINE
  8
0
 62
     0
 10
119.669
 20
48.9948
 30
0.0
 11
119.669
 21
52.094
 31
0.0
  0
LINE
  8
0
 62
     0
 10
119.669
 20
52.094
 30
0.0
 11
118.868
 21
52.094
 31
0.0
  0
LINE
  8
0
 62
     0
 10
118.868
 20
52.094
 30
0.0
 11
118.868
 21
57.894
 31
0.0
  0
LINE
  8
0
 62
     0
 10
118.868
 20
57.894
 30
0.0
 11
119.669
 21
57.894
 31
0.0
  0
LINE
  8
0
 62
     0
 10
119.669
 20
57.894
 30
0.0
 11
119.669
 21
60.9946
 31
0.0
  0
LINE
  8
0
 62
     0
 10
119.669
 20
60.9946
 30
0.0
 11
118.868
 21
60.9946
 31
0.0
  0
LINE
  8
0
 62
     0
 10
118.868
 20
60.9946
 30
0.0
 11
118.868
 21
61.9936
 31
0.0
  0
LINE
  8
0
 62
     0
 10
118.868
 20
61.9936
 30
0.0
 11
104.869
 21
61.9936
 31
0.0
  0
LINE
  8
0
 62
     0
 10
123.919
 20
61.9936
 30
0.0
 11
123.919
 21
60.9946
 31
0.0
  0
LINE
  8
0
 62
     0
 10
123.919
 20
60.9946
 30
0.0
 11
123.118
 21
60.9946
 31
0.0
  0
LINE
  8
0
 62
     0
 10
123.118
 20
60.9946
 30
0.0
 11
123.118
 21
57.894
 31
0.0
  0
LINE
  8
0
 62
     0
 10
123.118
 20
57.894
 30
0.0
 11
123.919
 21
57.894
 31
0.0
  0
LINE
  8
0
 62
     0
 10
123.919
 20
57.894
 30
0.0
 11
123.919
 21
52.094
 31
0.0
  0
LINE
  8
0
 62
     0
 10
123.919
 20
52.094
 30
0.0
 11
123.118
 21
52.094
 31
0.0
  0
LINE
  8
0
 62
     0
 10
123.118
 20
52.094
 30
0.0
 11
123.118
 21
48.9948
 31
0.0
  0
LINE
  8
0
 62
     0
 10
123.118
 20
48.9948
 30
0.0
 11
123.919
 21
48.9948
 31
0.0
  0
LINE
  8
0
 62
     0
 10
123.919
 20
48.9948
 30
0.0
 11
123.919
 21
47.9944
 31
0.0
  0
LINE
  8
0
 62
     0
 10
123.919
 20
47.9944
 30
0.0
 11
137.92
 21
47.9944
 31
0.0
  0
LINE
  8
0
 62
     0
 10
137.92
 20
47.9944
 30
0.0
 11
137.92
 21
48.9948
 31
0.0
  0
LINE
  8
0
 62
     0
 10
137.92
 20
48.9948
 30
0.0
 11
138.719
 21
48.9948
 31
0.0
  0
LINE
  8
0
 62
     0
 10
138.719
 20
48.9948
 30
0.0
 11
138.719
 21
52.094
 31
0.0
  0
LINE
  8
0
 62
     0
 10
138.719
 20
52.094
 30
0.0
 11
137.92
 21
52.094
 31
0.0
  0
LINE
  8
0
 62
     0
 10
137.92
 20
52.094
 30
0.0
 11
137.92
 21
57.894
 31
0.0
  0
LINE
  8
0
 62
     0
 10
137.92
 20
57.894
 30
0.0
 11
138.719
 21
57.894
 31
0.0
  0
LINE
  8
0
 62
     0
 10
138.719
 20
57.894
 30
0.0
 11
138.719
 21
60.9946
 31
0.0
  0
LINE
  8
0
 62
     0
 10
138.719
 20
60.9946
 30
0.0
 11
137.92
 21
60.9946
 31
0.0
  0
LINE
  8
0
 62
     0
 10
137.92
 20
60.9946
 30
0.0
 11
137.92
 21
61.9936
 31
0.0
  0
LINE
  8
0
 62
     0
 10
137.92
 20
61.9936
 30
0.0
 11
123.919
 21
61.9936
 31
0.0
  0
LINE
  8
0
 62
     0
 10
142.97
 20
61.9936
 30
0.0
 11
142.97
 21
60.9946
 31
0.0
  0
LINE
  8
0
 62
     0
 10
142.97
 20
60.9946
 30
0.0
 11
142.169
 21
60.9946
 31
0.0
  0
LINE
  8
0
 62
     0
 10
142.169
 20
60.9946
 30
0.0
 11
142.169
 21
57.894
 31
0.0
  0
LINE
  8
0
 62
     0
 10
142.169
 20
57.894
 30
0.0
 11
142.97
 21
57.894
 31
0.0
  0
LINE
  8
0
 62
     0
 10
142.97
 20
57.894
 30
0.0
 11
142.97
 21
52.094
 31
0.0
  0
LINE
  8
0
 62
     0
 10
142.97
 20
52.094
 30
0.0
 11
142.169
 21
52.094
 31
0.0
  0
LINE
  8
0
 62
     0
 10
142.169
 20
52.094
 30
0.0
 11
142.169
 21
48.9948
 31
0.0
  0
LINE
  8
0
 62
     0
 10
142.169
 20
48.9948
 30
0.0
 11
142.97
 21
48.9948
 31
0.0
  0
LINE
  8
0
 62
     0
 10
142.97
 20
48.9948
 30
0.0
 11
142.97
 21
47.9944
 31
0.0
  0
LINE
  8
0
 62
     0
 10
142.97
 20
47.9944
 30
0.0
 11
156.97
 21
47.9944
 31
0.0
  0
LINE
  8
0
 62
     0
 10
156.97
 20
47.9944
 30
0.0
 11
156.97
 21
48.9948
 31
0.0
  0
LINE
  8
0
 62
     0
 10
156.97
 20
48.9948
 30
0.0
 11
157.769
 21
48.9948
 31
0.0
  0
LINE
  8
0
 62
     0
 10
157.769
 20
48.9948
 30
0.0
 11
157.769
 21
52.094
 31
0.0
  0
LINE
  8
0
 62
     0
 10
157.769
 20
52.094
 30
0.0
 11
156.97
 21
52.094
 31
0.0
  0
LINE
  8
0
 62
     0
 10
156.97
 20
52.094
 30
0.0
 11
156.97
 21
57.894
 31
0.0
  0
LINE
  8
0
 62
     0
 10
156.97
 20
57.894
 30
0.0
 11
157.769
 21
57.894
 31
0.0
  0
LINE
  8
0
 62
     0
 10
157.769
 20
57.894
 30
0.0
 11
157.769
 21
60.9946
 31
0.0
  0
LINE
  8
0
 62
     0
 10
157.769
 20
60.9946
 30
0.0
 11
156.97
 21
60.9946
 31
0.0
  0
LINE
  8
0
 62
     0
 10
156.97
 20
60.9946
 30
0.0
 11
156.97
 21
61.9936
 31
0.0
  0
LINE
  8
0
 62
     0
 10
156.97
 20
61.9936
 30
0.0
 11
142.97
 21
61.9936
 31
0.0
  0
LINE
  8
0
 62
     0
 10
162.02
 20
61.9936
 30
0.0
 11
162.02
 21
60.9946
 31
0.0
  0
LINE
  8
0
 62
     0
 10
162.02
 20
60.9946
 30
0.0
 11
161.219
 21
60.9946
 31
0.0
  0
LINE
  8
0
 62
     0
 10
161.219
 20
60.9946
 30
0.0
 11
161.219
 21
57.894
 31
0.0
  0
LINE
  8
0
 62
     0
 10
161.219
 20
57.894
 30
0.0
 11
162.02
 21
57.894
 31
0.0
  0
LINE
  8
0
 62
     0
 10
162.02
 20
57.894
 30
0.0
 11
162.02
 21
52.094
 31
0.0
  0
LINE
  8
0
 62
     0
 10
162.02
 20
52.094
 30
0.0
 11
161.219
 21
52.094
 31
0.0
  0
LINE
  8
0
 62
     0
 10
161.219
 20
52.094
 30
0.0
 11
161.219
 21
48.9948
 31
0.0
  0
LINE
  8
0
 62
     0
 10
161.219
 20
48.9948
 30
0.0
 11
162.02
 21
48.9948
 31
0.0
  0
LINE
  8
0
 62
     0
 10
162.02
 20
48.9948
 30
0.0
 11
162.02
 21
47.9944
 31
0.0
  0
LINE
  8
0
 62
     0
 10
162.02
 20
47.9944
 30
0.0
 11
176.02
 21
47.9944
 31
0.0
  0
LINE
  8
0
 62
     0
 10
176.02
 20
47.9944
 30
0.0
 11
176.02
 21
48.9948
 31
0.0
  0
LINE
  8
0
 62
     0
 10
176.02
 20
48.9948
 30
0.0
 11
176.819
 21
48.9948
 31
0.0
  0
LINE
  8
0
 62
     0
 10
176.819
 20
48.9948
 30
0.0
 11
176.819
 21
52.094
 31
0.0
  0
LINE
  8
0
 62
     0
 10
176.819
 20
52.094
 30
0.0
 11
176.02
 21
52.094
 31
0.0
  0
LINE
  8
0
 62
     0
 10
176.02
 20
52.094
 30
0.0
 11
176.02
 21
57.894
 31
0.0
  0
LINE
  8
0
 62
     0
 10
176.02
 20
57.894
 30
0.0
 11
176.819
 21
57.894
 31
0.0
  0
LINE
  8
0
 62
     0
 10
176.819
 20
57.894
 30
0.0
 11
176.819
 21
60.9946
 31
0.0
  0
LINE
  8
0
 62
     0
 10
176.819
 20
60.9946
 30
0.0
 11
176.02
 21
60.9946
 31
0.0
  0
LINE
  8
0
 62
     0
 10
176.02
 20
60.9946
 30
0.0
 11
176.02
 21
61.9936
 31
0.0
  0
LINE
  8
0
 62
     0
 10
176.02
 20
61.9936
 30
0.0
 11
162.02
 21
61.9936
 31
0.0
  0
LINE
  8
0
 62
     0
 10
181.07
 20
61.9936
 30
0.0
 11
181.07
 21
60.9946
 31
0.0
  0
LINE
  8
0
 62
     0
 10
181.07
 20
60.9946
 30
0.0
 11
180.269
 21
60.9946
 31
0.0
  0
LINE
  8
0
 62
     0
 10
180.269
 20
60.9946
 30
0.0
 11
180.269
 21
57.894
 31
0.0
  0
LINE
  8
0
 62
     0
 10
180.269
 20
57.894
 30
0.0
 11
181.07
 21
57.894
 31
0.0
  0
LINE
  8
0
 62
     0
 10
181.07
 20
57.894
 30
0.0
 11
181.07
 21
52.094
 31
0.0
  0
LINE
  8
0
 62
     0
 10
181.07
 20
52.094
 30
0.0
 11
180.269
 21
52.094
 31
0.0
  0
LINE
  8
0
 62
     0
 10
180.269
 20
52.094
 30
0.0
 11
180.269
 21
48.9948
 31
0.0
  0
LINE
  8
0
 62
     0
 10
180.269
 20
48.9948
 30
0.0
 11
181.07
 21
48.9948
 31
0.0
  0
LINE
  8
0
 62
     0
 10
181.07
 20
48.9948
 30
0.0
 11
181.07
 21
47.9944
 31
0.0
  0
LINE
  8
0
 62
     0
 10
181.07
 20
47.9944
 30
0.0
 11
195.07
 21
47.9944
 31
0.0
  0
LINE
  8
0
 62
     0
 10
195.07
 20
47.9944
 30
0.0
 11
195.07
 21
48.9948
 31
0.0
  0
LINE
  8
0
 62
     0
 10
195.07
 20
48.9948
 30
0.0
 11
195.869
 21
48.9948
 31
0.0
  0
LINE
  8
0
 62
     0
 10
195.869
 20
48.9948
 30
0.0
 11
195.869
 21
52.094
 31
0.0
  0
LINE
  8
0
 62
     0
 10
195.869
 20
52.094
 30
0.0
 11
195.07
 21
52.094
 31
0.0
  0
LINE
  8
0
 62
     0
 10
195.07
 20
52.094
 30
0.0
 11
195.07
 21
57.894
 31
0.0
  0
LINE
  8
0
 62
     0
 10
195.07
 20
57.894
 30
0.0
 11
195.869
 21
57.894
 31
0.0
  0
LINE
  8
0
 62
     0
 10
195.869
 20
57.894
 30
0.0
 11
195.869
 21
60.9946
 31
0.0
  0
LINE
  8
0
 62
     0
 10
195.869
 20
60.9946
 30
0.0
 11
195.07
 21
60.9946
 31
0.0
  0
LINE
  8
0
 62
     0
 10
195.07
 20
60.9946
 30
0.0
 11
195.07
 21
61.9936
 31
0.0
  0
LINE
  8
0
 62
     0
 10
195.07
 20
61.9936
 30
0.0
 11
181.07
 21
61.9936
 31
0.0
  0
LINE
  8
0
 62
     0
 10
200.12
 20
61.9936
 30
0.0
 11
200.12
 21
60.9946
 31
0.0
  0
LINE
  8
0
 62
     0
 10
200.12
 20
60.9946
 30
0.0
 11
199.319
 21
60.9946
 31
0.0
  0
LINE
  8
0
 62
     0
 10
199.319
 20
60.9946
 30
0.0
 11
199.319
 21
57.894
 31
0.0
  0
LINE
  8
0
 62
     0
 10
199.319
 20
57.894
 30
0.0
 11
200.12
 21
57.894
 31
0.0
  0
LINE
  8
0
 62
     0
 10
200.12
 20
57.894
 30
0.0
 11
200.12
 21
52.094
 31
0.0
  0
LINE
  8
0
 62
     0
 10
200.12
 20
52.094
 30
0.0
 11
199.319
 21
52.094
 31
0.0
  0
LINE
  8
0
 62
     0
 10
199.319
 20
52.094
 30
0.0
 11
199.319
 21
48.9948
 31
0.0
  0
LINE
  8
0
 62
     0
 10
199.319
 20
48.9948
 30
0.0
 11
200.12
 21
48.9948
 31
0.0
  0
LINE
  8
0
 62
     0
 10
200.12
 20
48.9948
 30
0.0
 11
200.12
 21
47.9944
 31
0.0
  0
LINE
  8
0
 62
     0
 10
200.12
 20
47.9944
 30
0.0
 11
214.12
 21
47.9944
 31
0.0
  0
LINE
  8
0
 62
     0
 10
214.12
 20
47.9944
 30
0.0
 11
214.12
 21
48.9948
 31
0.0
  0
LINE
  8
0
 62
     0
 10
214.12
 20
48.9948
 30
0.0
 11
214.919
 21
48.9948
 31
0.0
  0
LINE
  8
0
 62
     0
 10
214.919
 20
48.9948
 30
0.0
 11
214.919
 21
52.094
 31
0.0
  0
LINE
  8
0
 62
     0
 10
214.919
 20
52.094
 30
0.0
 11
214.12
 21
52.094
 31
0.0
  0
LINE
  8
0
 62
     0
 10
214.12
 20
52.094
 30
0.0
 11
214.12
 21
57.894
 31
0.0
  0
LINE
  8
0
 62
     0
 10
214.12
 20
57.894
 30
0.0
 11
214.919
 21
57.894
 31
0.0
  0
LINE
  8
0
 62
     0
 10
214.919
 20
57.894
 30
0.0
 11
214.919
 21
60.9946
 31
0.0
  0
LINE
  8
0
 62
     0
 10
214.919
 20
60.9946
 30
0.0
 11
214.12
 21
60.9946
 31
0.0
  0
LINE
  8
0
 62
     0
 10
214.12
 20
60.9946
 30
0.0
 11
214.12
 21
61.9936
 31
0.0
  0
LINE
  8
0
 62
     0
 10
214.12
 20
61.9936
 30
0.0
 11
200.12
 21
61.9936
 31
0.0
  0
LINE
  8
0
 62
     0
 10
219.17
 20
61.9936
 30
0.0
 11
219.17
 21
60.9946
 31
0.0
  0
LINE
  8
0
 62
     0
 10
219.17
 20
60.9946
 30
0.0
 11
218.369
 21
60.9946
 31
0.0
  0
LINE
  8
0
 62
     0
 10
218.369
 20
60.9946
 30
0.0
 11
218.369
 21
57.894
 31
0.0
  0
LINE
  8
0
 62
     0
 10
218.369
 20
57.894
 30
0.0
 11
219.17
 21
57.894
 31
0.0
  0
LINE
  8
0
 62
     0
 10
219.17
 20
57.894
 30
0.0
 11
219.17
 21
52.094
 31
0.0
  0
LINE
  8
0
 62
     0
 10
219.17
 20
52.094
 30
0.0
 11
218.369
 21
52.094
 31
0.0
  0
LINE
  8
0
 62
     0
 10
218.369
 20
52.094
 30
0.0
 11
218.369
 21
48.9948
 31
0.0
  0
LINE
  8
0
 62
     0
 10
218.369
 20
48.9948
 30
0.0
 11
219.17
 21
48.9948
 31
0.0
  0
LINE
  8
0
 62
     0
 10
219.17
 20
48.9948
 30
0.0
 11
219.17
 21
47.9944
 31
0.0
  0
LINE
  8
0
 62
     0
 10
219.17
 20
47.9944
 30
0.0
 11
233.17
 21
47.9944
 31
0.0
  0
LINE
  8
0
 62
     0
 10
233.17
 20
47.9944
 30
0.0
 11
233.17
 21
48.9948
 31
0.0
  0
LINE
  8
0
 62
     0
 10
233.17
 20
48.9948
 30
0.0
 11
233.969
 21
48.9948
 31
0.0
  0
LINE
  8
0
 62
     0
 10
233.969
 20
48.9948
 30
0.0
 11
233.969
 21
52.094
 31
0.0
  0
LINE
  8
0
 62
     0
 10
233.969
 20
52.094
 30
0.0
 11
233.17
 21
52.094
 31
0.0
  0
LINE
  8
0
 62
     0
 10
233.17
 20
52.094
 30
0.0
 11
233.17
 21
57.894
 31
0.0
  0
LINE
  8
0
 62
     0
 10
233.17
 20
57.894
 30
0.0
 11
233.969
 21
57.894
 31
0.0
  0
LINE
  8
0
 62
     0
 10
233.969
 20
57.894
 30
0.0
 11
233.969
 21
60.9946
 31
0.0
  0
LINE
  8
0
 62
     0
 10
233.969
 20
60.9946
 30
0.0
 11
233.17
 21
60.9946
 31
0.0
  0
LINE
  8
0
 62
     0
 10
233.17
 20
60.9946
 30
0.0
 11
233.17
 21
61.9936
 31
0.0
  0
LINE
  8
0
 62
     0
 10
233.17
 20
61.9936
 30
0.0
 11
219.17
 21
61.9936
 31
0.0
  0
LINE
  8
0
 62
     0
 10
238.22
 20
61.9936
 30
0.0
 11
238.22
 21
60.9946
 31
0.0
  0
LINE
  8
0
 62
     0
 10
238.22
 20
60.9946
 30
0.0
 11
237.419
 21
60.9946
 31
0.0
  0
LINE
  8
0
 62
     0
 10
237.419
 20
60.9946
 30
0.0
 11
237.419
 21
57.894
 31
0.0
  0
LINE
  8
0
 62
     0
 10
237.419
 20
57.894
 30
0.0
 11
238.22
 21
57.894
 31
0.0
  0
LINE
  8
0
 62
     0
 10
238.22
 20
57.894
 30
0.0
 11
238.22
 21
52.094
 31
0.0
  0
LINE
  8
0
 62
     0
 10
238.22
 20
52.094
 30
0.0
 11
237.419
 21
52.094
 31
0.0
  0
LINE
  8
0
 62
     0
 10
237.419
 20
52.094
 30
0.0
 11
237.419
 21
48.9948
 31
0.0
  0
LINE
  8
0
 62
     0
 10
237.419
 20
48.9948
 30
0.0
 11
238.22
 21
48.9948
 31
0.0
  0
LINE
  8
0
 62
     0
 10
238.22
 20
48.9948
 30
0.0
 11
238.22
 21
47.9944
 31
0.0
  0
LINE
  8
0
 62
     0
 10
238.22
 20
47.9944
 30
0.0
 11
252.22
 21
47.9944
 31
0.0
  0
LINE
  8
0
 62
     0
 10
252.22
 20
47.9944
 30
0.0
 11
252.22
 21
48.9948
 31
0.0
  0
LINE
  8
0
 62
     0
 10
252.22
 20
48.9948
 30
0.0
 11
253.019
 21
48.9948
 31
0.0
  0
LINE
  8
0
 62
     0
 10
253.019
 20
48.9948
 30
0.0
 11
253.019
 21
52.094
 31
0.0
  0
LINE
  8
0
 62
     0
 10
253.019
 20
52.094
 30
0.0
 11
252.22
 21
52.094
 31
0.0
  0
LINE
  8
0
 62
     0
 10
252.22
 20
52.094
 30
0.0
 11
252.22
 21
57.894
 31
0.0
  0
LINE
  8
0
 62
     0
 10
252.22
 20
57.894
 30
0.0
 11
253.019
 21
57.894
 31
0.0
  0
LINE
  8
0
 62
     0
 10
253.019
 20
57.894
 30
0.0
 11
253.019
 21
60.9946
 31
0.0
  0
LINE
  8
0
 62
     0
 10
253.019
 20
60.9946
 30
0.0
 11
252.22
 21
60.9946
 31
0.0
  0
LINE
  8
0
 62
     0
 10
252.22
 20
60.9946
 30
0.0
 11
252.22
 21
61.9936
 31
0.0
  0
LINE
  8
0
 62
     0
 10
252.22
 20
61.9936
 30
0.0
 11
238.22
 21
61.9936
 31
0.0
  0
LINE
  8
0
 62
     0
 10
23.9062
 20
81.0436
 30
0.0
 11
23.9062
 21
80.0446
 31
0.0
  0
LINE
  8
0
 62
     0
 10
23.9062
 20
80.0446
 30
0.0
 11
23.1069
 21
80.0446
 31
0.0
  0
LINE
  8
0
 62
     0
 10
23.1069
 20
80.0446
 30
0.0
 11
23.1069
 21
76.944
 31
0.0
  0
LINE
  8
0
 62
     0
 10
23.1069
 20
76.944
 30
0.0
 11
23.9062
 21
76.944
 31
0.0
  0
LINE
  8
0
 62
     0
 10
23.9062
 20
76.944
 30
0.0
 11
23.9062
 21
71.144
 31
0.0
  0
LINE
  8
0
 62
     0
 10
23.9062
 20
71.144
 30
0.0
 11
23.1069
 21
71.144
 31
0.0
  0
LINE
  8
0
 62
     0
 10
23.1069
 20
71.144
 30
0.0
 11
23.1069
 21
68.0448
 31
0.0
  0
LINE
  8
0
 62
     0
 10
23.1069
 20
68.0448
 30
0.0
 11
23.9062
 21
68.0448
 31
0.0
  0
LINE
  8
0
 62
     0
 10
23.9062
 20
68.0448
 30
0.0
 11
23.9062
 21
67.0444
 31
0.0
  0
LINE
  8
0
 62
     0
 10
23.9062
 20
67.0444
 30
0.0
 11
37.907
 21
67.0444
 31
0.0
  0
LINE
  8
0
 62
     0
 10
37.907
 20
67.0444
 30
0.0
 11
37.907
 21
68.0448
 31
0.0
  0
LINE
  8
0
 62
     0
 10
37.907
 20
68.0448
 30
0.0
 11
38.7064
 21
68.0448
 31
0.0
  0
LINE
  8
0
 62
     0
 10
38.7064
 20
68.0448
 30
0.0
 11
38.7064
 21
71.144
 31
0.0
  0
LINE
  8
0
 62
     0
 10
38.7064
 20
71.144
 30
0.0
 11
37.907
 21
71.144
 31
0.0
  0
LINE
  8
0
 62
     0
 10
37.907
 20
71.144
 30
0.0
 11
37.907
 21
76.944
 31
0.0
  0
LINE
  8
0
 62
     0
 10
37.907
 20
76.944
 30
0.0
 11
38.7064
 21
76.944
 31
0.0
  0
LINE
  8
0
 62
     0
 10
38.7064
 20
76.944
 30
0.0
 11
38.7064
 21
80.0446
 31
0.0
  0
LINE
  8
0
 62
     0
 10
38.7064
 20
80.0446
 30
0.0
 11
37.907
 21
80.0446
 31
0.0
  0
LINE
  8
0
 62
     0
 10
37.907
 20
80.0446
 30
0.0
 11
37.907
 21
81.0436
 31
0.0
  0
LINE
  8
0
 62
     0
 10
37.907
 20
81.0436
 30
0.0
 11
23.9062
 21
81.0436
 31
0.0
  0
LINE
  8
0
 62
     0
 10
47.7203
 20
81.0436
 30
0.0
 11
47.7203
 21
80.0446
 31
0.0
  0
LINE
  8
0
 62
     0
 10
47.7203
 20
80.0446
 30
0.0
 11
46.9194
 21
80.0446
 31
0.0
  0
LINE
  8
0
 62
     0
 10
46.9194
 20
80.0446
 30
0.0
 11
46.9194
 21
76.944
 31
0.0
  0
LINE
  8
0
 62
     0
 10
46.9194
 20
76.944
 30
0.0
 11
47.7203
 21
76.944
 31
0.0
  0
LINE
  8
0
 62
     0
 10
47.7203
 20
76.944
 30
0.0
 11
47.7203
 21
71.144
 31
0.0
  0
LINE
  8
0
 62
     0
 10
47.7203
 20
71.144
 30
0.0
 11
46.9194
 21
71.144
 31
0.0
  0
LINE
  8
0
 62
     0
 10
46.9194
 20
71.144
 30
0.0
 11
46.9194
 21
68.0448
 31
0.0
  0
LINE
  8
0
 62
     0
 10
46.9194
 20
68.0448
 30
0.0
 11
47.7203
 21
68.0448
 31
0.0
  0
LINE
  8
0
 62
     0
 10
47.7203
 20
68.0448
 30
0.0
 11
47.7203
 21
67.0444
 31
0.0
  0
LINE
  8
0
 62
     0
 10
47.7203
 20
67.0444
 30
0.0
 11
61.7195
 21
67.0444
 31
0.0
  0
LINE
  8
0
 62
     0
 10
61.7195
 20
67.0444
 30
0.0
 11
61.7195
 21
68.0448
 31
0.0
  0
LINE
  8
0
 62
     0
 10
61.7195
 20
68.0448
 30
0.0
 11
62.5189
 21
68.0448
 31
0.0
  0
LINE
  8
0
 62
     0
 10
62.5189
 20
68.0448
 30
0.0
 11
62.5189
 21
71.144
 31
0.0
  0
LINE
  8
0
 62
     0
 10
62.5189
 20
71.144
 30
0.0
 11
61.7195
 21
71.144
 31
0.0
  0
LINE
  8
0
 62
     0
 10
61.7195
 20
71.144
 30
0.0
 11
61.7195
 21
76.944
 31
0.0
  0
LINE
  8
0
 62
     0
 10
61.7195
 20
76.944
 30
0.0
 11
62.5189
 21
76.944
 31
0.0
  0
LINE
  8
0
 62
     0
 10
62.5189
 20
76.944
 30
0.0
 11
62.5189
 21
80.0446
 31
0.0
  0
LINE
  8
0
 62
     0
 10
62.5189
 20
80.0446
 30
0.0
 11
61.7195
 21
80.0446
 31
0.0
  0
LINE
  8
0
 62
     0
 10
61.7195
 20
80.0446
 30
0.0
 11
61.7195
 21
81.0436
 31
0.0
  0
LINE
  8
0
 62
     0
 10
61.7195
 20
81.0436
 30
0.0
 11
47.7203
 21
81.0436
 31
0.0
  0
LINE
  8
0
 62
     0
 10
66.7703
 20
81.0436
 30
0.0
 11
66.7703
 21
80.0446
 31
0.0
  0
LINE
  8
0
 62
     0
 10
66.7703
 20
80.0446
 30
0.0
 11
65.9694
 21
80.0446
 31
0.0
  0
LINE
  8
0
 62
     0
 10
65.9694
 20
80.0446
 30
0.0
 11
65.9694
 21
76.944
 31
0.0
  0
LINE
  8
0
 62
     0
 10
65.9694
 20
76.944
 30
0.0
 11
66.7703
 21
76.944
 31
0.0
  0
LINE
  8
0
 62
     0
 10
66.7703
 20
76.944
 30
0.0
 11
66.7703
 21
71.144
 31
0.0
  0
LINE
  8
0
 62
     0
 10
66.7703
 20
71.144
 30
0.0
 11
65.9694
 21
71.144
 31
0.0
  0
LINE
  8
0
 62
     0
 10
65.9694
 20
71.144
 30
0.0
 11
65.9694
 21
68.0448
 31
0.0
  0
LINE
  8
0
 62
     0
 10
65.9694
 20
68.0448
 30
0.0
 11
66.7703
 21
68.0448
 31
0.0
  0
LINE
  8
0
 62
     0
 10
66.7703
 20
68.0448
 30
0.0
 11
66.7703
 21
67.0444
 31
0.0
  0
LINE
  8
0
 62
     0
 10
66.7703
 20
67.0444
 30
0.0
 11
80.7695
 21
67.0444
 31
0.0
  0
LINE
  8
0
 62
     0
 10
80.7695
 20
67.0444
 30
0.0
 11
80.7695
 21
68.0448
 31
0.0
  0
LINE
  8
0
 62
     0
 10
80.7695
 20
68.0448
 30
0.0
 11
81.5689
 21
68.0448
 31
0.0
  0
LINE
  8
0
 62
     0
 10
81.5689
 20
68.0448
 30
0.0
 11
81.5689
 21
71.144
 31
0.0
  0
LINE
  8
0
 62
     0
 10
81.5689
 20
71.144
 30
0.0
 11
80.7695
 21
71.144
 31
0.0
  0
LINE
  8
0
 62
     0
 10
80.7695
 20
71.144
 30
0.0
 11
80.7695
 21
76.944
 31
0.0
  0
LINE
  8
0
 62
     0
 10
80.7695
 20
76.944
 30
0.0
 11
81.5689
 21
76.944
 31
0.0
  0
LINE
  8
0
 62
     0
 10
81.5689
 20
76.944
 30
0.0
 11
81.5689
 21
80.0446
 31
0.0
  0
LINE
  8
0
 62
     0
 10
81.5689
 20
80.0446
 30
0.0
 11
80.7695
 21
80.0446
 31
0.0
  0
LINE
  8
0
 62
     0
 10
80.7695
 20
80.0446
 30
0.0
 11
80.7695
 21
81.0436
 31
0.0
  0
LINE
  8
0
 62
     0
 10
80.7695
 20
81.0436
 30
0.0
 11
66.7703
 21
81.0436
 31
0.0
  0
LINE
  8
0
 62
     0
 10
85.8203
 20
81.0436
 30
0.0
 11
85.8203
 21
80.0446
 31
0.0
  0
LINE
  8
0
 62
     0
 10
85.8203
 20
80.0446
 30
0.0
 11
85.0194
 21
80.0446
 31
0.0
  0
LINE
  8
0
 62
     0
 10
85.0194
 20
80.0446
 30
0.0
 11
85.0194
 21
76.944
 31
0.0
  0
LINE
  8
0
 62
     0
 10
85.0194
 20
76.944
 30
0.0
 11
85.8203
 21
76.944
 31
0.0
  0
LINE
  8
0
 62
     0
 10
85.8203
 20
76.944
 30
0.0
 11
85.8203
 21
71.144
 31
0.0
  0
LINE
  8
0
 62
     0
 10
85.8203
 20
71.144
 30
0.0
 11
85.0194
 21
71.144
 31
0.0
  0
LINE
  8
0
 62
     0
 10
85.0194
 20
71.144
 30
0.0
 11
85.0194
 21
68.0448
 31
0.0
  0
LINE
  8
0
 62
     0
 10
85.0194
 20
68.0448
 30
0.0
 11
85.8203
 21
68.0448
 31
0.0
  0
LINE
  8
0
 62
     0
 10
85.8203
 20
68.0448
 30
0.0
 11
85.8203
 21
67.0444
 31
0.0
  0
LINE
  8
0
 62
     0
 10
85.8203
 20
67.0444
 30
0.0
 11
99.8195
 21
67.0444
 31
0.0
  0
LINE
  8
0
 62
     0
 10
99.8195
 20
67.0444
 30
0.0
 11
99.8195
 21
68.0448
 31
0.0
  0
LINE
  8
0
 62
     0
 10
99.8195
 20
68.0448
 30
0.0
 11
100.619
 21
68.0448
 31
0.0
  0
LINE
  8
0
 62
     0
 10
100.619
 20
68.0448
 30
0.0
 11
100.619
 21
71.144
 31
0.0
  0
LINE
  8
0
 62
     0
 10
100.619
 20
71.144
 30
0.0
 11
99.8195
 21
71.144
 31
0.0
  0
LINE
  8
0
 62
     0
 10
99.8195
 20
71.144
 30
0.0
 11
99.8195
 21
76.944
 31
0.0
  0
LINE
  8
0
 62
     0
 10
99.8195
 20
76.944
 30
0.0
 11
100.619
 21
76.944
 31
0.0
  0
LINE
  8
0
 62
     0
 10
100.619
 20
76.944
 30
0.0
 11
100.619
 21
80.0446
 31
0.0
  0
LINE
  8
0
 62
     0
 10
100.619
 20
80.0446
 30
0.0
 11
99.8195
 21
80.0446
 31
0.0
  0
LINE
  8
0
 62
     0
 10
99.8195
 20
80.0446
 30
0.0
 11
99.8195
 21
81.0436
 31
0.0
  0
LINE
  8
0
 62
     0
 10
99.8195
 20
81.0436
 30
0.0
 11
85.8203
 21
81.0436
 31
0.0
  0
LINE
  8
0
 62
     0
 10
104.869
 20
81.0436
 30
0.0
 11
104.869
 21
80.0446
 31
0.0
  0
LINE
  8
0
 62
     0
 10
104.869
 20
80.0446
 30
0.0
 11
104.069
 21
80.0446
 31
0.0
  0
LINE
  8
0
 62
     0
 10
104.069
 20
80.0446
 30
0.0
 11
104.069
 21
76.944
 31
0.0
  0
LINE
  8
0
 62
     0
 10
104.069
 20
76.944
 30
0.0
 11
104.869
 21
76.944
 31
0.0
  0
LINE
  8
0
 62
     0
 10
104.869
 20
76.944
 30
0.0
 11
104.869
 21
71.144
 31
0.0
  0
LINE
  8
0
 62
     0
 10
104.869
 20
71.144
 30
0.0
 11
104.069
 21
71.144
 31
0.0
  0
LINE
  8
0
 62
     0
 10
104.069
 20
71.144
 30
0.0
 11
104.069
 21
68.0448
 31
0.0
  0
LINE
  8
0
 62
     0
 10
104.069
 20
68.0448
 30
0.0
 11
104.869
 21
68.0448
 31
0.0
  0
LINE
  8
0
 62
     0
 10
104.869
 20
68.0448
 30
0.0
 11
104.869
 21
67.0444
 31
0.0
  0
LINE
  8
0
 62
     0
 10
104.869
 20
67.0444
 30
0.0
 11
118.868
 21
67.0444
 31
0.0
  0
LINE
  8
0
 62
     0
 10
118.868
 20
67.0444
 30
0.0
 11
118.868
 21
68.0448
 31
0.0
  0
LINE
  8
0
 62
     0
 10
118.868
 20
68.0448
 30
0.0
 11
119.669
 21
68.0448
 31
0.0
  0
LINE
  8
0
 62
     0
 10
119.669
 20
68.0448
 30
0.0
 11
119.669
 21
71.144
 31
0.0
  0
LINE
  8
0
 62
     0
 10
119.669
 20
71.144
 30
0.0
 11
118.868
 21
71.144
 31
0.0
  0
LINE
  8
0
 62
     0
 10
118.868
 20
71.144
 30
0.0
 11
118.868
 21
76.944
 31
0.0
  0
LINE
  8
0
 62
     0
 10
118.868
 20
76.944
 30
0.0
 11
119.669
 21
76.944
 31
0.0
  0
LINE
  8
0
 62
     0
 10
119.669
 20
76.944
 30
0.0
 11
119.669
 21
80.0446
 31
0.0
  0
LINE
  8
0
 62
     0
 10
119.669
 20
80.0446
 30
0.0
 11
118.868
 21
80.0446
 31
0.0
  0
LINE
  8
0
 62
     0
 10
118.868
 20
80.0446
 30
0.0
 11
118.868
 21
81.0436
 31
0.0
  0
LINE
  8
0
 62
     0
 10
118.868
 20
81.0436
 30
0.0
 11
104.869
 21
81.0436
 31
0.0
  0
LINE
  8
0
 62
     0
 10
123.919
 20
81.0436
 30
0.0
 11
123.919
 21
80.0446
 31
0.0
  0
LINE
  8
0
 62
     0
 10
123.919
 20
80.0446
 30
0.0
 11
123.118
 21
80.0446
 31
0.0
  0
LINE
  8
0
 62
     0
 10
123.118
 20
80.0446
 30
0.0
 11
123.118
 21
76.944
 31
0.0
  0
LINE
  8
0
 62
     0
 10
123.118
 20
76.944
 30
0.0
 11
123.919
 21
76.944
 31
0.0
  0
LINE
  8
0
 62
     0
 10
123.919
 20
76.944
 30
0.0
 11
123.919
 21
71.144
 31
0.0
  0
LINE
  8
0
 62
     0
 10
123.919
 20
71.144
 30
0.0
 11
123.118
 21
71.144
 31
0.0
  0
LINE
  8
0
 62
     0
 10
123.118
 20
71.144
 30
0.0
 11
123.118
 21
68.0448
 31
0.0
  0
LINE
  8
0
 62
     0
 10
123.118
 20
68.0448
 30
0.0
 11
123.919
 21
68.0448
 31
0.0
  0
LINE
  8
0
 62
     0
 10
123.919
 20
68.0448
 30
0.0
 11
123.919
 21
67.0444
 31
0.0
  0
LINE
  8
0
 62
     0
 10
123.919
 20
67.0444
 30
0.0
 11
137.92
 21
67.0444
 31
0.0
  0
LINE
  8
0
 62
     0
 10
137.92
 20
67.0444
 30
0.0
 11
137.92
 21
68.0448
 31
0.0
  0
LINE
  8
0
 62
     0
 10
137.92
 20
68.0448
 30
0.0
 11
138.719
 21
68.0448
 31
0.0
  0
LINE
  8
0
 62
     0
 10
138.719
 20
68.0448
 30
0.0
 11
138.719
 21
71.144
 31
0.0
  0
LINE
  8
0
 62
     0
 10
138.719
 20
71.144
 30
0.0
 11
137.92
 21
71.144
 31
0.0
  0
LINE
  8
0
 62
     0
 10
137.92
 20
71.144
 30
0.0
 11
137.92
 21
76.944
 31
0.0
  0
LINE
  8
0
 62
     0
 10
137.92
 20
76.944
 30
0.0
 11
138.719
 21
76.944
 31
0.0
  0
LINE
  8
0
 62
     0
 10
138.719
 20
76.944
 30
0.0
 11
138.719
 21
80.0446
 31
0.0
  0
LINE
  8
0
 62
     0
 10
138.719
 20
80.0446
 30
0.0
 11
137.92
 21
80.0446
 31
0.0
  0
LINE
  8
0
 62
     0
 10
137.92
 20
80.0446
 30
0.0
 11
137.92
 21
81.0436
 31
0.0
  0
LINE
  8
0
 62
     0
 10
137.92
 20
81.0436
 30
0.0
 11
123.919
 21
81.0436
 31
0.0
  0
LINE
  8
0
 62
     0
 10
142.97
 20
81.0436
 30
0.0
 11
142.97
 21
80.0446
 31
0.0
  0
LINE
  8
0
 62
     0
 10
142.97
 20
80.0446
 30
0.0
 11
142.169
 21
80.0446
 31
0.0
  0
LINE
  8
0
 62
     0
 10
142.169
 20
80.0446
 30
0.0
 11
142.169
 21
76.944
 31
0.0
  0
LINE
  8
0
 62
     0
 10
142.169
 20
76.944
 30
0.0
 11
142.97
 21
76.944
 31
0.0
  0
LINE
  8
0
 62
     0
 10
142.97
 20
76.944
 30
0.0
 11
142.97
 21
71.144
 31
0.0
  0
LINE
  8
0
 62
     0
 10
142.97
 20
71.144
 30
0.0
 11
142.169
 21
71.144
 31
0.0
  0
LINE
  8
0
 62
     0
 10
142.169
 20
71.144
 30
0.0
 11
142.169
 21
68.0448
 31
0.0
  0
LINE
  8
0
 62
     0
 10
142.169
 20
68.0448
 30
0.0
 11
142.97
 21
68.0448
 31
0.0
  0
LINE
  8
0
 62
     0
 10
142.97
 20
68.0448
 30
0.0
 11
142.97
 21
67.0444
 31
0.0
  0
LINE
  8
0
 62
     0
 10
142.97
 20
67.0444
 30
0.0
 11
156.97
 21
67.0444
 31
0.0
  0
LINE
  8
0
 62
     0
 10
156.97
 20
67.0444
 30
0.0
 11
156.97
 21
68.0448
 31
0.0
  0
LINE
  8
0
 62
     0
 10
156.97
 20
68.0448
 30
0.0
 11
157.769
 21
68.0448
 31
0.0
  0
LINE
  8
0
 62
     0
 10
157.769
 20
68.0448
 30
0.0
 11
157.769
 21
71.144
 31
0.0
  0
LINE
  8
0
 62
     0
 10
157.769
 20
71.144
 30
0.0
 11
156.97
 21
71.144
 31
0.0
  0
LINE
  8
0
 62
     0
 10
156.97
 20
71.144
 30
0.0
 11
156.97
 21
76.944
 31
0.0
  0
LINE
  8
0
 62
     0
 10
156.97
 20
76.944
 30
0.0
 11
157.769
 21
76.944
 31
0.0
  0
LINE
  8
0
 62
     0
 10
157.769
 20
76.944
 30
0.0
 11
157.769
 21
80.0446
 31
0.0
  0
LINE
  8
0
 62
     0
 10
157.769
 20
80.0446
 30
0.0
 11
156.97
 21
80.0446
 31
0.0
  0
LINE
  8
0
 62
     0
 10
156.97
 20
80.0446
 30
0.0
 11
156.97
 21
81.0436
 31
0.0
  0
LINE
  8
0
 62
     0
 10
156.97
 20
81.0436
 30
0.0
 11
142.97
 21
81.0436
 31
0.0
  0
LINE
  8
0
 62
     0
 10
162.02
 20
81.0436
 30
0.0
 11
162.02
 21
80.0446
 31
0.0
  0
LINE
  8
0
 62
     0
 10
162.02
 20
80.0446
 30
0.0
 11
161.219
 21
80.0446
 31
0.0
  0
LINE
  8
0
 62
     0
 10
161.219
 20
80.0446
 30
0.0
 11
161.219
 21
76.944
 31
0.0
  0
LINE
  8
0
 62
     0
 10
161.219
 20
76.944
 30
0.0
 11
162.02
 21
76.944
 31
0.0
  0
LINE
  8
0
 62
     0
 10
162.02
 20
76.944
 30
0.0
 11
162.02
 21
71.144
 31
0.0
  0
LINE
  8
0
 62
     0
 10
162.02
 20
71.144
 30
0.0
 11
161.219
 21
71.144
 31
0.0
  0
LINE
  8
0
 62
     0
 10
161.219
 20
71.144
 30
0.0
 11
161.219
 21
68.0448
 31
0.0
  0
LINE
  8
0
 62
     0
 10
161.219
 20
68.0448
 30
0.0
 11
162.02
 21
68.0448
 31
0.0
  0
LINE
  8
0
 62
     0
 10
162.02
 20
68.0448
 30
0.0
 11
162.02
 21
67.0444
 31
0.0
  0
LINE
  8
0
 62
     0
 10
162.02
 20
67.0444
 30
0.0
 11
176.02
 21
67.0444
 31
0.0
  0
LINE
  8
0
 62
     0
 10
176.02
 20
67.0444
 30
0.0
 11
176.02
 21
68.0448
 31
0.0
  0
LINE
  8
0
 62
     0
 10
176.02
 20
68.0448
 30
0.0
 11
176.819
 21
68.0448
 31
0.0
  0
LINE
  8
0
 62
     0
 10
176.819
 20
68.0448
 30
0.0
 11
176.819
 21
71.144
 31
0.0
  0
LINE
  8
0
 62
     0
 10
176.819
 20
71.144
 30
0.0
 11
176.02
 21
71.144
 31
0.0
  0
LINE
  8
0
 62
     0
 10
176.02
 20
71.144
 30
0.0
 11
176.02
 21
76.944
 31
0.0
  0
LINE
  8
0
 62
     0
 10
176.02
 20
76.944
 30
0.0
 11
176.819
 21
76.944
 31
0.0
  0
LINE
  8
0
 62
     0
 10
176.819
 20
76.944
 30
0.0
 11
176.819
 21
80.0446
 31
0.0
  0
LINE
  8
0
 62
     0
 10
176.819
 20
80.0446
 30
0.0
 11
176.02
 21
80.0446
 31
0.0
  0
LINE
  8
0
 62
     0
 10
176.02
 20
80.0446
 30
0.0
 11
176.02
 21
81.0436
 31
0.0
  0
LINE
  8
0
 62
     0
 10
176.02
 20
81.0436
 30
0.0
 11
162.02
 21
81.0436
 31
0.0
  0
LINE
  8
0
 62
     0
 10
181.07
 20
81.0436
 30
0.0
 11
181.07
 21
80.0446
 31
0.0
  0
LINE
  8
0
 62
     0
 10
181.07
 20
80.0446
 30
0.0
 11
180.269
 21
80.0446
 31
0.0
  0
LINE
  8
0
 62
     0
 10
180.269
 20
80.0446
 30
0.0
 11
180.269
 21
76.944
 31
0.0
  0
LINE
  8
0
 62
     0
 10
180.269
 20
76.944
 30
0.0
 11
181.07
 21
76.944
 31
0.0
  0
LINE
  8
0
 62
     0
 10
181.07
 20
76.944
 30
0.0
 11
181.07
 21
71.144
 31
0.0
  0
LINE
  8
0
 62
     0
 10
181.07
 20
71.144
 30
0.0
 11
180.269
 21
71.144
 31
0.0
  0
LINE
  8
0
 62
     0
 10
180.269
 20
71.144
 30
0.0
 11
180.269
 21
68.0448
 31
0.0
  0
LINE
  8
0
 62
     0
 10
180.269
 20
68.0448
 30
0.0
 11
181.07
 21
68.0448
 31
0.0
  0
LINE
  8
0
 62
     0
 10
181.07
 20
68.0448
 30
0.0
 11
181.07
 21
67.0444
 31
0.0
  0
LINE
  8
0
 62
     0
 10
181.07
 20
67.0444
 30
0.0
 11
195.07
 21
67.0444
 31
0.0
  0
LINE
  8
0
 62
     0
 10
195.07
 20
67.0444
 30
0.0
 11
195.07
 21
68.0448
 31
0.0
  0
LINE
  8
0
 62
     0
 10
195.07
 20
68.0448
 30
0.0
 11
195.869
 21
68.0448
 31
0.0
  0
LINE
  8
0
 62
     0
 10
195.869
 20
68.0448
 30
0.0
 11
195.869
 21
71.144
 31
0.0
  0
LINE
  8
0
 62
     0
 10
195.869
 20
71.144
 30
0.0
 11
195.07
 21
71.144
 31
0.0
  0
LINE
  8
0
 62
     0
 10
195.07
 20
71.144
 30
0.0
 11
195.07
 21
76.944
 31
0.0
  0
LINE
  8
0
 62
     0
 10
195.07
 20
76.944
 30
0.0
 11
195.869
 21
76.944
 31
0.0
  0
LINE
  8
0
 62
     0
 10
195.869
 20
76.944
 30
0.0
 11
195.869
 21
80.0446
 31
0.0
  0
LINE
  8
0
 62
     0
 10
195.869
 20
80.0446
 30
0.0
 11
195.07
 21
80.0446
 31
0.0
  0
LINE
  8
0
 62
     0
 10
195.07
 20
80.0446
 30
0.0
 11
195.07
 21
81.0436
 31
0.0
  0
LINE
  8
0
 62
     0
 10
195.07
 20
81.0436
 30
0.0
 11
181.07
 21
81.0436
 31
0.0
  0
LINE
  8
0
 62
     0
 10
200.12
 20
81.0436
 30
0.0
 11
200.12
 21
80.0446
 31
0.0
  0
LINE
  8
0
 62
     0
 10
200.12
 20
80.0446
 30
0.0
 11
199.319
 21
80.0446
 31
0.0
  0
LINE
  8
0
 62
     0
 10
199.319
 20
80.0446
 30
0.0
 11
199.319
 21
76.944
 31
0.0
  0
LINE
  8
0
 62
     0
 10
199.319
 20
76.944
 30
0.0
 11
200.12
 21
76.944
 31
0.0
  0
LINE
  8
0
 62
     0
 10
200.12
 20
76.944
 30
0.0
 11
200.12
 21
71.144
 31
0.0
  0
LINE
  8
0
 62
     0
 10
200.12
 20
71.144
 30
0.0
 11
199.319
 21
71.144
 31
0.0
  0
LINE
  8
0
 62
     0
 10
199.319
 20
71.144
 30
0.0
 11
199.319
 21
68.0448
 31
0.0
  0
LINE
  8
0
 62
     0
 10
199.319
 20
68.0448
 30
0.0
 11
200.12
 21
68.0448
 31
0.0
  0
LINE
  8
0
 62
     0
 10
200.12
 20
68.0448
 30
0.0
 11
200.12
 21
67.0444
 31
0.0
  0
LINE
  8
0
 62
     0
 10
200.12
 20
67.0444
 30
0.0
 11
214.12
 21
67.0444
 31
0.0
  0
LINE
  8
0
 62
     0
 10
214.12
 20
67.0444
 30
0.0
 11
214.12
 21
68.0448
 31
0.0
  0
LINE
  8
0
 62
     0
 10
214.12
 20
68.0448
 30
0.0
 11
214.919
 21
68.0448
 31
0.0
  0
LINE
  8
0
 62
     0
 10
214.919
 20
68.0448
 30
0.0
 11
214.919
 21
71.144
 31
0.0
  0
LINE
  8
0
 62
     0
 10
214.919
 20
71.144
 30
0.0
 11
214.12
 21
71.144
 31
0.0
  0
LINE
  8
0
 62
     0
 10
214.12
 20
71.144
 30
0.0
 11
214.12
 21
76.944
 31
0.0
  0
LINE
  8
0
 62
     0
 10
214.12
 20
76.944
 30
0.0
 11
214.919
 21
76.944
 31
0.0
  0
LINE
  8
0
 62
     0
 10
214.919
 20
76.944
 30
0.0
 11
214.919
 21
80.0446
 31
0.0
  0
LINE
  8
0
 62
     0
 10
214.919
 20
80.0446
 30
0.0
 11
214.12
 21
80.0446
 31
0.0
  0
LINE
  8
0
 62
     0
 10
214.12
 20
80.0446
 30
0.0
 11
214.12
 21
81.0436
 31
0.0
  0
LINE
  8
0
 62
     0
 10
214.12
 20
81.0436
 30
0.0
 11
200.12
 21
81.0436
 31
0.0
  0
LINE
  8
0
 62
     0
 10
219.17
 20
81.0436
 30
0.0
 11
219.17
 21
80.0446
 31
0.0
  0
LINE
  8
0
 62
     0
 10
219.17
 20
80.0446
 30
0.0
 11
218.369
 21
80.0446
 31
0.0
  0
LINE
  8
0
 62
     0
 10
218.369
 20
80.0446
 30
0.0
 11
218.369
 21
76.944
 31
0.0
  0
LINE
  8
0
 62
     0
 10
218.369
 20
76.944
 30
0.0
 11
219.17
 21
76.944
 31
0.0
  0
LINE
  8
0
 62
     0
 10
219.17
 20
76.944
 30
0.0
 11
219.17
 21
71.144
 31
0.0
  0
LINE
  8
0
 62
     0
 10
219.17
 20
71.144
 30
0.0
 11
218.369
 21
71.144
 31
0.0
  0
LINE
  8
0
 62
     0
 10
218.369
 20
71.144
 30
0.0
 11
218.369
 21
68.0448
 31
0.0
  0
LINE
  8
0
 62
     0
 10
218.369
 20
68.0448
 30
0.0
 11
219.17
 21
68.0448
 31
0.0
  0
LINE
  8
0
 62
     0
 10
219.17
 20
68.0448
 30
0.0
 11
219.17
 21
67.0444
 31
0.0
  0
LINE
  8
0
 62
     0
 10
219.17
 20
67.0444
 30
0.0
 11
233.17
 21
67.0444
 31
0.0
  0
LINE
  8
0
 62
     0
 10
233.17
 20
67.0444
 30
0.0
 11
233.17
 21
68.0448
 31
0.0
  0
LINE
  8
0
 62
     0
 10
233.17
 20
68.0448
 30
0.0
 11
233.969
 21
68.0448
 31
0.0
  0
LINE
  8
0
 62
     0
 10
233.969
 20
68.0448
 30
0.0
 11
233.969
 21
71.144
 31
0.0
  0
LINE
  8
0
 62
     0
 10
233.969
 20
71.144
 30
0.0
 11
233.17
 21
71.144
 31
0.0
  0
LINE
  8
0
 62
     0
 10
233.17
 20
71.144
 30
0.0
 11
233.17
 21
76.944
 31
0.0
  0
LINE
  8
0
 62
     0
 10
233.17
 20
76.944
 30
0.0
 11
233.969
 21
76.944
 31
0.0
  0
LINE
  8
0
 62
     0
 10
233.969
 20
76.944
 30
0.0
 11
233.969
 21
80.0446
 31
0.0
  0
LINE
  8
0
 62
     0
 10
233.969
 20
80.0446
 30
0.0
 11
233.17
 21
80.0446
 31
0.0
  0
LINE
  8
0
 62
     0
 10
233.17
 20
80.0446
 30
0.0
 11
233.17
 21
81.0436
 31
0.0
  0
LINE
  8
0
 62
     0
 10
233.17
 20
81.0436
 30
0.0
 11
219.17
 21
81.0436
 31
0.0
  0
LINE
  8
0
 62
     0
 10
238.22
 20
81.0436
 30
0.0
 11
238.22
 21
80.0446
 31
0.0
  0
LINE
  8
0
 62
     0
 10
238.22
 20
80.0446
 30
0.0
 11
237.419
 21
80.0446
 31
0.0
  0
LINE
  8
0
 62
     0
 10
237.419
 20
80.0446
 30
0.0
 11
237.419
 21
76.944
 31
0.0
  0
LINE
  8
0
 62
     0
 10
237.419
 20
76.944
 30
0.0
 11
238.22
 21
76.944
 31
0.0
  0
LINE
  8
0
 62
     0
 10
238.22
 20
76.944
 30
0.0
 11
238.22
 21
71.144
 31
0.0
  0
LINE
  8
0
 62
     0
 10
238.22
 20
71.144
 30
0.0
 11
237.419
 21
71.144
 31
0.0
  0
LINE
  8
0
 62
     0
 10
237.419
 20
71.144
 30
0.0
 11
237.419
 21
68.0448
 31
0.0
  0
LINE
  8
0
 62
     0
 10
237.419
 20
68.0448
 30
0.0
 11
238.22
 21
68.0448
 31
0.0
  0
LINE
  8
0
 62
     0
 10
238.22
 20
68.0448
 30
0.0
 11
238.22
 21
67.0444
 31
0.0
  0
LINE
  8
0
 62
     0
 10
238.22
 20
67.0444
 30
0.0
 11
252.22
 21
67.0444
 31
0.0
  0
LINE
  8
0
 62
     0
 10
252.22
 20
67.0444
 30
0.0
 11
252.22
 21
68.0448
 31
0.0
  0
LINE
  8
0
 62
     0
 10
252.22
 20
68.0448
 30
0.0
 11
253.019
 21
68.0448
 31
0.0
  0
LINE
  8
0
 62
     0
 10
253.019
 20
68.0448
 30
0.0
 11
253.019
 21
71.144
 31
0.0
  0
LINE
  8
0
 62
     0
 10
253.019
 20
71.144
 30
0.0
 11
252.22
 21
71.144
 31
0.0
  0
LINE
  8
0
 62
     0
 10
252.22
 20
71.144
 30
0.0
 11
252.22
 21
76.944
 31
0.0
  0
LINE
  8
0
 62
     0
 10
252.22
 20
76.944
 30
0.0
 11
253.019
 21
76.944
 31
0.0
  0
LINE
  8
0
 62
     0
 10
253.019
 20
76.944
 30
0.0
 11
253.019
 21
80.0446
 31
0.0
  0
LINE
  8
0
 62
     0
 10
253.019
 20
80.0446
 30
0.0
 11
252.22
 21
80.0446
 31
0.0
  0
LINE
  8
0
 62
     0
 10
252.22
 20
80.0446
 30
0.0
 11
252.22
 21
81.0436
 31
0.0
  0
LINE
  8
0
 62
     0
 10
252.22
 20
81.0436
 30
0.0
 11
238.22
 21
81.0436
 31
0.0
  0
LINE
  8
0
 62
     0
 10
257.27
 20
81.0436
 30
0.0
 11
257.27
 21
80.0446
 31
0.0
  0
LINE
  8
0
 62
     0
 10
257.27
 20
80.0446
 30
0.0
 11
256.469
 21
80.0446
 31
0.0
  0
LINE
  8
0
 62
     0
 10
256.469
 20
80.0446
 30
0.0
 11
256.469
 21
76.944
 31
0.0
  0
LINE
  8
0
 62
     0
 10
256.469
 20
76.944
 30
0.0
 11
257.27
 21
76.944
 31
0.0
  0
LINE
  8
0
 62
     0
 10
257.27
 20
76.944
 30
0.0
 11
257.27
 21
71.144
 31
0.0
  0
LINE
  8
0
 62
     0
 10
257.27
 20
71.144
 30
0.0
 11
256.469
 21
71.144
 31
0.0
  0
LINE
  8
0
 62
     0
 10
256.469
 20
71.144
 30
0.0
 11
256.469
 21
68.0448
 31
0.0
  0
LINE
  8
0
 62
     0
 10
256.469
 20
68.0448
 30
0.0
 11
257.27
 21
68.0448
 31
0.0
  0
LINE
  8
0
 62
     0
 10
257.27
 20
68.0448
 30
0.0
 11
257.27
 21
67.0444
 31
0.0
  0
LINE
  8
0
 62
     0
 10
257.27
 20
67.0444
 30
0.0
 11
271.27
 21
67.0444
 31
0.0
  0
LINE
  8
0
 62
     0
 10
271.27
 20
67.0444
 30
0.0
 11
271.27
 21
68.0448
 31
0.0
  0
LINE
  8
0
 62
     0
 10
271.27
 20
68.0448
 30
0.0
 11
272.069
 21
68.0448
 31
0.0
  0
LINE
  8
0
 62
     0
 10
272.069
 20
68.0448
 30
0.0
 11
272.069
 21
71.144
 31
0.0
  0
LINE
  8
0
 62
     0
 10
272.069
 20
71.144
 30
0.0
 11
271.27
 21
71.144
 31
0.0
  0
LINE
  8
0
 62
     0
 10
271.27
 20
71.144
 30
0.0
 11
271.27
 21
76.944
 31
0.0
  0
LINE
  8
0
 62
     0
 10
271.27
 20
76.944
 30
0.0
 11
272.069
 21
76.944
 31
0.0
  0
LINE
  8
0
 62
     0
 10
272.069
 20
76.944
 30
0.0
 11
272.069
 21
80.0446
 31
0.0
  0
LINE
  8
0
 62
     0
 10
272.069
 20
80.0446
 30
0.0
 11
271.27
 21
80.0446
 31
0.0
  0
LINE
  8
0
 62
     0
 10
271.27
 20
80.0446
 30
0.0
 11
271.27
 21
81.0436
 31
0.0
  0
LINE
  8
0
 62
     0
 10
271.27
 20
81.0436
 30
0.0
 11
257.27
 21
81.0436
 31
0.0
  0
LINE
  8
0
 62
     0
 10
281.081
 20
81.0436
 30
0.0
 11
281.081
 21
80.0446
 31
0.0
  0
LINE
  8
0
 62
     0
 10
281.081
 20
80.0446
 30
0.0
 11
280.282
 21
80.0446
 31
0.0
  0
LINE
  8
0
 62
     0
 10
280.282
 20
80.0446
 30
0.0
 11
280.282
 21
76.944
 31
0.0
  0
LINE
  8
0
 62
     0
 10
280.282
 20
76.944
 30
0.0
 11
281.081
 21
76.944
 31
0.0
  0
LINE
  8
0
 62
     0
 10
281.081
 20
76.944
 30
0.0
 11
281.081
 21
71.144
 31
0.0
  0
LINE
  8
0
 62
     0
 10
281.081
 20
71.144
 30
0.0
 11
280.282
 21
71.144
 31
0.0
  0
LINE
  8
0
 62
     0
 10
280.282
 20
71.144
 30
0.0
 11
280.282
 21
68.0448
 31
0.0
  0
LINE
  8
0
 62
     0
 10
280.282
 20
68.0448
 30
0.0
 11
281.081
 21
68.0448
 31
0.0
  0
LINE
  8
0
 62
     0
 10
281.081
 20
68.0448
 30
0.0
 11
281.081
 21
67.0444
 31
0.0
  0
LINE
  8
0
 62
     0
 10
281.081
 20
67.0444
 30
0.0
 11
295.082
 21
67.0444
 31
0.0
  0
LINE
  8
0
 62
     0
 10
295.082
 20
67.0444
 30
0.0
 11
295.082
 21
68.0448
 31
0.0
  0
LINE
  8
0
 62
     0
 10
295.082
 20
68.0448
 30
0.0
 11
295.881
 21
68.0448
 31
0.0
  0
LINE
  8
0
 62
     0
 10
295.881
 20
68.0448
 30
0.0
 11
295.881
 21
71.144
 31
0.0
  0
LINE
  8
0
 62
     0
 10
295.881
 20
71.144
 30
0.0
 11
295.082
 21
71.144
 31
0.0
  0
LINE
  8
0
 62
     0
 10
295.082
 20
71.144
 30
0.0
 11
295.082
 21
76.944
 31
0.0
  0
LINE
  8
0
 62
     0
 10
295.082
 20
76.944
 30
0.0
 11
295.881
 21
76.944
 31
0.0
  0
LINE
  8
0
 62
     0
 10
295.881
 20
76.944
 30
0.0
 11
295.881
 21
80.0446
 31
0.0
  0
LINE
  8
0
 62
     0
 10
295.881
 20
80.0446
 30
0.0
 11
295.082
 21
80.0446
 31
0.0
  0
LINE
  8
0
 62
     0
 10
295.082
 20
80.0446
 30
0.0
 11
295.082
 21
81.0436
 31
0.0
  0
LINE
  8
0
 62
     0
 10
295.082
 20
81.0436
 30
0.0
 11
281.081
 21
81.0436
 31
0.0
  0
LINE
  8
0
 62
     0
 10
285.845
 20
100.095
 30
0.0
 11
285.845
 21
99.0946
 31
0.0
  0
LINE
  8
0
 62
     0
 10
285.845
 20
99.0946
 30
0.0
 11
285.044
 21
99.0946
 31
0.0
  0
LINE
  8
0
 62
     0
 10
285.044
 20
99.0946
 30
0.0
 11
285.044
 21
95.994
 31
0.0
  0
LINE
  8
0
 62
     0
 10
285.044
 20
95.994
 30
0.0
 11
285.845
 21
95.994
 31
0.0
  0
LINE
  8
0
 62
     0
 10
285.845
 20
95.994
 30
0.0
 11
285.845
 21
95.3961
 31
0.0
  0
LINE
  8
0
 62
     0
 10
285.845
 20
95.3961
 30
0.0
 11
284.319
 21
95.3961
 31
0.0
  0
LINE
  8
0
 62
     0
 10
284.319
 20
95.3961
 30
0.0
 11
284.319
 21
98.6247
 31
0.0
  0
LINE
  8
0
 62
     0
 10
284.319
 20
98.6247
 30
0.0
 11
282.594
 21
98.6247
 31
0.0
  0
LINE
  8
0
 62
     0
 10
282.594
 20
98.6247
 30
0.0
 11
282.594
 21
99.544
 31
0.0
  0
LINE
  8
0
 62
     0
 10
282.594
 20
99.544
 30
0.0
 11
279.294
 21
99.544
 31
0.0
  0
LINE
  8
0
 62
     0
 10
279.294
 20
99.544
 30
0.0
 11
279.294
 21
98.6247
 31
0.0
  0
LINE
  8
0
 62
     0
 10
279.294
 20
98.6247
 30
0.0
 11
277.57
 21
98.6247
 31
0.0
  0
LINE
  8
0
 62
     0
 10
277.57
 20
98.6247
 30
0.0
 11
277.57
 21
95.3961
 31
0.0
  0
LINE
  8
0
 62
     0
 10
277.57
 20
95.3961
 30
0.0
 11
276.745
 21
95.3961
 31
0.0
  0
LINE
  8
0
 62
     0
 10
276.745
 20
95.3961
 30
0.0
 11
276.745
 21
92.5946
 31
0.0
  0
LINE
  8
0
 62
     0
 10
276.745
 20
92.5946
 30
0.0
 11
277.57
 21
92.5946
 31
0.0
  0
LINE
  8
0
 62
     0
 10
277.57
 20
92.5946
 30
0.0
 11
277.57
 21
86.3258
 31
0.0
  0
LINE
  8
0
 62
     0
 10
277.57
 20
86.3258
 30
0.0
 11
279.294
 21
86.3258
 31
0.0
  0
LINE
  8
0
 62
     0
 10
279.294
 20
86.3258
 30
0.0
 11
279.294
 21
85.3447
 31
0.0
  0
LINE
  8
0
 62
     0
 10
279.294
 20
85.3447
 30
0.0
 11
282.594
 21
85.3447
 31
0.0
  0
LINE
  8
0
 62
     0
 10
282.594
 20
85.3447
 30
0.0
 11
282.594
 21
86.3258
 31
0.0
  0
LINE
  8
0
 62
     0
 10
282.594
 20
86.3258
 30
0.0
 11
284.319
 21
86.3258
 31
0.0
  0
LINE
  8
0
 62
     0
 10
284.319
 20
86.3258
 30
0.0
 11
284.319
 21
90.7948
 31
0.0
  0
LINE
  8
0
 62
     0
 10
284.319
 20
90.7948
 30
0.0
 11
285.845
 21
90.7948
 31
0.0
  0
LINE
  8
0
 62
     0
 10
285.845
 20
90.7948
 30
0.0
 11
285.845
 21
90.1954
 31
0.0
  0
LINE
  8
0
 62
     0
 10
285.845
 20
90.1954
 30
0.0
 11
285.044
 21
90.1954
 31
0.0
  0
LINE
  8
0
 62
     0
 10
285.044
 20
90.1954
 30
0.0
 11
285.044
 21
87.0948
 31
0.0
  0
LINE
  8
0
 62
     0
 10
285.044
 20
87.0948
 30
0.0
 11
285.845
 21
87.0948
 31
0.0
  0
LINE
  8
0
 62
     0
 10
285.845
 20
87.0948
 30
0.0
 11
285.845
 21
86.0944
 31
0.0
  0
LINE
  8
0
 62
     0
 10
285.845
 20
86.0944
 30
0.0
 11
299.845
 21
86.0944
 31
0.0
  0
LINE
  8
0
 62
     0
 10
299.845
 20
86.0944
 30
0.0
 11
299.845
 21
87.0948
 31
0.0
  0
LINE
  8
0
 62
     0
 10
299.845
 20
87.0948
 30
0.0
 11
300.644
 21
87.0948
 31
0.0
  0
LINE
  8
0
 62
     0
 10
300.644
 20
87.0948
 30
0.0
 11
300.644
 21
90.1954
 31
0.0
  0
LINE
  8
0
 62
     0
 10
300.644
 20
90.1954
 30
0.0
 11
299.845
 21
90.1954
 31
0.0
  0
LINE
  8
0
 62
     0
 10
299.845
 20
90.1954
 30
0.0
 11
299.845
 21
90.7948
 31
0.0
  0
LINE
  8
0
 62
     0
 10
299.845
 20
90.7948
 30
0.0
 11
301.37
 21
90.7948
 31
0.0
  0
LINE
  8
0
 62
     0
 10
301.37
 20
90.7948
 30
0.0
 11
301.37
 21
86.3258
 31
0.0
  0
LINE
  8
0
 62
     0
 10
301.37
 20
86.3258
 30
0.0
 11
303.094
 21
86.3258
 31
0.0
  0
LINE
  8
0
 62
     0
 10
303.094
 20
86.3258
 30
0.0
 11
303.094
 21
85.3447
 31
0.0
  0
LINE
  8
0
 62
     0
 10
303.094
 20
85.3447
 30
0.0
 11
306.395
 21
85.3447
 31
0.0
  0
LINE
  8
0
 62
     0
 10
306.395
 20
85.3447
 30
0.0
 11
306.395
 21
86.3258
 31
0.0
  0
LINE
  8
0
 62
     0
 10
306.395
 20
86.3258
 30
0.0
 11
308.12
 21
86.3258
 31
0.0
  0
LINE
  8
0
 62
     0
 10
308.12
 20
86.3258
 30
0.0
 11
308.12
 21
92.5946
 31
0.0
  0
LINE
  8
0
 62
     0
 10
308.12
 20
92.5946
 30
0.0
 11
308.945
 21
92.5946
 31
0.0
  0
LINE
  8
0
 62
     0
 10
308.945
 20
92.5946
 30
0.0
 11
308.945
 21
95.3961
 31
0.0
  0
LINE
  8
0
 62
     0
 10
308.945
 20
95.3961
 30
0.0
 11
308.12
 21
95.3961
 31
0.0
  0
LINE
  8
0
 62
     0
 10
308.12
 20
95.3961
 30
0.0
 11
308.12
 21
98.6247
 31
0.0
  0
LINE
  8
0
 62
     0
 10
308.12
 20
98.6247
 30
0.0
 11
306.395
 21
98.6247
 31
0.0
  0
LINE
  8
0
 62
     0
 10
306.395
 20
98.6247
 30
0.0
 11
306.395
 21
99.544
 31
0.0
  0
LINE
  8
0
 62
     0
 10
306.395
 20
99.544
 30
0.0
 11
303.094
 21
99.544
 31
0.0
  0
LINE
  8
0
 62
     0
 10
303.094
 20
99.544
 30
0.0
 11
303.094
 21
98.6247
 31
0.0
  0
LINE
  8
0
 62
     0
 10
303.094
 20
98.6247
 30
0.0
 11
301.37
 21
98.6247
 31
0.0
  0
LINE
  8
0
 62
     0
 10
301.37
 20
98.6247
 30
0.0
 11
301.37
 21
95.3961
 31
0.0
  0
LINE
  8
0
 62
     0
 10
301.37
 20
95.3961
 30
0.0
 11
299.845
 21
95.3961
 31
0.0
  0
LINE
  8
0
 62
     0
 10
299.845
 20
95.3961
 30
0.0
 11
299.845
 21
95.994
 31
0.0
  0
LINE
  8
0
 62
     0
 10
299.845
 20
95.994
 30
0.0
 11
300.644
 21
95.994
 31
0.0
  0
LINE
  8
0
 62
     0
 10
300.644
 20
95.994
 30
0.0
 11
300.644
 21
99.0946
 31
0.0
  0
LINE
  8
0
 62
     0
 10
300.644
 20
99.0946
 30
0.0
 11
299.845
 21
99.0946
 31
0.0
  0
LINE
  8
0
 62
     0
 10
299.845
 20
99.0946
 30
0.0
 11
299.845
 21
100.095
 31
0.0
  0
LINE
  8
0
 62
     0
 10
299.845
 20
100.095
 30
0.0
 11
285.845
 21
100.095
 31
0.0
  0
LINE
  8
0
 62
     0
 10
9.6187
 20
100.095
 30
0.0
 11
9.6187
 21
99.0946
 31
0.0
  0
LINE
  8
0
 62
     0
 10
9.6187
 20
99.0946
 30
0.0
 11
8.81807
 21
99.0946
 31
0.0
  0
LINE
  8
0
 62
     0
 10
8.81807
 20
99.0946
 30
0.0
 11
8.81807
 21
95.994
 31
0.0
  0
LINE
  8
0
 62
     0
 10
8.81807
 20
95.994
 30
0.0
 11
9.6187
 21
95.994
 31
0.0
  0
LINE
  8
0
 62
     0
 10
9.6187
 20
95.994
 30
0.0
 11
9.6187
 21
90.1954
 31
0.0
  0
LINE
  8
0
 62
     0
 10
9.6187
 20
90.1954
 30
0.0
 11
8.81807
 21
90.1954
 31
0.0
  0
LINE
  8
0
 62
     0
 10
8.81807
 20
90.1954
 30
0.0
 11
8.81807
 21
87.0948
 31
0.0
  0
LINE
  8
0
 62
     0
 10
8.81807
 20
87.0948
 30
0.0
 11
9.6187
 21
87.0948
 31
0.0
  0
LINE
  8
0
 62
     0
 10
9.6187
 20
87.0948
 30
0.0
 11
9.6187
 21
86.0944
 31
0.0
  0
LINE
  8
0
 62
     0
 10
9.6187
 20
86.0944
 30
0.0
 11
23.6196
 21
86.0944
 31
0.0
  0
LINE
  8
0
 62
     0
 10
23.6196
 20
86.0944
 30
0.0
 11
23.6196
 21
87.0948
 31
0.0
  0
LINE
  8
0
 62
     0
 10
23.6196
 20
87.0948
 30
0.0
 11
24.4189
 21
87.0948
 31
0.0
  0
LINE
  8
0
 62
     0
 10
24.4189
 20
87.0948
 30
0.0
 11
24.4189
 21
90.1954
 31
0.0
  0
LINE
  8
0
 62
     0
 10
24.4189
 20
90.1954
 30
0.0
 11
23.6196
 21
90.1954
 31
0.0
  0
LINE
  8
0
 62
     0
 10
23.6196
 20
90.1954
 30
0.0
 11
23.6196
 21
95.994
 31
0.0
  0
LINE
  8
0
 62
     0
 10
23.6196
 20
95.994
 30
0.0
 11
24.4189
 21
95.994
 31
0.0
  0
LINE
  8
0
 62
     0
 10
24.4189
 20
95.994
 30
0.0
 11
24.4189
 21
99.0946
 31
0.0
  0
LINE
  8
0
 62
     0
 10
24.4189
 20
99.0946
 30
0.0
 11
23.6196
 21
99.0946
 31
0.0
  0
LINE
  8
0
 62
     0
 10
23.6196
 20
99.0946
 30
0.0
 11
23.6196
 21
100.095
 31
0.0
  0
LINE
  8
0
 62
     0
 10
23.6196
 20
100.095
 30
0.0
 11
9.6187
 21
100.095
 31
0.0
  0
LINE
  8
0
 62
     0
 10
28.6701
 20
100.095
 30
0.0
 11
28.6701
 21
99.0946
 31
0.0
  0
LINE
  8
0
 62
     0
 10
28.6701
 20
99.0946
 30
0.0
 11
27.8694
 21
99.0946
 31
0.0
  0
LINE
  8
0
 62
     0
 10
27.8694
 20
99.0946
 30
0.0
 11
27.8694
 21
95.994
 31
0.0
  0
LINE
  8
0
 62
     0
 10
27.8694
 20
95.994
 30
0.0
 11
28.6701
 21
95.994
 31
0.0
  0
LINE
  8
0
 62
     0
 10
28.6701
 20
95.994
 30
0.0
 11
28.6701
 21
90.1954
 31
0.0
  0
LINE
  8
0
 62
     0
 10
28.6701
 20
90.1954
 30
0.0
 11
27.8694
 21
90.1954
 31
0.0
  0
LINE
  8
0
 62
     0
 10
27.8694
 20
90.1954
 30
0.0
 11
27.8694
 21
87.0948
 31
0.0
  0
LINE
  8
0
 62
     0
 10
27.8694
 20
87.0948
 30
0.0
 11
28.6701
 21
87.0948
 31
0.0
  0
LINE
  8
0
 62
     0
 10
28.6701
 20
87.0948
 30
0.0
 11
28.6701
 21
86.0944
 31
0.0
  0
LINE
  8
0
 62
     0
 10
28.6701
 20
86.0944
 30
0.0
 11
42.6695
 21
86.0944
 31
0.0
  0
LINE
  8
0
 62
     0
 10
42.6695
 20
86.0944
 30
0.0
 11
42.6695
 21
87.0948
 31
0.0
  0
LINE
  8
0
 62
     0
 10
42.6695
 20
87.0948
 30
0.0
 11
43.4689
 21
87.0948
 31
0.0
  0
LINE
  8
0
 62
     0
 10
43.4689
 20
87.0948
 30
0.0
 11
43.4689
 21
90.1954
 31
0.0
  0
LINE
  8
0
 62
     0
 10
43.4689
 20
90.1954
 30
0.0
 11
42.6695
 21
90.1954
 31
0.0
  0
LINE
  8
0
 62
     0
 10
42.6695
 20
90.1954
 30
0.0
 11
42.6695
 21
95.994
 31
0.0
  0
LINE
  8
0
 62
     0
 10
42.6695
 20
95.994
 30
0.0
 11
43.4689
 21
95.994
 31
0.0
  0
LINE
  8
0
 62
     0
 10
43.4689
 20
95.994
 30
0.0
 11
43.4689
 21
99.0946
 31
0.0
  0
LINE
  8
0
 62
     0
 10
43.4689
 20
99.0946
 30
0.0
 11
42.6695
 21
99.0946
 31
0.0
  0
LINE
  8
0
 62
     0
 10
42.6695
 20
99.0946
 30
0.0
 11
42.6695
 21
100.095
 31
0.0
  0
LINE
  8
0
 62
     0
 10
42.6695
 20
100.095
 30
0.0
 11
28.6701
 21
100.095
 31
0.0
  0
LINE
  8
0
 62
     0
 10
47.7203
 20
100.095
 30
0.0
 11
47.7203
 21
99.0946
 31
0.0
  0
LINE
  8
0
 62
     0
 10
47.7203
 20
99.0946
 30
0.0
 11
46.9194
 21
99.0946
 31
0.0
  0
LINE
  8
0
 62
     0
 10
46.9194
 20
99.0946
 30
0.0
 11
46.9194
 21
95.994
 31
0.0
  0
LINE
  8
0
 62
     0
 10
46.9194
 20
95.994
 30
0.0
 11
47.7203
 21
95.994
 31
0.0
  0
LINE
  8
0
 62
     0
 10
47.7203
 20
95.994
 30
0.0
 11
47.7203
 21
90.1954
 31
0.0
  0
LINE
  8
0
 62
     0
 10
47.7203
 20
90.1954
 30
0.0
 11
46.9194
 21
90.1954
 31
0.0
  0
LINE
  8
0
 62
     0
 10
46.9194
 20
90.1954
 30
0.0
 11
46.9194
 21
87.0948
 31
0.0
  0
LINE
  8
0
 62
     0
 10
46.9194
 20
87.0948
 30
0.0
 11
47.7203
 21
87.0948
 31
0.0
  0
LINE
  8
0
 62
     0
 10
47.7203
 20
87.0948
 30
0.0
 11
47.7203
 21
86.0944
 31
0.0
  0
LINE
  8
0
 62
     0
 10
47.7203
 20
86.0944
 30
0.0
 11
61.7195
 21
86.0944
 31
0.0
  0
LINE
  8
0
 62
     0
 10
61.7195
 20
86.0944
 30
0.0
 11
61.7195
 21
87.0948
 31
0.0
  0
LINE
  8
0
 62
     0
 10
61.7195
 20
87.0948
 30
0.0
 11
62.5189
 21
87.0948
 31
0.0
  0
LINE
  8
0
 62
     0
 10
62.5189
 20
87.0948
 30
0.0
 11
62.5189
 21
90.1954
 31
0.0
  0
LINE
  8
0
 62
     0
 10
62.5189
 20
90.1954
 30
0.0
 11
61.7195
 21
90.1954
 31
0.0
  0
LINE
  8
0
 62
     0
 10
61.7195
 20
90.1954
 30
0.0
 11
61.7195
 21
95.994
 31
0.0
  0
LINE
  8
0
 62
     0
 10
61.7195
 20
95.994
 30
0.0
 11
62.5189
 21
95.994
 31
0.0
  0
LINE
  8
0
 62
     0
 10
62.5189
 20
95.994
 30
0.0
 11
62.5189
 21
99.0946
 31
0.0
  0
LINE
  8
0
 62
     0
 10
62.5189
 20
99.0946
 30
0.0
 11
61.7195
 21
99.0946
 31
0.0
  0
LINE
  8
0
 62
     0
 10
61.7195
 20
99.0946
 30
0.0
 11
61.7195
 21
100.095
 31
0.0
  0
LINE
  8
0
 62
     0
 10
61.7195
 20
100.095
 30
0.0
 11
47.7203
 21
100.095
 31
0.0
  0
LINE
  8
0
 62
     0
 10
66.7703
 20
100.095
 30
0.0
 11
66.7703
 21
99.0946
 31
0.0
  0
LINE
  8
0
 62
     0
 10
66.7703
 20
99.0946
 30
0.0
 11
65.9694
 21
99.0946
 31
0.0
  0
LINE
  8
0
 62
     0
 10
65.9694
 20
99.0946
 30
0.0
 11
65.9694
 21
95.994
 31
0.0
  0
LINE
  8
0
 62
     0
 10
65.9694
 20
95.994
 30
0.0
 11
66.7703
 21
95.994
 31
0.0
  0
LINE
  8
0
 62
     0
 10
66.7703
 20
95.994
 30
0.0
 11
66.7703
 21
90.1954
 31
0.0
  0
LINE
  8
0
 62
     0
 10
66.7703
 20
90.1954
 30
0.0
 11
65.9694
 21
90.1954
 31
0.0
  0
LINE
  8
0
 62
     0
 10
65.9694
 20
90.1954
 30
0.0
 11
65.9694
 21
87.0948
 31
0.0
  0
LINE
  8
0
 62
     0
 10
65.9694
 20
87.0948
 30
0.0
 11
66.7703
 21
87.0948
 31
0.0
  0
LINE
  8
0
 62
     0
 10
66.7703
 20
87.0948
 30
0.0
 11
66.7703
 21
86.0944
 31
0.0
  0
LINE
  8
0
 62
     0
 10
66.7703
 20
86.0944
 30
0.0
 11
80.7695
 21
86.0944
 31
0.0
  0
LINE
  8
0
 62
     0
 10
80.7695
 20
86.0944
 30
0.0
 11
80.7695
 21
87.0948
 31
0.0
  0
LINE
  8
0
 62
     0
 10
80.7695
 20
87.0948
 30
0.0
 11
81.5689
 21
87.0948
 31
0.0
  0
LINE
  8
0
 62
     0
 10
81.5689
 20
87.0948
 30
0.0
 11
81.5689
 21
90.1954
 31
0.0
  0
LINE
  8
0
 62
     0
 10
81.5689
 20
90.1954
 30
0.0
 11
80.7695
 21
90.1954
 31
0.0
  0
LINE
  8
0
 62
     0
 10
80.7695
 20
90.1954
 30
0.0
 11
80.7695
 21
95.994
 31
0.0
  0
LINE
  8
0
 62
     0
 10
80.7695
 20
95.994
 30
0.0
 11
81.5689
 21
95.994
 31
0.0
  0
LINE
  8
0
 62
     0
 10
81.5689
 20
95.994
 30
0.0
 11
81.5689
 21
99.0946
 31
0.0
  0
LINE
  8
0
 62
     0
 10
81.5689
 20
99.0946
 30
0.0
 11
80.7695
 21
99.0946
 31
0.0
  0
LINE
  8
0
 62
     0
 10
80.7695
 20
99.0946
 30
0.0
 11
80.7695
 21
100.095
 31
0.0
  0
LINE
  8
0
 62
     0
 10
80.7695
 20
100.095
 30
0.0
 11
66.7703
 21
100.095
 31
0.0
  0
LINE
  8
0
 62
     0
 10
85.8203
 20
100.095
 30
0.0
 11
85.8203
 21
99.0946
 31
0.0
  0
LINE
  8
0
 62
     0
 10
85.8203
 20
99.0946
 30
0.0
 11
85.0194
 21
99.0946
 31
0.0
  0
LINE
  8
0
 62
     0
 10
85.0194
 20
99.0946
 30
0.0
 11
85.0194
 21
95.994
 31
0.0
  0
LINE
  8
0
 62
     0
 10
85.0194
 20
95.994
 30
0.0
 11
85.8203
 21
95.994
 31
0.0
  0
LINE
  8
0
 62
     0
 10
85.8203
 20
95.994
 30
0.0
 11
85.8203
 21
90.1954
 31
0.0
  0
LINE
  8
0
 62
     0
 10
85.8203
 20
90.1954
 30
0.0
 11
85.0194
 21
90.1954
 31
0.0
  0
LINE
  8
0
 62
     0
 10
85.0194
 20
90.1954
 30
0.0
 11
85.0194
 21
87.0948
 31
0.0
  0
LINE
  8
0
 62
     0
 10
85.0194
 20
87.0948
 30
0.0
 11
85.8203
 21
87.0948
 31
0.0
  0
LINE
  8
0
 62
     0
 10
85.8203
 20
87.0948
 30
0.0
 11
85.8203
 21
86.0944
 31
0.0
  0
LINE
  8
0
 62
     0
 10
85.8203
 20
86.0944
 30
0.0
 11
99.8195
 21
86.0944
 31
0.0
  0
LINE
  8
0
 62
     0
 10
99.8195
 20
86.0944
 30
0.0
 11
99.8195
 21
87.0948
 31
0.0
  0
LINE
  8
0
 62
     0
 10
99.8195
 20
87.0948
 30
0.0
 11
100.619
 21
87.0948
 31
0.0
  0
LINE
  8
0
 62
     0
 10
100.619
 20
87.0948
 30
0.0
 11
100.619
 21
90.1954
 31
0.0
  0
LINE
  8
0
 62
     0
 10
100.619
 20
90.1954
 30
0.0
 11
99.8195
 21
90.1954
 31
0.0
  0
LINE
  8
0
 62
     0
 10
99.8195
 20
90.1954
 30
0.0
 11
99.8195
 21
95.994
 31
0.0
  0
LINE
  8
0
 62
     0
 10
99.8195
 20
95.994
 30
0.0
 11
100.619
 21
95.994
 31
0.0
  0
LINE
  8
0
 62
     0
 10
100.619
 20
95.994
 30
0.0
 11
100.619
 21
99.0946
 31
0.0
  0
LINE
  8
0
 62
     0
 10
100.619
 20
99.0946
 30
0.0
 11
99.8195
 21
99.0946
 31
0.0
  0
LINE
  8
0
 62
     0
 10
99.8195
 20
99.0946
 30
0.0
 11
99.8195
 21
100.095
 31
0.0
  0
LINE
  8
0
 62
     0
 10
99.8195
 20
100.095
 30
0.0
 11
85.8203
 21
100.095
 31
0.0
  0
LINE
  8
0
 62
     0
 10
104.869
 20
100.095
 30
0.0
 11
104.869
 21
99.0946
 31
0.0
  0
LINE
  8
0
 62
     0
 10
104.869
 20
99.0946
 30
0.0
 11
104.069
 21
99.0946
 31
0.0
  0
LINE
  8
0
 62
     0
 10
104.069
 20
99.0946
 30
0.0
 11
104.069
 21
95.994
 31
0.0
  0
LINE
  8
0
 62
     0
 10
104.069
 20
95.994
 30
0.0
 11
104.869
 21
95.994
 31
0.0
  0
LINE
  8
0
 62
     0
 10
104.869
 20
95.994
 30
0.0
 11
104.869
 21
90.1954
 31
0.0
  0
LINE
  8
0
 62
     0
 10
104.869
 20
90.1954
 30
0.0
 11
104.069
 21
90.1954
 31
0.0
  0
LINE
  8
0
 62
     0
 10
104.069
 20
90.1954
 30
0.0
 11
104.069
 21
87.0948
 31
0.0
  0
LINE
  8
0
 62
     0
 10
104.069
 20
87.0948
 30
0.0
 11
104.869
 21
87.0948
 31
0.0
  0
LINE
  8
0
 62
     0
 10
104.869
 20
87.0948
 30
0.0
 11
104.869
 21
86.0944
 31
0.0
  0
LINE
  8
0
 62
     0
 10
104.869
 20
86.0944
 30
0.0
 11
118.868
 21
86.0944
 31
0.0
  0
LINE
  8
0
 62
     0
 10
118.868
 20
86.0944
 30
0.0
 11
118.868
 21
87.0948
 31
0.0
  0
LINE
  8
0
 62
     0
 10
118.868
 20
87.0948
 30
0.0
 11
119.669
 21
87.0948
 31
0.0
  0
LINE
  8
0
 62
     0
 10
119.669
 20
87.0948
 30
0.0
 11
119.669
 21
90.1954
 31
0.0
  0
LINE
  8
0
 62
     0
 10
119.669
 20
90.1954
 30
0.0
 11
118.868
 21
90.1954
 31
0.0
  0
LINE
  8
0
 62
     0
 10
118.868
 20
90.1954
 30
0.0
 11
118.868
 21
95.994
 31
0.0
  0
LINE
  8
0
 62
     0
 10
118.868
 20
95.994
 30
0.0
 11
119.669
 21
95.994
 31
0.0
  0
LINE
  8
0
 62
     0
 10
119.669
 20
95.994
 30
0.0
 11
119.669
 21
99.0946
 31
0.0
  0
LINE
  8
0
 62
     0
 10
119.669
 20
99.0946
 30
0.0
 11
118.868
 21
99.0946
 31
0.0
  0
LINE
  8
0
 62
     0
 10
118.868
 20
99.0946
 30
0.0
 11
118.868
 21
100.095
 31
0.0
  0
LINE
  8
0
 62
     0
 10
118.868
 20
100.095
 30
0.0
 11
104.869
 21
100.095
 31
0.0
  0
LINE
  8
0
 62
     0
 10
123.919
 20
100.095
 30
0.0
 11
123.919
 21
99.0946
 31
0.0
  0
LINE
  8
0
 62
     0
 10
123.919
 20
99.0946
 30
0.0
 11
123.118
 21
99.0946
 31
0.0
  0
LINE
  8
0
 62
     0
 10
123.118
 20
99.0946
 30
0.0
 11
123.118
 21
95.994
 31
0.0
  0
LINE
  8
0
 62
     0
 10
123.118
 20
95.994
 30
0.0
 11
123.919
 21
95.994
 31
0.0
  0
LINE
  8
0
 62
     0
 10
123.919
 20
95.994
 30
0.0
 11
123.919
 21
90.1954
 31
0.0
  0
LINE
  8
0
 62
     0
 10
123.919
 20
90.1954
 30
0.0
 11
123.118
 21
90.1954
 31
0.0
  0
LINE
  8
0
 62
     0
 10
123.118
 20
90.1954
 30
0.0
 11
123.118
 21
87.0948
 31
0.0
  0
LINE
  8
0
 62
     0
 10
123.118
 20
87.0948
 30
0.0
 11
123.919
 21
87.0948
 31
0.0
  0
LINE
  8
0
 62
     0
 10
123.919
 20
87.0948
 30
0.0
 11
123.919
 21
86.0944
 31
0.0
  0
LINE
  8
0
 62
     0
 10
123.919
 20
86.0944
 30
0.0
 11
137.92
 21
86.0944
 31
0.0
  0
LINE
  8
0
 62
     0
 10
137.92
 20
86.0944
 30
0.0
 11
137.92
 21
87.0948
 31
0.0
  0
LINE
  8
0
 62
     0
 10
137.92
 20
87.0948
 30
0.0
 11
138.719
 21
87.0948
 31
0.0
  0
LINE
  8
0
 62
     0
 10
138.719
 20
87.0948
 30
0.0
 11
138.719
 21
90.1954
 31
0.0
  0
LINE
  8
0
 62
     0
 10
138.719
 20
90.1954
 30
0.0
 11
137.92
 21
90.1954
 31
0.0
  0
LINE
  8
0
 62
     0
 10
137.92
 20
90.1954
 30
0.0
 11
137.92
 21
95.994
 31
0.0
  0
LINE
  8
0
 62
     0
 10
137.92
 20
95.994
 30
0.0
 11
138.719
 21
95.994
 31
0.0
  0
LINE
  8
0
 62
     0
 10
138.719
 20
95.994
 30
0.0
 11
138.719
 21
99.0946
 31
0.0
  0
LINE
  8
0
 62
     0
 10
138.719
 20
99.0946
 30
0.0
 11
137.92
 21
99.0946
 31
0.0
  0
LINE
  8
0
 62
     0
 10
137.92
 20
99.0946
 30
0.0
 11
137.92
 21
100.095
 31
0.0
  0
LINE
  8
0
 62
     0
 10
137.92
 20
100.095
 30
0.0
 11
123.919
 21
100.095
 31
0.0
  0
LINE
  8
0
 62
     0
 10
142.97
 20
100.095
 30
0.0
 11
142.97
 21
99.0946
 31
0.0
  0
LINE
  8
0
 62
     0
 10
142.97
 20
99.0946
 30
0.0
 11
142.169
 21
99.0946
 31
0.0
  0
LINE
  8
0
 62
     0
 10
142.169
 20
99.0946
 30
0.0
 11
142.169
 21
95.994
 31
0.0
  0
LINE
  8
0
 62
     0
 10
142.169
 20
95.994
 30
0.0
 11
142.97
 21
95.994
 31
0.0
  0
LINE
  8
0
 62
     0
 10
142.97
 20
95.994
 30
0.0
 11
142.97
 21
90.1954
 31
0.0
  0
LINE
  8
0
 62
     0
 10
142.97
 20
90.1954
 30
0.0
 11
142.169
 21
90.1954
 31
0.0
  0
LINE
  8
0
 62
     0
 10
142.169
 20
90.1954
 30
0.0
 11
142.169
 21
87.0948
 31
0.0
  0
LINE
  8
0
 62
     0
 10
142.169
 20
87.0948
 30
0.0
 11
142.97
 21
87.0948
 31
0.0
  0
LINE
  8
0
 62
     0
 10
142.97
 20
87.0948
 30
0.0
 11
142.97
 21
86.0944
 31
0.0
  0
LINE
  8
0
 62
     0
 10
142.97
 20
86.0944
 30
0.0
 11
156.97
 21
86.0944
 31
0.0
  0
LINE
  8
0
 62
     0
 10
156.97
 20
86.0944
 30
0.0
 11
156.97
 21
87.0948
 31
0.0
  0
LINE
  8
0
 62
     0
 10
156.97
 20
87.0948
 30
0.0
 11
157.769
 21
87.0948
 31
0.0
  0
LINE
  8
0
 62
     0
 10
157.769
 20
87.0948
 30
0.0
 11
157.769
 21
90.1954
 31
0.0
  0
LINE
  8
0
 62
     0
 10
157.769
 20
90.1954
 30
0.0
 11
156.97
 21
90.1954
 31
0.0
  0
LINE
  8
0
 62
     0
 10
156.97
 20
90.1954
 30
0.0
 11
156.97
 21
95.994
 31
0.0
  0
LINE
  8
0
 62
     0
 10
156.97
 20
95.994
 30
0.0
 11
157.769
 21
95.994
 31
0.0
  0
LINE
  8
0
 62
     0
 10
157.769
 20
95.994
 30
0.0
 11
157.769
 21
99.0946
 31
0.0
  0
LINE
  8
0
 62
     0
 10
157.769
 20
99.0946
 30
0.0
 11
156.97
 21
99.0946
 31
0.0
  0
LINE
  8
0
 62
     0
 10
156.97
 20
99.0946
 30
0.0
 11
156.97
 21
100.095
 31
0.0
  0
LINE
  8
0
 62
     0
 10
156.97
 20
100.095
 30
0.0
 11
142.97
 21
100.095
 31
0.0
  0
LINE
  8
0
 62
     0
 10
162.02
 20
100.095
 30
0.0
 11
162.02
 21
99.0946
 31
0.0
  0
LINE
  8
0
 62
     0
 10
162.02
 20
99.0946
 30
0.0
 11
161.219
 21
99.0946
 31
0.0
  0
LINE
  8
0
 62
     0
 10
161.219
 20
99.0946
 30
0.0
 11
161.219
 21
95.994
 31
0.0
  0
LINE
  8
0
 62
     0
 10
161.219
 20
95.994
 30
0.0
 11
162.02
 21
95.994
 31
0.0
  0
LINE
  8
0
 62
     0
 10
162.02
 20
95.994
 30
0.0
 11
162.02
 21
90.1954
 31
0.0
  0
LINE
  8
0
 62
     0
 10
162.02
 20
90.1954
 30
0.0
 11
161.219
 21
90.1954
 31
0.0
  0
LINE
  8
0
 62
     0
 10
161.219
 20
90.1954
 30
0.0
 11
161.219
 21
87.0948
 31
0.0
  0
LINE
  8
0
 62
     0
 10
161.219
 20
87.0948
 30
0.0
 11
162.02
 21
87.0948
 31
0.0
  0
LINE
  8
0
 62
     0
 10
162.02
 20
87.0948
 30
0.0
 11
162.02
 21
86.0944
 31
0.0
  0
LINE
  8
0
 62
     0
 10
162.02
 20
86.0944
 30
0.0
 11
176.02
 21
86.0944
 31
0.0
  0
LINE
  8
0
 62
     0
 10
176.02
 20
86.0944
 30
0.0
 11
176.02
 21
87.0948
 31
0.0
  0
LINE
  8
0
 62
     0
 10
176.02
 20
87.0948
 30
0.0
 11
176.819
 21
87.0948
 31
0.0
  0
LINE
  8
0
 62
     0
 10
176.819
 20
87.0948
 30
0.0
 11
176.819
 21
90.1954
 31
0.0
  0
LINE
  8
0
 62
     0
 10
176.819
 20
90.1954
 30
0.0
 11
176.02
 21
90.1954
 31
0.0
  0
LINE
  8
0
 62
     0
 10
176.02
 20
90.1954
 30
0.0
 11
176.02
 21
95.994
 31
0.0
  0
LINE
  8
0
 62
     0
 10
176.02
 20
95.994
 30
0.0
 11
176.819
 21
95.994
 31
0.0
  0
LINE
  8
0
 62
     0
 10
176.819
 20
95.994
 30
0.0
 11
176.819
 21
99.0946
 31
0.0
  0
LINE
  8
0
 62
     0
 10
176.819
 20
99.0946
 30
0.0
 11
176.02
 21
99.0946
 31
0.0
  0
LINE
  8
0
 62
     0
 10
176.02
 20
99.0946
 30
0.0
 11
176.02
 21
100.095
 31
0.0
  0
LINE
  8
0
 62
     0
 10
176.02
 20
100.095
 30
0.0
 11
162.02
 21
100.095
 31
0.0
  0
LINE
  8
0
 62
     0
 10
181.07
 20
100.095
 30
0.0
 11
181.07
 21
99.0946
 31
0.0
  0
LINE
  8
0
 62
     0
 10
181.07
 20
99.0946
 30
0.0
 11
180.269
 21
99.0946
 31
0.0
  0
LINE
  8
0
 62
     0
 10
180.269
 20
99.0946
 30
0.0
 11
180.269
 21
95.994
 31
0.0
  0
LINE
  8
0
 62
     0
 10
180.269
 20
95.994
 30
0.0
 11
181.07
 21
95.994
 31
0.0
  0
LINE
  8
0
 62
     0
 10
181.07
 20
95.994
 30
0.0
 11
181.07
 21
90.1954
 31
0.0
  0
LINE
  8
0
 62
     0
 10
181.07
 20
90.1954
 30
0.0
 11
180.269
 21
90.1954
 31
0.0
  0
LINE
  8
0
 62
     0
 10
180.269
 20
90.1954
 30
0.0
 11
180.269
 21
87.0948
 31
0.0
  0
LINE
  8
0
 62
     0
 10
180.269
 20
87.0948
 30
0.0
 11
181.07
 21
87.0948
 31
0.0
  0
LINE
  8
0
 62
     0
 10
181.07
 20
87.0948
 30
0.0
 11
181.07
 21
86.0944
 31
0.0
  0
LINE
  8
0
 62
     0
 10
181.07
 20
86.0944
 30
0.0
 11
195.07
 21
86.0944
 31
0.0
  0
LINE
  8
0
 62
     0
 10
195.07
 20
86.0944
 30
0.0
 11
195.07
 21
87.0948
 31
0.0
  0
LINE
  8
0
 62
     0
 10
195.07
 20
87.0948
 30
0.0
 11
195.869
 21
87.0948
 31
0.0
  0
LINE
  8
0
 62
     0
 10
195.869
 20
87.0948
 30
0.0
 11
195.869
 21
90.1954
 31
0.0
  0
LINE
  8
0
 62
     0
 10
195.869
 20
90.1954
 30
0.0
 11
195.07
 21
90.1954
 31
0.0
  0
LINE
  8
0
 62
     0
 10
195.07
 20
90.1954
 30
0.0
 11
195.07
 21
95.994
 31
0.0
  0
LINE
  8
0
 62
     0
 10
195.07
 20
95.994
 30
0.0
 11
195.869
 21
95.994
 31
0.0
  0
LINE
  8
0
 62
     0
 10
195.869
 20
95.994
 30
0.0
 11
195.869
 21
99.0946
 31
0.0
  0
LINE
  8
0
 62
     0
 10
195.869
 20
99.0946
 30
0.0
 11
195.07
 21
99.0946
 31
0.0
  0
LINE
  8
0
 62
     0
 10
195.07
 20
99.0946
 30
0.0
 11
195.07
 21
100.095
 31
0.0
  0
LINE
  8
0
 62
     0
 10
195.07
 20
100.095
 30
0.0
 11
181.07
 21
100.095
 31
0.0
  0
LINE
  8
0
 62
     0
 10
200.12
 20
100.095
 30
0.0
 11
200.12
 21
99.0946
 31
0.0
  0
LINE
  8
0
 62
     0
 10
200.12
 20
99.0946
 30
0.0
 11
199.319
 21
99.0946
 31
0.0
  0
LINE
  8
0
 62
     0
 10
199.319
 20
99.0946
 30
0.0
 11
199.319
 21
95.994
 31
0.0
  0
LINE
  8
0
 62
     0
 10
199.319
 20
95.994
 30
0.0
 11
200.12
 21
95.994
 31
0.0
  0
LINE
  8
0
 62
     0
 10
200.12
 20
95.994
 30
0.0
 11
200.12
 21
90.1954
 31
0.0
  0
LINE
  8
0
 62
     0
 10
200.12
 20
90.1954
 30
0.0
 11
199.319
 21
90.1954
 31
0.0
  0
LINE
  8
0
 62
     0
 10
199.319
 20
90.1954
 30
0.0
 11
199.319
 21
87.0948
 31
0.0
  0
LINE
  8
0
 62
     0
 10
199.319
 20
87.0948
 30
0.0
 11
200.12
 21
87.0948
 31
0.0
  0
LINE
  8
0
 62
     0
 10
200.12
 20
87.0948
 30
0.0
 11
200.12
 21
86.0944
 31
0.0
  0
LINE
  8
0
 62
     0
 10
200.12
 20
86.0944
 30
0.0
 11
214.12
 21
86.0944
 31
0.0
  0
LINE
  8
0
 62
     0
 10
214.12
 20
86.0944
 30
0.0
 11
214.12
 21
87.0948
 31
0.0
  0
LINE
  8
0
 62
     0
 10
214.12
 20
87.0948
 30
0.0
 11
214.919
 21
87.0948
 31
0.0
  0
LINE
  8
0
 62
     0
 10
214.919
 20
87.0948
 30
0.0
 11
214.919
 21
90.1954
 31
0.0
  0
LINE
  8
0
 62
     0
 10
214.919
 20
90.1954
 30
0.0
 11
214.12
 21
90.1954
 31
0.0
  0
LINE
  8
0
 62
     0
 10
214.12
 20
90.1954
 30
0.0
 11
214.12
 21
95.994
 31
0.0
  0
LINE
  8
0
 62
     0
 10
214.12
 20
95.994
 30
0.0
 11
214.919
 21
95.994
 31
0.0
  0
LINE
  8
0
 62
     0
 10
214.919
 20
95.994
 30
0.0
 11
214.919
 21
99.0946
 31
0.0
  0
LINE
  8
0
 62
     0
 10
214.919
 20
99.0946
 30
0.0
 11
214.12
 21
99.0946
 31
0.0
  0
LINE
  8
0
 62
     0
 10
214.12
 20
99.0946
 30
0.0
 11
214.12
 21
100.095
 31
0.0
  0
LINE
  8
0
 62
     0
 10
214.12
 20
100.095
 30
0.0
 11
200.12
 21
100.095
 31
0.0
  0
LINE
  8
0
 62
     0
 10
219.17
 20
100.095
 30
0.0
 11
219.17
 21
99.0946
 31
0.0
  0
LINE
  8
0
 62
     0
 10
219.17
 20
99.0946
 30
0.0
 11
218.369
 21
99.0946
 31
0.0
  0
LINE
  8
0
 62
     0
 10
218.369
 20
99.0946
 30
0.0
 11
218.369
 21
95.994
 31
0.0
  0
LINE
  8
0
 62
     0
 10
218.369
 20
95.994
 30
0.0
 11
219.17
 21
95.994
 31
0.0
  0
LINE
  8
0
 62
     0
 10
219.17
 20
95.994
 30
0.0
 11
219.17
 21
90.1954
 31
0.0
  0
LINE
  8
0
 62
     0
 10
219.17
 20
90.1954
 30
0.0
 11
218.369
 21
90.1954
 31
0.0
  0
LINE
  8
0
 62
     0
 10
218.369
 20
90.1954
 30
0.0
 11
218.369
 21
87.0948
 31
0.0
  0
LINE
  8
0
 62
     0
 10
218.369
 20
87.0948
 30
0.0
 11
219.17
 21
87.0948
 31
0.0
  0
LINE
  8
0
 62
     0
 10
219.17
 20
87.0948
 30
0.0
 11
219.17
 21
86.0944
 31
0.0
  0
LINE
  8
0
 62
     0
 10
219.17
 20
86.0944
 30
0.0
 11
233.17
 21
86.0944
 31
0.0
  0
LINE
  8
0
 62
     0
 10
233.17
 20
86.0944
 30
0.0
 11
233.17
 21
87.0948
 31
0.0
  0
LINE
  8
0
 62
     0
 10
233.17
 20
87.0948
 30
0.0
 11
233.969
 21
87.0948
 31
0.0
  0
LINE
  8
0
 62
     0
 10
233.969
 20
87.0948
 30
0.0
 11
233.969
 21
90.1954
 31
0.0
  0
LINE
  8
0
 62
     0
 10
233.969
 20
90.1954
 30
0.0
 11
233.17
 21
90.1954
 31
0.0
  0
LINE
  8
0
 62
     0
 10
233.17
 20
90.1954
 30
0.0
 11
233.17
 21
95.994
 31
0.0
  0
LINE
  8
0
 62
     0
 10
233.17
 20
95.994
 30
0.0
 11
233.969
 21
95.994
 31
0.0
  0
LINE
  8
0
 62
     0
 10
233.969
 20
95.994
 30
0.0
 11
233.969
 21
99.0946
 31
0.0
  0
LINE
  8
0
 62
     0
 10
233.969
 20
99.0946
 30
0.0
 11
233.17
 21
99.0946
 31
0.0
  0
LINE
  8
0
 62
     0
 10
233.17
 20
99.0946
 30
0.0
 11
233.17
 21
100.095
 31
0.0
  0
LINE
  8
0
 62
     0
 10
233.17
 20
100.095
 30
0.0
 11
219.17
 21
100.095
 31
0.0
  0
LINE
  8
0
 62
     0
 10
238.22
 20
100.095
 30
0.0
 11
238.22
 21
99.0946
 31
0.0
  0
LINE
  8
0
 62
     0
 10
238.22
 20
99.0946
 30
0.0
 11
237.419
 21
99.0946
 31
0.0
  0
LINE
  8
0
 62
     0
 10
237.419
 20
99.0946
 30
0.0
 11
237.419
 21
95.994
 31
0.0
  0
LINE
  8
0
 62
     0
 10
237.419
 20
95.994
 30
0.0
 11
238.22
 21
95.994
 31
0.0
  0
LINE
  8
0
 62
     0
 10
238.22
 20
95.994
 30
0.0
 11
238.22
 21
90.1954
 31
0.0
  0
LINE
  8
0
 62
     0
 10
238.22
 20
90.1954
 30
0.0
 11
237.419
 21
90.1954
 31
0.0
  0
LINE
  8
0
 62
     0
 10
237.419
 20
90.1954
 30
0.0
 11
237.419
 21
87.0948
 31
0.0
  0
LINE
  8
0
 62
     0
 10
237.419
 20
87.0948
 30
0.0
 11
238.22
 21
87.0948
 31
0.0
  0
LINE
  8
0
 62
     0
 10
238.22
 20
87.0948
 30
0.0
 11
238.22
 21
86.0944
 31
0.0
  0
LINE
  8
0
 62
     0
 10
238.22
 20
86.0944
 30
0.0
 11
252.22
 21
86.0944
 31
0.0
  0
LINE
  8
0
 62
     0
 10
252.22
 20
86.0944
 30
0.0
 11
252.22
 21
87.0948
 31
0.0
  0
LINE
  8
0
 62
     0
 10
252.22
 20
87.0948
 30
0.0
 11
253.019
 21
87.0948
 31
0.0
  0
LINE
  8
0
 62
     0
 10
253.019
 20
87.0948
 30
0.0
 11
253.019
 21
90.1954
 31
0.0
  0
LINE
  8
0
 62
     0
 10
253.019
 20
90.1954
 30
0.0
 11
252.22
 21
90.1954
 31
0.0
  0
LINE
  8
0
 62
     0
 10
252.22
 20
90.1954
 30
0.0
 11
252.22
 21
95.994
 31
0.0
  0
LINE
  8
0
 62
     0
 10
252.22
 20
95.994
 30
0.0
 11
253.019
 21
95.994
 31
0.0
  0
LINE
  8
0
 62
     0
 10
253.019
 20
95.994
 30
0.0
 11
253.019
 21
99.0946
 31
0.0
  0
LINE
  8
0
 62
     0
 10
253.019
 20
99.0946
 30
0.0
 11
252.22
 21
99.0946
 31
0.0
  0
LINE
  8
0
 62
     0
 10
252.22
 20
99.0946
 30
0.0
 11
252.22
 21
100.095
 31
0.0
  0
LINE
  8
0
 62
     0
 10
252.22
 20
100.095
 30
0.0
 11
238.22
 21
100.095
 31
0.0
  0
LINE
  8
0
 62
     0
 10
257.27
 20
100.095
 30
0.0
 11
257.27
 21
99.0946
 31
0.0
  0
LINE
  8
0
 62
     0
 10
257.27
 20
99.0946
 30
0.0
 11
256.469
 21
99.0946
 31
0.0
  0
LINE
  8
0
 62
     0
 10
256.469
 20
99.0946
 30
0.0
 11
256.469
 21
95.994
 31
0.0
  0
LINE
  8
0
 62
     0
 10
256.469
 20
95.994
 30
0.0
 11
257.27
 21
95.994
 31
0.0
  0
LINE
  8
0
 62
     0
 10
257.27
 20
95.994
 30
0.0
 11
257.27
 21
90.1954
 31
0.0
  0
LINE
  8
0
 62
     0
 10
257.27
 20
90.1954
 30
0.0
 11
256.469
 21
90.1954
 31
0.0
  0
LINE
  8
0
 62
     0
 10
256.469
 20
90.1954
 30
0.0
 11
256.469
 21
87.0948
 31
0.0
  0
LINE
  8
0
 62
     0
 10
256.469
 20
87.0948
 30
0.0
 11
257.27
 21
87.0948
 31
0.0
  0
LINE
  8
0
 62
     0
 10
257.27
 20
87.0948
 30
0.0
 11
257.27
 21
86.0944
 31
0.0
  0
LINE
  8
0
 62
     0
 10
257.27
 20
86.0944
 30
0.0
 11
271.27
 21
86.0944
 31
0.0
  0
LINE
  8
0
 62
     0
 10
271.27
 20
86.0944
 30
0.0
 11
271.27
 21
87.0948
 31
0.0
  0
LINE
  8
0
 62
     0
 10
271.27
 20
87.0948
 30
0.0
 11
272.069
 21
87.0948
 31
0.0
  0
LINE
  8
0
 62
     0
 10
272.069
 20
87.0948
 30
0.0
 11
272.069
 21
90.1954
 31
0.0
  0
LINE
  8
0
 62
     0
 10
272.069
 20
90.1954
 30
0.0
 11
271.27
 21
90.1954
 31
0.0
  0
LINE
  8
0
 62
     0
 10
271.27
 20
90.1954
 30
0.0
 11
271.27
 21
95.994
 31
0.0
  0
LINE
  8
0
 62
     0
 10
271.27
 20
95.994
 30
0.0
 11
272.069
 21
95.994
 31
0.0
  0
LINE
  8
0
 62
     0
 10
272.069
 20
95.994
 30
0.0
 11
272.069
 21
99.0946
 31
0.0
  0
LINE
  8
0
 62
     0
 10
272.069
 20
99.0946
 30
0.0
 11
271.27
 21
99.0946
 31
0.0
  0
LINE
  8
0
 62
     0
 10
271.27
 20
99.0946
 30
0.0
 11
271.27
 21
100.095
 31
0.0
  0
LINE
  8
0
 62
     0
 10
271.27
 20
100.095
 30
0.0
 11
257.27
 21
100.095
 31
0.0
  0
LINE
  8
0
 62
     0
 10
106.897
 20
108.046
 30
0.0
 11
106.48
 21
107.833
 31
0.0
  0
LINE
  8
0
 62
     0
 10
106.48
 20
107.833
 30
0.0
 11
106.148
 21
107.501
 31
0.0
  0
LINE
  8
0
 62
     0
 10
106.148
 20
107.501
 30
0.0
 11
105.934
 21
107.083
 31
0.0
  0
LINE
  8
0
 62
     0
 10
105.934
 20
107.083
 30
0.0
 11
105.861
 21
106.619
 31
0.0
  0
LINE
  8
0
 62
     0
 10
105.861
 20
106.619
 30
0.0
 11
105.934
 21
106.156
 31
0.0
  0
LINE
  8
0
 62
     0
 10
105.934
 20
106.156
 30
0.0
 11
106.148
 21
105.738
 31
0.0
  0
LINE
  8
0
 62
     0
 10
106.148
 20
105.738
 30
0.0
 11
106.48
 21
105.406
 31
0.0
  0
LINE
  8
0
 62
     0
 10
106.48
 20
105.406
 30
0.0
 11
106.897
 21
105.194
 31
0.0
  0
LINE
  8
0
 62
     0
 10
106.897
 20
105.194
 30
0.0
 11
107.362
 21
105.12
 31
0.0
  0
LINE
  8
0
 62
     0
 10
107.362
 20
105.12
 30
0.0
 11
107.825
 21
105.194
 31
0.0
  0
LINE
  8
0
 62
     0
 10
107.825
 20
105.194
 30
0.0
 11
108.242
 21
105.406
 31
0.0
  0
LINE
  8
0
 62
     0
 10
108.242
 20
105.406
 30
0.0
 11
108.574
 21
105.738
 31
0.0
  0
LINE
  8
0
 62
     0
 10
108.574
 20
105.738
 30
0.0
 11
108.788
 21
106.156
 31
0.0
  0
LINE
  8
0
 62
     0
 10
108.788
 20
106.156
 30
0.0
 11
108.861
 21
106.619
 31
0.0
  0
LINE
  8
0
 62
     0
 10
108.861
 20
106.619
 30
0.0
 11
108.788
 21
107.083
 31
0.0
  0
LINE
  8
0
 62
     0
 10
108.788
 20
107.083
 30
0.0
 11
108.574
 21
107.501
 31
0.0
  0
LINE
  8
0
 62
     0
 10
108.574
 20
107.501
 30
0.0
 11
108.242
 21
107.833
 31
0.0
  0
LINE
  8
0
 62
     0
 10
108.242
 20
107.833
 30
0.0
 11
107.825
 21
108.046
 31
0.0
  0
LINE
  8
0
 62
     0
 10
107.825
 20
108.046
 30
0.0
 11
107.362
 21
108.119
 31
0.0
  0
LINE
  8
0
 62
     0
 10
107.362
 20
108.119
 30
0.0
 11
106.897
 21
108.046
 31
0.0
  0
LINE
  8
0
 62
     0
 10
211.165
 20
108.046
 30
0.0
 11
210.746
 21
107.833
 31
0.0
  0
LINE
  8
0
 62
     0
 10
210.746
 20
107.833
 30
0.0
 11
210.414
 21
107.501
 31
0.0
  0
LINE
  8
0
 62
     0
 10
210.414
 20
107.501
 30
0.0
 11
210.202
 21
107.083
 31
0.0
  0
LINE
  8
0
 62
     0
 10
210.202
 20
107.083
 30
0.0
 11
210.129
 21
106.619
 31
0.0
  0
LINE
  8
0
 62
     0
 10
210.129
 20
106.619
 30
0.0
 11
210.202
 21
106.156
 31
0.0
  0
LINE
  8
0
 62
     0
 10
210.202
 20
106.156
 30
0.0
 11
210.414
 21
105.738
 31
0.0
  0
LINE
  8
0
 62
     0
 10
210.414
 20
105.738
 30
0.0
 11
210.746
 21
105.406
 31
0.0
  0
LINE
  8
0
 62
     0
 10
210.746
 20
105.406
 30
0.0
 11
211.165
 21
105.194
 31
0.0
  0
LINE
  8
0
 62
     0
 10
211.165
 20
105.194
 30
0.0
 11
211.628
 21
105.12
 31
0.0
  0
LINE
  8
0
 62
     0
 10
211.628
 20
105.12
 30
0.0
 11
212.091
 21
105.194
 31
0.0
  0
LINE
  8
0
 62
     0
 10
212.091
 20
105.194
 30
0.0
 11
212.51
 21
105.406
 31
0.0
  0
LINE
  8
0
 62
     0
 10
212.51
 20
105.406
 30
0.0
 11
212.842
 21
105.738
 31
0.0
  0
LINE
  8
0
 62
     0
 10
212.842
 20
105.738
 30
0.0
 11
213.055
 21
106.156
 31
0.0
  0
LINE
  8
0
 62
     0
 10
213.055
 20
106.156
 30
0.0
 11
213.129
 21
106.619
 31
0.0
  0
LINE
  8
0
 62
     0
 10
213.129
 20
106.619
 30
0.0
 11
213.055
 21
107.083
 31
0.0
  0
LINE
  8
0
 62
     0
 10
213.055
 20
107.083
 30
0.0
 11
212.842
 21
107.501
 31
0.0
  0
LINE
  8
0
 62
     0
 10
212.842
 20
107.501
 30
0.0
 11
212.51
 21
107.833
 31
0.0
  0
LINE
  8
0
 62
     0
 10
212.51
 20
107.833
 30
0.0
 11
212.091
 21
108.046
 31
0.0
  0
LINE
  8
0
 62
     0
 10
212.091
 20
108.046
 30
0.0
 11
211.628
 21
108.119
 31
0.0
  0
LINE
  8
0
 62
     0
 10
211.628
 20
108.119
 30
0.0
 11
211.165
 21
108.046
 31
0.0
  0
LINE
  8
0
 62
     0
 10
315.432
 20
108.046
 30
0.0
 11
315.014
 21
107.833
 31
0.0
  0
LINE
  8
0
 62
     0
 10
315.014
 20
107.833
 30
0.0
 11
314.682
 21
107.501
 31
0.0
  0
LINE
  8
0
 62
     0
 10
314.682
 20
107.501
 30
0.0
 11
314.468
 21
107.083
 31
0.0
  0
LINE
  8
0
 62
     0
 10
314.468
 20
107.083
 30
0.0
 11
314.395
 21
106.619
 31
0.0
  0
LINE
  8
0
 62
     0
 10
314.395
 20
106.619
 30
0.0
 11
314.468
 21
106.156
 31
0.0
  0
LINE
  8
0
 62
     0
 10
314.468
 20
106.156
 30
0.0
 11
314.682
 21
105.738
 31
0.0
  0
LINE
  8
0
 62
     0
 10
314.682
 20
105.738
 30
0.0
 11
315.014
 21
105.406
 31
0.0
  0
LINE
  8
0
 62
     0
 10
315.014
 20
105.406
 30
0.0
 11
315.432
 21
105.194
 31
0.0
  0
LINE
  8
0
 62
     0
 10
315.432
 20
105.194
 30
0.0
 11
315.896
 21
105.12
 31
0.0
  0
LINE
  8
0
 62
     0
 10
315.896
 20
105.12
 30
0.0
 11
316.359
 21
105.194
 31
0.0
  0
LINE
  8
0
 62
     0
 10
316.359
 20
105.194
 30
0.0
 11
316.776
 21
105.406
 31
0.0
  0
LINE
  8
0
 62
     0
 10
316.776
 20
105.406
 30
0.0
 11
317.109
 21
105.738
 31
0.0
  0
LINE
  8
0
 62
     0
 10
317.109
 20
105.738
 30
0.0
 11
317.321
 21
106.156
 31
0.0
  0
LINE
  8
0
 62
     0
 10
317.321
 20
106.156
 30
0.0
 11
317.395
 21
106.619
 31
0.0
  0
LINE
  8
0
 62
     0
 10
317.395
 20
106.619
 30
0.0
 11
317.321
 21
107.083
 31
0.0
  0
LINE
  8
0
 62
     0
 10
317.321
 20
107.083
 30
0.0
 11
317.109
 21
107.501
 31
0.0
  0
LINE
  8
0
 62
     0
 10
317.109
 20
107.501
 30
0.0
 11
316.776
 21
107.833
 31
0.0
  0
LINE
  8
0
 62
     0
 10
316.776
 20
107.833
 30
0.0
 11
316.359
 21
108.046
 31
0.0
  0
LINE
  8
0
 62
     0
 10
316.359
 20
108.046
 30
0.0
 11
315.896
 21
108.119
 31
0.0
  0
LINE
  8
0
 62
     0
 10
315.896
 20
108.119
 30
0.0
 11
315.432
 21
108.046
 31
0.0
  0
LINE
  8
0
 62
     0
 10
2.63067
 20
108.046
 30
0.0
 11
2.21313
 21
107.833
 31
0.0
  0
LINE
  8
0
 62
     0
 10
2.21313
 20
107.833
 30
0.0
 11
1.88102
 21
107.501
 31
0.0
  0
LINE
  8
0
 62
     0
 10
1.88102
 20
107.501
 30
0.0
 11
1.66743
 21
107.083
 31
0.0
  0
LINE
  8
0
 62
     0
 10
1.66743
 20
107.083
 30
0.0
 11
1.59439
 21
106.619
 31
0.0
  0
LINE
  8
0
 62
     0
 10
1.59439
 20
106.619
 30
0.0
 11
1.66743
 21
106.156
 31
0.0
  0
LINE
  8
0
 62
     0
 10
1.66743
 20
106.156
 30
0.0
 11
1.88102
 21
105.738
 31
0.0
  0
LINE
  8
0
 62
     0
 10
1.88102
 20
105.738
 30
0.0
 11
2.21313
 21
105.406
 31
0.0
  0
LINE
  8
0
 62
     0
 10
2.21313
 20
105.406
 30
0.0
 11
2.63067
 21
105.194
 31
0.0
  0
LINE
  8
0
 62
     0
 10
2.63067
 20
105.194
 30
0.0
 11
3.09507
 21
105.12
 31
0.0
  0
LINE
  8
0
 62
     0
 10
3.09507
 20
105.12
 30
0.0
 11
3.55808
 21
105.194
 31
0.0
  0
LINE
  8
0
 62
     0
 10
3.55808
 20
105.194
 30
0.0
 11
3.97563
 21
105.406
 31
0.0
  0
LINE
  8
0
 62
     0
 10
3.97563
 20
105.406
 30
0.0
 11
4.30773
 21
105.738
 31
0.0
  0
LINE
  8
0
 62
     0
 10
4.30773
 20
105.738
 30
0.0
 11
4.51997
 21
106.156
 31
0.0
  0
LINE
  8
0
 62
     0
 10
4.51997
 20
106.156
 30
0.0
 11
4.59437
 21
106.619
 31
0.0
  0
LINE
  8
0
 62
     0
 10
4.59437
 20
106.619
 30
0.0
 11
4.51997
 21
107.083
 31
0.0
  0
LINE
  8
0
 62
     0
 10
4.51997
 20
107.083
 30
0.0
 11
4.30773
 21
107.501
 31
0.0
  0
LINE
  8
0
 62
     0
 10
4.30773
 20
107.501
 30
0.0
 11
3.97563
 21
107.833
 31
0.0
  0
LINE
  8
0
 62
     0
 10
3.97563
 20
107.833
 30
0.0
 11
3.55808
 21
108.046
 31
0.0
  0
LINE
  8
0
 62
     0
 10
3.55808
 20
108.046
 30
0.0
 11
3.09507
 21
108.119
 31
0.0
  0
LINE
  8
0
 62
     0
 10
3.09507
 20
108.119
 30
0.0
 11
2.63067
 21
108.046
 31
0.0
  0
ENDSEC
  0
EOF
