<?xml version="1.0"?>
<!-- Generated by SVGo -->
<svg width="328.801mm" height="119.250mm"
     viewBox="0.000 0.000 328.801 119.250"
     xmlns="http://www.w3.org/2000/svg" 
     xmlns:xlink="http://www.w3.org/1999/xlink">
<polygon points="323.801,114.250 5.000,114.250 5.000,5.000 159.400,5.000 159.400,11.000 11.000,11.000 11.000,108.250 317.801,108.250 317.801,11.000 169.400,11.000 169.400,5.000 323.801,5.000" style="fill:none;stroke-width:0.050000mm;stroke:black"/>
<polygon points="320.337,109.824 319.919,110.037 319.587,110.369 319.374,110.787 319.301,111.250 319.374,111.714 319.587,112.132 319.919,112.464 320.337,112.677 320.801,112.750 321.264,112.677 321.682,112.464 322.014,112.132 322.227,111.714 322.301,111.250 322.227,110.787 322.014,110.369 321.682,110.037 321.264,109.824 320.801,109.750" style="fill:none;stroke-width:0.050000mm;stroke:black"/>
<polygon points="216.070,109.824 215.652,110.037 215.320,110.369 215.107,110.787 215.034,111.250 215.107,111.714 215.320,112.132 215.652,112.464 216.070,112.677 216.534,112.750 216.997,112.677 217.415,112.464 217.747,112.132 217.960,111.714 218.034,111.250 217.960,110.787 217.747,110.369 217.415,110.037 216.997,109.824 216.534,109.750" style="fill:none;stroke-width:0.050000mm;stroke:black"/>
<polygon points="111.803,109.824 111.385,110.037 111.053,110.369 110.840,110.787 110.767,111.250 110.840,111.714 111.053,112.132 111.385,112.464 111.803,112.677 112.267,112.750 112.730,112.677 113.148,112.464 113.480,112.132 113.693,111.714 113.767,111.250 113.693,110.787 113.480,110.369 113.148,110.037 112.730,109.824 112.267,109.750" style="fill:none;stroke-width:0.050000mm;stroke:black"/>
<polygon points="7.536,109.824 7.118,110.037 6.786,110.369 6.573,110.787 6.500,111.250 6.573,111.714 6.786,112.132 7.118,112.464 7.536,112.677 8.000,112.750 8.463,112.677 8.881,112.464 9.213,112.132 9.426,111.714 9.500,111.250 9.426,110.787 9.213,110.369 8.881,110.037 8.463,109.824 8.000,109.750" style="fill:none;stroke-width:0.050000mm;stroke:black"/>
<polygon points="111.803,6.573 111.385,6.786 111.053,7.118 110.840,7.536 110.767,8.000 110.840,8.463 111.053,8.881 111.385,9.213 111.803,9.426 112.267,9.500 112.730,9.426 113.148,9.213 113.480,8.881 113.693,8.463 113.767,8.000 113.693,7.536 113.480,7.118 113.148,6.786 112.730,6.573 112.267,6.500" style="fill:none;stroke-width:0.050000mm;stroke:black"/>
<polygon points="216.070,6.573 215.652,6.786 215.320,7.118 215.107,7.536 215.034,8.000 215.107,8.463 215.320,8.881 215.652,9.213 216.070,9.426 216.534,9.500 216.997,9.426 217.415,9.213 217.747,8.881 217.960,8.463 218.034,8.000 217.960,7.536 217.747,7.118 217.415,6.786 216.997,6.573 216.534,6.500" style="fill:none;stroke-width:0.050000mm;stroke:black"/>
<polygon points="320.337,6.573 319.919,6.786 319.587,7.118 319.374,7.536 319.301,8.000 319.374,8.463 319.587,8.881 319.919,9.213 320.337,9.426 320.801,9.500 321.264,9.426 321.682,9.213 322.014,8.881 322.227,8.463 322.301,8.000 322.227,7.536 322.014,7.118 321.682,6.786 321.264,6.573 320.801,6.500" style="fill:none;stroke-width:0.050000mm;stroke:black"/>
<polygon points="7.536,6.573 7.118,6.786 6.786,7.118 6.573,7.536 6.500,8.000 6.573,8.463 6.786,8.881 7.118,9.213 7.536,9.426 8.000,9.500 8.463,9.426 8.881,9.213 9.213,8.881 9.426,8.463 9.500,8.000 9.426,7.536 9.213,7.118 8.881,6.786 8.463,6.573 8.000,6.500" style="fill:none;stroke-width:0.050000mm;stroke:black"/>
</svg>
