  0
SECTION
  2
HEADER
  9
$ACADVER
  1
AC1009
  9
$FILLMODE
 70
 0
  9
$SPLFRAME
 70
 1
  9
$EXTMIN
 10
0
 20
0
 30
0.0
  9
$EXTMAX
 10
1058.33
 20
1058.33
 30
0.0
  0
ENDSEC
  0
SECTION
  2
TABLES
  0
TABLE
  2
LAYER
 70
1
  0
LAYER
  2
0
 70
     0
 62
     7
  6
CONTINUOUS
  0
ENDTAB
  0
ENDSEC
  0
SECTION
  2
ENTITIES
  0
LINE
  8
0
 62
     0
 10
0.0950846
 20
109.619
 30
0.0
 11
318.896
 21
109.619
 31
0.0
  0
LINE
  8
0
 62
     0
 10
318.896
 20
109.619
 30
0.0
 11
318.896
 21
0.369316
 31
0.0
  0
LINE
  8
0
 62
     0
 10
318.896
 20
0.369316
 30
0.0
 11
0.0950846
 21
0.369316
 31
0.0
  0
LINE
  8
0
 62
     0
 10
0.0950846
 20
0.369316
 30
0.0
 11
0.0950846
 21
109.619
 31
0.0
  0
LINE
  8
0
 62
     0
 10
315.432
 20
4.79559
 30
0.0
 11
315.014
 21
4.58198
 31
0.0
  0
LINE
  8
0
 62
     0
 10
315.014
 20
4.58198
 30
0.0
 11
314.682
 21
4.24988
 31
0.0
  0
LINE
  8
0
 62
     0
 10
314.682
 20
4.24988
 30
0.0
 11
314.468
 21
3.83233
 31
0.0
  0
LINE
  8
0
 62
     0
 10
314.468
 20
3.83233
 30
0.0
 11
314.395
 21
3.3693
 31
0.0
  0
LINE
  8
0
 62
     0
 10
314.395
 20
3.3693
 30
0.0
 11
314.468
 21
2.90491
 31
0.0
  0
LINE
  8
0
 62
     0
 10
314.468
 20
2.90491
 30
0.0
 11
314.682
 21
2.48736
 31
0.0
  0
LINE
  8
0
 62
     0
 10
314.682
 20
2.48736
 30
0.0
 11
315.014
 21
2.15525
 31
0.0
  0
LINE
  8
0
 62
     0
 10
315.014
 20
2.15525
 30
0.0
 11
315.432
 21
1.94303
 31
0.0
  0
LINE
  8
0
 62
     0
 10
315.432
 20
1.94303
 30
0.0
 11
315.896
 21
1.87
 31
0.0
  0
LINE
  8
0
 62
     0
 10
315.896
 20
1.87
 30
0.0
 11
316.359
 21
1.94303
 31
0.0
  0
LINE
  8
0
 62
     0
 10
316.359
 20
1.94303
 30
0.0
 11
316.776
 21
2.15525
 31
0.0
  0
LINE
  8
0
 62
     0
 10
316.776
 20
2.15525
 30
0.0
 11
317.109
 21
2.48736
 31
0.0
  0
LINE
  8
0
 62
     0
 10
317.109
 20
2.48736
 30
0.0
 11
317.321
 21
2.90491
 31
0.0
  0
LINE
  8
0
 62
     0
 10
317.321
 20
2.90491
 30
0.0
 11
317.395
 21
3.3693
 31
0.0
  0
LINE
  8
0
 62
     0
 10
317.395
 20
3.3693
 30
0.0
 11
317.321
 21
3.83233
 31
0.0
  0
LINE
  8
0
 62
     0
 10
317.321
 20
3.83233
 30
0.0
 11
317.109
 21
4.24988
 31
0.0
  0
LINE
  8
0
 62
     0
 10
317.109
 20
4.24988
 30
0.0
 11
316.776
 21
4.58198
 31
0.0
  0
LINE
  8
0
 62
     0
 10
316.776
 20
4.58198
 30
0.0
 11
316.359
 21
4.79559
 31
0.0
  0
LINE
  8
0
 62
     0
 10
316.359
 20
4.79559
 30
0.0
 11
315.896
 21
4.86999
 31
0.0
  0
LINE
  8
0
 62
     0
 10
315.896
 20
4.86999
 30
0.0
 11
315.432
 21
4.79559
 31
0.0
  0
LINE
  8
0
 62
     0
 10
211.165
 20
4.79559
 30
0.0
 11
210.746
 21
4.58198
 31
0.0
  0
LINE
  8
0
 62
     0
 10
210.746
 20
4.58198
 30
0.0
 11
210.414
 21
4.24988
 31
0.0
  0
LINE
  8
0
 62
     0
 10
210.414
 20
4.24988
 30
0.0
 11
210.202
 21
3.83233
 31
0.0
  0
LINE
  8
0
 62
     0
 10
210.202
 20
3.83233
 30
0.0
 11
210.129
 21
3.3693
 31
0.0
  0
LINE
  8
0
 62
     0
 10
210.129
 20
3.3693
 30
0.0
 11
210.202
 21
2.90491
 31
0.0
  0
LINE
  8
0
 62
     0
 10
210.202
 20
2.90491
 30
0.0
 11
210.414
 21
2.48736
 31
0.0
  0
LINE
  8
0
 62
     0
 10
210.414
 20
2.48736
 30
0.0
 11
210.746
 21
2.15525
 31
0.0
  0
LINE
  8
0
 62
     0
 10
210.746
 20
2.15525
 30
0.0
 11
211.165
 21
1.94303
 31
0.0
  0
LINE
  8
0
 62
     0
 10
211.165
 20
1.94303
 30
0.0
 11
211.628
 21
1.87
 31
0.0
  0
LINE
  8
0
 62
     0
 10
211.628
 20
1.87
 30
0.0
 11
212.091
 21
1.94303
 31
0.0
  0
LINE
  8
0
 62
     0
 10
212.091
 20
1.94303
 30
0.0
 11
212.51
 21
2.15525
 31
0.0
  0
LINE
  8
0
 62
     0
 10
212.51
 20
2.15525
 30
0.0
 11
212.842
 21
2.48736
 31
0.0
  0
LINE
  8
0
 62
     0
 10
212.842
 20
2.48736
 30
0.0
 11
213.055
 21
2.90491
 31
0.0
  0
LINE
  8
0
 62
     0
 10
213.055
 20
2.90491
 30
0.0
 11
213.129
 21
3.3693
 31
0.0
  0
LINE
  8
0
 62
     0
 10
213.129
 20
3.3693
 30
0.0
 11
213.055
 21
3.83233
 31
0.0
  0
LINE
  8
0
 62
     0
 10
213.055
 20
3.83233
 30
0.0
 11
212.842
 21
4.24988
 31
0.0
  0
LINE
  8
0
 62
     0
 10
212.842
 20
4.24988
 30
0.0
 11
212.51
 21
4.58198
 31
0.0
  0
LINE
  8
0
 62
     0
 10
212.51
 20
4.58198
 30
0.0
 11
212.091
 21
4.79559
 31
0.0
  0
LINE
  8
0
 62
     0
 10
212.091
 20
4.79559
 30
0.0
 11
211.628
 21
4.86999
 31
0.0
  0
LINE
  8
0
 62
     0
 10
211.628
 20
4.86999
 30
0.0
 11
211.165
 21
4.79559
 31
0.0
  0
LINE
  8
0
 62
     0
 10
106.897
 20
4.79559
 30
0.0
 11
106.48
 21
4.58198
 31
0.0
  0
LINE
  8
0
 62
     0
 10
106.48
 20
4.58198
 30
0.0
 11
106.148
 21
4.24988
 31
0.0
  0
LINE
  8
0
 62
     0
 10
106.148
 20
4.24988
 30
0.0
 11
105.934
 21
3.83233
 31
0.0
  0
LINE
  8
0
 62
     0
 10
105.934
 20
3.83233
 30
0.0
 11
105.861
 21
3.3693
 31
0.0
  0
LINE
  8
0
 62
     0
 10
105.861
 20
3.3693
 30
0.0
 11
105.934
 21
2.90491
 31
0.0
  0
LINE
  8
0
 62
     0
 10
105.934
 20
2.90491
 30
0.0
 11
106.148
 21
2.48736
 31
0.0
  0
LINE
  8
0
 62
     0
 10
106.148
 20
2.48736
 30
0.0
 11
106.48
 21
2.15525
 31
0.0
  0
LINE
  8
0
 62
     0
 10
106.48
 20
2.15525
 30
0.0
 11
106.897
 21
1.94303
 31
0.0
  0
LINE
  8
0
 62
     0
 10
106.897
 20
1.94303
 30
0.0
 11
107.362
 21
1.87
 31
0.0
  0
LINE
  8
0
 62
     0
 10
107.362
 20
1.87
 30
0.0
 11
107.825
 21
1.94303
 31
0.0
  0
LINE
  8
0
 62
     0
 10
107.825
 20
1.94303
 30
0.0
 11
108.242
 21
2.15525
 31
0.0
  0
LINE
  8
0
 62
     0
 10
108.242
 20
2.15525
 30
0.0
 11
108.574
 21
2.48736
 31
0.0
  0
LINE
  8
0
 62
     0
 10
108.574
 20
2.48736
 30
0.0
 11
108.788
 21
2.90491
 31
0.0
  0
LINE
  8
0
 62
     0
 10
108.788
 20
2.90491
 30
0.0
 11
108.861
 21
3.3693
 31
0.0
  0
LINE
  8
0
 62
     0
 10
108.861
 20
3.3693
 30
0.0
 11
108.788
 21
3.83233
 31
0.0
  0
LINE
  8
0
 62
     0
 10
108.788
 20
3.83233
 30
0.0
 11
108.574
 21
4.24988
 31
0.0
  0
LINE
  8
0
 62
     0
 10
108.574
 20
4.24988
 30
0.0
 11
108.242
 21
4.58198
 31
0.0
  0
LINE
  8
0
 62
     0
 10
108.242
 20
4.58198
 30
0.0
 11
107.825
 21
4.79559
 31
0.0
  0
LINE
  8
0
 62
     0
 10
107.825
 20
4.79559
 30
0.0
 11
107.362
 21
4.86999
 31
0.0
  0
LINE
  8
0
 62
     0
 10
107.362
 20
4.86999
 30
0.0
 11
106.897
 21
4.79559
 31
0.0
  0
LINE
  8
0
 62
     0
 10
2.63067
 20
4.79559
 30
0.0
 11
2.21313
 21
4.58198
 31
0.0
  0
LINE
  8
0
 62
     0
 10
2.21313
 20
4.58198
 30
0.0
 11
1.88102
 21
4.24988
 31
0.0
  0
LINE
  8
0
 62
     0
 10
1.88102
 20
4.24988
 30
0.0
 11
1.66743
 21
3.83233
 31
0.0
  0
LINE
  8
0
 62
     0
 10
1.66743
 20
3.83233
 30
0.0
 11
1.59439
 21
3.3693
 31
0.0
  0
LINE
  8
0
 62
     0
 10
1.59439
 20
3.3693
 30
0.0
 11
1.66743
 21
2.90491
 31
0.0
  0
LINE
  8
0
 62
     0
 10
1.66743
 20
2.90491
 30
0.0
 11
1.88102
 21
2.48736
 31
0.0
  0
LINE
  8
0
 62
     0
 10
1.88102
 20
2.48736
 30
0.0
 11
2.21313
 21
2.15525
 31
0.0
  0
LINE
  8
0
 62
     0
 10
2.21313
 20
2.15525
 30
0.0
 11
2.63067
 21
1.94303
 31
0.0
  0
LINE
  8
0
 62
     0
 10
2.63067
 20
1.94303
 30
0.0
 11
3.09507
 21
1.87
 31
0.0
  0
LINE
  8
0
 62
     0
 10
3.09507
 20
1.87
 30
0.0
 11
3.55808
 21
1.94303
 31
0.0
  0
LINE
  8
0
 62
     0
 10
3.55808
 20
1.94303
 30
0.0
 11
3.97563
 21
2.15525
 31
0.0
  0
LINE
  8
0
 62
     0
 10
3.97563
 20
2.15525
 30
0.0
 11
4.30773
 21
2.48736
 31
0.0
  0
LINE
  8
0
 62
     0
 10
4.30773
 20
2.48736
 30
0.0
 11
4.51997
 21
2.90491
 31
0.0
  0
LINE
  8
0
 62
     0
 10
4.51997
 20
2.90491
 30
0.0
 11
4.59437
 21
3.3693
 31
0.0
  0
LINE
  8
0
 62
     0
 10
4.59437
 20
3.3693
 30
0.0
 11
4.51997
 21
3.83233
 31
0.0
  0
LINE
  8
0
 62
     0
 10
4.51997
 20
3.83233
 30
0.0
 11
4.30773
 21
4.24988
 31
0.0
  0
LINE
  8
0
 62
     0
 10
4.30773
 20
4.24988
 30
0.0
 11
3.97563
 21
4.58198
 31
0.0
  0
LINE
  8
0
 62
     0
 10
3.97563
 20
4.58198
 30
0.0
 11
3.55808
 21
4.79559
 31
0.0
  0
LINE
  8
0
 62
     0
 10
3.55808
 20
4.79559
 30
0.0
 11
3.09507
 21
4.86999
 31
0.0
  0
LINE
  8
0
 62
     0
 10
3.09507
 20
4.86999
 30
0.0
 11
2.63067
 21
4.79559
 31
0.0
  0
LINE
  8
0
 62
     0
 10
106.897
 20
108.046
 30
0.0
 11
106.48
 21
107.833
 31
0.0
  0
LINE
  8
0
 62
     0
 10
106.48
 20
107.833
 30
0.0
 11
106.148
 21
107.501
 31
0.0
  0
LINE
  8
0
 62
     0
 10
106.148
 20
107.501
 30
0.0
 11
105.934
 21
107.083
 31
0.0
  0
LINE
  8
0
 62
     0
 10
105.934
 20
107.083
 30
0.0
 11
105.861
 21
106.619
 31
0.0
  0
LINE
  8
0
 62
     0
 10
105.861
 20
106.619
 30
0.0
 11
105.934
 21
106.156
 31
0.0
  0
LINE
  8
0
 62
     0
 10
105.934
 20
106.156
 30
0.0
 11
106.148
 21
105.738
 31
0.0
  0
LINE
  8
0
 62
     0
 10
106.148
 20
105.738
 30
0.0
 11
106.48
 21
105.406
 31
0.0
  0
LINE
  8
0
 62
     0
 10
106.48
 20
105.406
 30
0.0
 11
106.897
 21
105.194
 31
0.0
  0
LINE
  8
0
 62
     0
 10
106.897
 20
105.194
 30
0.0
 11
107.362
 21
105.12
 31
0.0
  0
LINE
  8
0
 62
     0
 10
107.362
 20
105.12
 30
0.0
 11
107.825
 21
105.194
 31
0.0
  0
LINE
  8
0
 62
     0
 10
107.825
 20
105.194
 30
0.0
 11
108.242
 21
105.406
 31
0.0
  0
LINE
  8
0
 62
     0
 10
108.242
 20
105.406
 30
0.0
 11
108.574
 21
105.738
 31
0.0
  0
LINE
  8
0
 62
     0
 10
108.574
 20
105.738
 30
0.0
 11
108.788
 21
106.156
 31
0.0
  0
LINE
  8
0
 62
     0
 10
108.788
 20
106.156
 30
0.0
 11
108.861
 21
106.619
 31
0.0
  0
LINE
  8
0
 62
     0
 10
108.861
 20
106.619
 30
0.0
 11
108.788
 21
107.083
 31
0.0
  0
LINE
  8
0
 62
     0
 10
108.788
 20
107.083
 30
0.0
 11
108.574
 21
107.501
 31
0.0
  0
LINE
  8
0
 62
     0
 10
108.574
 20
107.501
 30
0.0
 11
108.242
 21
107.833
 31
0.0
  0
LINE
  8
0
 62
     0
 10
108.242
 20
107.833
 30
0.0
 11
107.825
 21
108.046
 31
0.0
  0
LINE
  8
0
 62
     0
 10
107.825
 20
108.046
 30
0.0
 11
107.362
 21
108.119
 31
0.0
  0
LINE
  8
0
 62
     0
 10
107.362
 20
108.119
 30
0.0
 11
106.897
 21
108.046
 31
0.0
  0
LINE
  8
0
 62
     0
 10
211.165
 20
108.046
 30
0.0
 11
210.746
 21
107.833
 31
0.0
  0
LINE
  8
0
 62
     0
 10
210.746
 20
107.833
 30
0.0
 11
210.414
 21
107.501
 31
0.0
  0
LINE
  8
0
 62
     0
 10
210.414
 20
107.501
 30
0.0
 11
210.202
 21
107.083
 31
0.0
  0
LINE
  8
0
 62
     0
 10
210.202
 20
107.083
 30
0.0
 11
210.129
 21
106.619
 31
0.0
  0
LINE
  8
0
 62
     0
 10
210.129
 20
106.619
 30
0.0
 11
210.202
 21
106.156
 31
0.0
  0
LINE
  8
0
 62
     0
 10
210.202
 20
106.156
 30
0.0
 11
210.414
 21
105.738
 31
0.0
  0
LINE
  8
0
 62
     0
 10
210.414
 20
105.738
 30
0.0
 11
210.746
 21
105.406
 31
0.0
  0
LINE
  8
0
 62
     0
 10
210.746
 20
105.406
 30
0.0
 11
211.165
 21
105.194
 31
0.0
  0
LINE
  8
0
 62
     0
 10
211.165
 20
105.194
 30
0.0
 11
211.628
 21
105.12
 31
0.0
  0
LINE
  8
0
 62
     0
 10
211.628
 20
105.12
 30
0.0
 11
212.091
 21
105.194
 31
0.0
  0
LINE
  8
0
 62
     0
 10
212.091
 20
105.194
 30
0.0
 11
212.51
 21
105.406
 31
0.0
  0
LINE
  8
0
 62
     0
 10
212.51
 20
105.406
 30
0.0
 11
212.842
 21
105.738
 31
0.0
  0
LINE
  8
0
 62
     0
 10
212.842
 20
105.738
 30
0.0
 11
213.055
 21
106.156
 31
0.0
  0
LINE
  8
0
 62
     0
 10
213.055
 20
106.156
 30
0.0
 11
213.129
 21
106.619
 31
0.0
  0
LINE
  8
0
 62
     0
 10
213.129
 20
106.619
 30
0.0
 11
213.055
 21
107.083
 31
0.0
  0
LINE
  8
0
 62
     0
 10
213.055
 20
107.083
 30
0.0
 11
212.842
 21
107.501
 31
0.0
  0
LINE
  8
0
 62
     0
 10
212.842
 20
107.501
 30
0.0
 11
212.51
 21
107.833
 31
0.0
  0
LINE
  8
0
 62
     0
 10
212.51
 20
107.833
 30
0.0
 11
212.091
 21
108.046
 31
0.0
  0
LINE
  8
0
 62
     0
 10
212.091
 20
108.046
 30
0.0
 11
211.628
 21
108.119
 31
0.0
  0
LINE
  8
0
 62
     0
 10
211.628
 20
108.119
 30
0.0
 11
211.165
 21
108.046
 31
0.0
  0
LINE
  8
0
 62
     0
 10
315.432
 20
108.046
 30
0.0
 11
315.014
 21
107.833
 31
0.0
  0
LINE
  8
0
 62
     0
 10
315.014
 20
107.833
 30
0.0
 11
314.682
 21
107.501
 31
0.0
  0
LINE
  8
0
 62
     0
 10
314.682
 20
107.501
 30
0.0
 11
314.468
 21
107.083
 31
0.0
  0
LINE
  8
0
 62
     0
 10
314.468
 20
107.083
 30
0.0
 11
314.395
 21
106.619
 31
0.0
  0
LINE
  8
0
 62
     0
 10
314.395
 20
106.619
 30
0.0
 11
314.468
 21
106.156
 31
0.0
  0
LINE
  8
0
 62
     0
 10
314.468
 20
106.156
 30
0.0
 11
314.682
 21
105.738
 31
0.0
  0
LINE
  8
0
 62
     0
 10
314.682
 20
105.738
 30
0.0
 11
315.014
 21
105.406
 31
0.0
  0
LINE
  8
0
 62
     0
 10
315.014
 20
105.406
 30
0.0
 11
315.432
 21
105.194
 31
0.0
  0
LINE
  8
0
 62
     0
 10
315.432
 20
105.194
 30
0.0
 11
315.896
 21
105.12
 31
0.0
  0
LINE
  8
0
 62
     0
 10
315.896
 20
105.12
 30
0.0
 11
316.359
 21
105.194
 31
0.0
  0
LINE
  8
0
 62
     0
 10
316.359
 20
105.194
 30
0.0
 11
316.776
 21
105.406
 31
0.0
  0
LINE
  8
0
 62
     0
 10
316.776
 20
105.406
 30
0.0
 11
317.109
 21
105.738
 31
0.0
  0
LINE
  8
0
 62
     0
 10
317.109
 20
105.738
 30
0.0
 11
317.321
 21
106.156
 31
0.0
  0
LINE
  8
0
 62
     0
 10
317.321
 20
106.156
 30
0.0
 11
317.395
 21
106.619
 31
0.0
  0
LINE
  8
0
 62
     0
 10
317.395
 20
106.619
 30
0.0
 11
317.321
 21
107.083
 31
0.0
  0
LINE
  8
0
 62
     0
 10
317.321
 20
107.083
 30
0.0
 11
317.109
 21
107.501
 31
0.0
  0
LINE
  8
0
 62
     0
 10
317.109
 20
107.501
 30
0.0
 11
316.776
 21
107.833
 31
0.0
  0
LINE
  8
0
 62
     0
 10
316.776
 20
107.833
 30
0.0
 11
316.359
 21
108.046
 31
0.0
  0
LINE
  8
0
 62
     0
 10
316.359
 20
108.046
 30
0.0
 11
315.896
 21
108.119
 31
0.0
  0
LINE
  8
0
 62
     0
 10
315.896
 20
108.119
 30
0.0
 11
315.432
 21
108.046
 31
0.0
  0
LINE
  8
0
 62
     0
 10
2.63067
 20
108.046
 30
0.0
 11
2.21313
 21
107.833
 31
0.0
  0
LINE
  8
0
 62
     0
 10
2.21313
 20
107.833
 30
0.0
 11
1.88102
 21
107.501
 31
0.0
  0
LINE
  8
0
 62
     0
 10
1.88102
 20
107.501
 30
0.0
 11
1.66743
 21
107.083
 31
0.0
  0
LINE
  8
0
 62
     0
 10
1.66743
 20
107.083
 30
0.0
 11
1.59439
 21
106.619
 31
0.0
  0
LINE
  8
0
 62
     0
 10
1.59439
 20
106.619
 30
0.0
 11
1.66743
 21
106.156
 31
0.0
  0
LINE
  8
0
 62
     0
 10
1.66743
 20
106.156
 30
0.0
 11
1.88102
 21
105.738
 31
0.0
  0
LINE
  8
0
 62
     0
 10
1.88102
 20
105.738
 30
0.0
 11
2.21313
 21
105.406
 31
0.0
  0
LINE
  8
0
 62
     0
 10
2.21313
 20
105.406
 30
0.0
 11
2.63067
 21
105.194
 31
0.0
  0
LINE
  8
0
 62
     0
 10
2.63067
 20
105.194
 30
0.0
 11
3.09507
 21
105.12
 31
0.0
  0
LINE
  8
0
 62
     0
 10
3.09507
 20
105.12
 30
0.0
 11
3.55808
 21
105.194
 31
0.0
  0
LINE
  8
0
 62
     0
 10
3.55808
 20
105.194
 30
0.0
 11
3.97563
 21
105.406
 31
0.0
  0
LINE
  8
0
 62
     0
 10
3.97563
 20
105.406
 30
0.0
 11
4.30773
 21
105.738
 31
0.0
  0
LINE
  8
0
 62
     0
 10
4.30773
 20
105.738
 30
0.0
 11
4.51997
 21
106.156
 31
0.0
  0
LINE
  8
0
 62
     0
 10
4.51997
 20
106.156
 30
0.0
 11
4.59437
 21
106.619
 31
0.0
  0
LINE
  8
0
 62
     0
 10
4.59437
 20
106.619
 30
0.0
 11
4.51997
 21
107.083
 31
0.0
  0
LINE
  8
0
 62
     0
 10
4.51997
 20
107.083
 30
0.0
 11
4.30773
 21
107.501
 31
0.0
  0
LINE
  8
0
 62
     0
 10
4.30773
 20
107.501
 30
0.0
 11
3.97563
 21
107.833
 31
0.0
  0
LINE
  8
0
 62
     0
 10
3.97563
 20
107.833
 30
0.0
 11
3.55808
 21
108.046
 31
0.0
  0
LINE
  8
0
 62
     0
 10
3.55808
 20
108.046
 30
0.0
 11
3.09507
 21
108.119
 31
0.0
  0
LINE
  8
0
 62
     0
 10
3.09507
 20
108.119
 30
0.0
 11
2.63067
 21
108.046
 31
0.0
  0
ENDSEC
  0
EOF
