<?xml version="1.0"?>
<!-- Generated by SVGo -->
<svg width="328.801mm" height="119.250mm"
     viewBox="0.000 0.000 328.801 119.250"
     xmlns="http://www.w3.org/2000/svg" 
     xmlns:xlink="http://www.w3.org/1999/xlink">
<polygon points="323.801,114.250 5.000,114.250 5.000,5.000 323.801,5.000" style="fill:none;stroke-width:0.050000mm;stroke:black"/>
<polygon points="320.337,109.824 319.919,110.037 319.587,110.369 319.374,110.787 319.301,111.250 319.374,111.714 319.587,112.132 319.919,112.464 320.337,112.677 320.801,112.750 321.264,112.677 321.682,112.464 322.014,112.132 322.227,111.714 322.301,111.250 322.227,110.787 322.014,110.369 321.682,110.037 321.264,109.824 320.801,109.750" style="fill:none;stroke-width:0.050000mm;stroke:black"/>
<polygon points="216.070,109.824 215.652,110.037 215.320,110.369 215.107,110.787 215.034,111.250 215.107,111.714 215.320,112.132 215.652,112.464 216.070,112.677 216.534,112.750 216.997,112.677 217.415,112.464 217.747,112.132 217.960,111.714 218.034,111.250 217.960,110.787 217.747,110.369 217.415,110.037 216.997,109.824 216.534,109.750" style="fill:none;stroke-width:0.050000mm;stroke:black"/>
<polygon points="111.803,109.824 111.385,110.037 111.053,110.369 110.840,110.787 110.767,111.250 110.840,111.714 111.053,112.132 111.385,112.464 111.803,112.677 112.267,112.750 112.730,112.677 113.148,112.464 113.480,112.132 113.693,111.714 113.767,111.250 113.693,110.787 113.480,110.369 113.148,110.037 112.730,109.824 112.267,109.750" style="fill:none;stroke-width:0.050000mm;stroke:black"/>
<polygon points="7.536,109.824 7.118,110.037 6.786,110.369 6.573,110.787 6.500,111.250 6.573,111.714 6.786,112.132 7.118,112.464 7.536,112.677 8.000,112.750 8.463,112.677 8.881,112.464 9.213,112.132 9.426,111.714 9.500,111.250 9.426,110.787 9.213,110.369 8.881,110.037 8.463,109.824 8.000,109.750" style="fill:none;stroke-width:0.050000mm;stroke:black"/>
<polygon points="109.775,90.725 109.775,91.725 108.975,91.725 108.975,94.824 109.775,94.824 109.775,95.425 101.100,95.425 101.100,92.195 99.375,92.195 99.375,91.274 96.075,91.274 96.075,92.195 94.350,92.195 94.350,95.425 93.525,95.425 93.525,98.225 94.350,98.225 94.350,104.494 96.075,104.494 96.075,105.475 99.375,105.475 99.375,104.494 101.100,104.494 101.100,100.024 109.775,100.024 109.775,100.625 108.975,100.625 108.975,103.725 109.775,103.725 109.775,104.725 123.775,104.725 123.775,103.725 124.575,103.725 124.575,100.625 123.775,100.625 123.775,100.024 132.450,100.024 132.450,104.494 134.175,104.494 134.175,105.475 137.475,105.475 137.475,104.494 139.200,104.494 139.200,98.225 140.025,98.225 140.025,95.425 139.200,95.425 139.200,92.195 137.475,92.195 137.475,91.274 134.175,91.274 134.175,92.195 132.450,92.195 132.450,95.425 123.775,95.425 123.775,94.824 124.575,94.824 124.575,91.725 123.775,91.725 123.775,90.725" style="fill:none;stroke-width:0.050000mm;stroke:black"/>
<polygon points="185.975,90.725 185.975,91.725 185.174,91.725 185.174,94.824 185.975,94.824 185.975,95.425 177.299,95.425 177.299,92.195 175.575,92.195 175.575,91.274 172.275,91.274 172.275,92.195 170.549,92.195 170.549,95.425 169.725,95.425 169.725,98.225 170.549,98.225 170.549,104.494 172.275,104.494 172.275,105.475 175.575,105.475 175.575,104.494 177.299,104.494 177.299,100.024 185.975,100.024 185.975,100.625 185.174,100.625 185.174,103.725 185.975,103.725 185.975,104.725 199.975,104.725 199.975,103.725 200.775,103.725 200.775,100.625 199.975,100.625 199.975,100.024 208.650,100.024 208.650,104.494 210.375,104.494 210.375,105.475 213.674,105.475 213.674,104.494 215.400,104.494 215.400,98.225 216.225,98.225 216.225,95.425 215.400,95.425 215.400,92.195 213.674,92.195 213.674,91.274 210.375,91.274 210.375,92.195 208.650,92.195 208.650,95.425 199.975,95.425 199.975,94.824 200.775,94.824 200.775,91.725 199.975,91.725 199.975,90.725" style="fill:none;stroke-width:0.050000mm;stroke:black"/>
<polygon points="45.481,90.725 45.481,91.725 44.681,91.725 44.681,94.824 45.481,94.824 45.481,100.625 44.681,100.625 44.681,103.725 45.481,103.725 45.481,104.725 59.481,104.725 59.481,103.725 60.281,103.725 60.281,100.625 59.481,100.625 59.481,94.824 60.281,94.824 60.281,91.725 59.481,91.725 59.481,90.725" style="fill:none;stroke-width:0.050000mm;stroke:black"/>
<polygon points="69.293,90.725 69.293,91.725 68.493,91.725 68.493,94.824 69.293,94.824 69.293,100.625 68.493,100.625 68.493,103.725 69.293,103.725 69.293,104.725 83.293,104.725 83.293,103.725 84.093,103.725 84.093,100.625 83.293,100.625 83.293,94.824 84.093,94.824 84.093,91.725 83.293,91.725 83.293,90.725" style="fill:none;stroke-width:0.050000mm;stroke:black"/>
<polygon points="147.875,90.725 147.875,91.725 147.075,91.725 147.075,94.824 147.875,94.824 147.875,100.625 147.075,100.625 147.075,103.725 147.875,103.725 147.875,104.725 161.875,104.725 161.875,103.725 162.675,103.725 162.675,100.625 161.875,100.625 161.875,94.824 162.675,94.824 162.675,91.725 161.875,91.725 161.875,90.725" style="fill:none;stroke-width:0.050000mm;stroke:black"/>
<polygon points="226.456,90.725 226.456,91.725 225.656,91.725 225.656,94.824 226.456,94.824 226.456,100.625 225.656,100.625 225.656,103.725 226.456,103.725 226.456,104.725 240.456,104.725 240.456,103.725 241.256,103.725 241.256,100.625 240.456,100.625 240.456,94.824 241.256,94.824 241.256,91.725 240.456,91.725 240.456,90.725" style="fill:none;stroke-width:0.050000mm;stroke:black"/>
<polygon points="247.887,90.725 247.887,91.725 247.087,91.725 247.087,94.824 247.887,94.824 247.887,100.625 247.087,100.625 247.087,103.725 247.887,103.725 247.887,104.725 261.887,104.725 261.887,103.725 262.687,103.725 262.687,100.625 261.887,100.625 261.887,94.824 262.687,94.824 262.687,91.725 261.887,91.725 261.887,90.725" style="fill:none;stroke-width:0.050000mm;stroke:black"/>
<polygon points="269.318,90.725 269.318,91.725 268.518,91.725 268.518,94.824 269.318,94.824 269.318,100.625 268.518,100.625 268.518,103.725 269.318,103.725 269.318,104.725 283.318,104.725 283.318,103.725 284.118,103.725 284.118,100.625 283.318,100.625 283.318,94.824 284.118,94.824 284.118,91.725 283.318,91.725 283.318,90.725" style="fill:none;stroke-width:0.050000mm;stroke:black"/>
<polygon points="252.650,71.675 252.650,72.675 251.850,72.675 251.850,75.774 252.650,75.774 252.650,76.375 251.125,76.375 251.125,73.145 249.400,73.145 249.400,72.225 246.100,72.225 246.100,73.145 244.375,73.145 244.375,76.375 243.550,76.375 243.550,79.175 244.375,79.175 244.375,85.445 246.100,85.445 246.100,86.425 249.400,86.425 249.400,85.445 251.125,85.445 251.125,80.975 252.650,80.975 252.650,81.575 251.850,81.575 251.850,84.675 252.650,84.675 252.650,85.675 266.650,85.675 266.650,84.675 267.450,84.675 267.450,81.575 266.650,81.575 266.650,80.975 268.175,80.975 268.175,85.445 269.900,85.445 269.900,86.425 273.200,86.425 273.200,85.445 274.925,85.445 274.925,79.175 275.750,79.175 275.750,76.375 274.925,76.375 274.925,73.145 273.200,73.145 273.200,72.225 269.900,72.225 269.900,73.145 268.175,73.145 268.175,76.375 266.650,76.375 266.650,75.774 267.450,75.774 267.450,72.675 266.650,72.675 266.650,71.675" style="fill:none;stroke-width:0.050000mm;stroke:black"/>
<polygon points="33.575,71.675 33.575,72.675 32.775,72.675 32.775,75.774 33.575,75.774 33.575,81.575 32.775,81.575 32.775,84.675 33.575,84.675 33.575,85.675 47.575,85.675 47.575,84.675 48.375,84.675 48.375,81.575 47.575,81.575 47.575,75.774 48.375,75.774 48.375,72.675 47.575,72.675 47.575,71.675" style="fill:none;stroke-width:0.050000mm;stroke:black"/>
<polygon points="52.625,71.675 52.625,72.675 51.825,72.675 51.825,75.774 52.625,75.774 52.625,81.575 51.825,81.575 51.825,84.675 52.625,84.675 52.625,85.675 66.625,85.675 66.625,84.675 67.425,84.675 67.425,81.575 66.625,81.575 66.625,75.774 67.425,75.774 67.425,72.675 66.625,72.675 66.625,71.675" style="fill:none;stroke-width:0.050000mm;stroke:black"/>
<polygon points="71.675,71.675 71.675,72.675 70.875,72.675 70.875,75.774 71.675,75.774 71.675,81.575 70.875,81.575 70.875,84.675 71.675,84.675 71.675,85.675 85.675,85.675 85.675,84.675 86.475,84.675 86.475,81.575 85.675,81.575 85.675,75.774 86.475,75.774 86.475,72.675 85.675,72.675 85.675,71.675" style="fill:none;stroke-width:0.050000mm;stroke:black"/>
<polygon points="90.725,71.675 90.725,72.675 89.925,72.675 89.925,75.774 90.725,75.774 90.725,81.575 89.925,81.575 89.925,84.675 90.725,84.675 90.725,85.675 104.725,85.675 104.725,84.675 105.524,84.675 105.524,81.575 104.725,81.575 104.725,75.774 105.524,75.774 105.524,72.675 104.725,72.675 104.725,71.675" style="fill:none;stroke-width:0.050000mm;stroke:black"/>
<polygon points="109.774,71.675 109.774,72.675 108.975,72.675 108.975,75.774 109.774,75.774 109.774,81.575 108.975,81.575 108.975,84.675 109.774,84.675 109.774,85.675 123.774,85.675 123.774,84.675 124.574,84.675 124.574,81.575 123.774,81.575 123.774,75.774 124.574,75.774 124.574,72.675 123.774,72.675 123.774,71.675" style="fill:none;stroke-width:0.050000mm;stroke:black"/>
<polygon points="128.824,71.675 128.824,72.675 128.024,72.675 128.024,75.774 128.824,75.774 128.824,81.575 128.024,81.575 128.024,84.675 128.824,84.675 128.824,85.675 142.825,85.675 142.825,84.675 143.625,84.675 143.625,81.575 142.825,81.575 142.825,75.774 143.625,75.774 143.625,72.675 142.825,72.675 142.825,71.675" style="fill:none;stroke-width:0.050000mm;stroke:black"/>
<polygon points="147.875,71.675 147.875,72.675 147.075,72.675 147.075,75.774 147.875,75.774 147.875,81.575 147.075,81.575 147.075,84.675 147.875,84.675 147.875,85.675 161.875,85.675 161.875,84.675 162.675,84.675 162.675,81.575 161.875,81.575 161.875,75.774 162.675,75.774 162.675,72.675 161.875,72.675 161.875,71.675" style="fill:none;stroke-width:0.050000mm;stroke:black"/>
<polygon points="166.925,71.675 166.925,72.675 166.125,72.675 166.125,75.774 166.925,75.774 166.925,81.575 166.125,81.575 166.125,84.675 166.925,84.675 166.925,85.675 180.925,85.675 180.925,84.675 181.725,84.675 181.725,81.575 180.925,81.575 180.925,75.774 181.725,75.774 181.725,72.675 180.925,72.675 180.925,71.675" style="fill:none;stroke-width:0.050000mm;stroke:black"/>
<polygon points="185.975,71.675 185.975,72.675 185.175,72.675 185.175,75.774 185.975,75.774 185.975,81.575 185.175,81.575 185.175,84.675 185.975,84.675 185.975,85.675 199.975,85.675 199.975,84.675 200.775,84.675 200.775,81.575 199.975,81.575 199.975,75.774 200.775,75.774 200.775,72.675 199.975,72.675 199.975,71.675" style="fill:none;stroke-width:0.050000mm;stroke:black"/>
<polygon points="205.025,71.675 205.025,72.675 204.225,72.675 204.225,75.774 205.025,75.774 205.025,81.575 204.225,81.575 204.225,84.675 205.025,84.675 205.025,85.675 219.025,85.675 219.025,84.675 219.825,84.675 219.825,81.575 219.025,81.575 219.025,75.774 219.825,75.774 219.825,72.675 219.025,72.675 219.025,71.675" style="fill:none;stroke-width:0.050000mm;stroke:black"/>
<polygon points="224.075,71.675 224.075,72.675 223.275,72.675 223.275,75.774 224.075,75.774 224.075,81.575 223.275,81.575 223.275,84.675 224.075,84.675 224.075,85.675 238.075,85.675 238.075,84.675 238.875,84.675 238.875,81.575 238.075,81.575 238.075,75.774 238.875,75.774 238.875,72.675 238.075,72.675 238.075,71.675" style="fill:none;stroke-width:0.050000mm;stroke:black"/>
<polygon points="281.225,71.675 281.225,72.675 280.425,72.675 280.425,75.774 281.225,75.774 281.225,81.575 280.425,81.575 280.425,84.675 281.225,84.675 281.225,85.675 295.225,85.675 295.225,84.675 296.025,84.675 296.025,81.575 295.225,81.575 295.225,75.774 296.025,75.774 296.025,72.675 295.225,72.675 295.225,71.675" style="fill:none;stroke-width:0.050000mm;stroke:black"/>
<polygon points="274.081,52.625 274.081,53.625 273.281,53.625 273.281,56.725 274.081,56.725 274.081,57.325 272.556,57.325 272.556,54.095 270.831,54.095 270.831,53.175 267.531,53.175 267.531,54.095 265.806,54.095 265.806,57.325 264.981,57.325 264.981,60.125 265.806,60.125 265.806,66.395 267.531,66.395 267.531,67.375 270.831,67.375 270.831,66.395 272.556,66.395 272.556,61.925 274.081,61.925 274.081,62.525 273.281,62.525 273.281,65.625 274.081,65.625 274.081,66.625 288.081,66.625 288.081,65.625 288.881,65.625 288.881,62.525 288.081,62.525 288.081,61.925 289.606,61.925 289.606,66.395 291.331,66.395 291.331,67.375 294.631,67.375 294.631,66.395 296.356,66.395 296.356,60.125 297.181,60.125 297.181,57.325 296.356,57.325 296.356,54.095 294.631,54.095 294.631,53.175 291.331,53.175 291.331,54.095 289.606,54.095 289.606,57.325 288.081,57.325 288.081,56.725 288.881,56.725 288.881,53.625 288.081,53.625 288.081,52.625" style="fill:none;stroke-width:0.050000mm;stroke:black"/>
<polygon points="31.193,52.625 31.193,53.625 30.393,53.625 30.393,56.725 31.193,56.725 31.193,62.525 30.393,62.525 30.393,65.625 31.193,65.625 31.193,66.625 45.193,66.625 45.193,65.625 45.993,65.625 45.993,62.525 45.193,62.525 45.193,56.725 45.993,56.725 45.993,53.625 45.193,53.625 45.193,52.625" style="fill:none;stroke-width:0.050000mm;stroke:black"/>
<polygon points="52.625,52.625 52.625,53.625 51.825,53.625 51.825,56.725 52.625,56.725 52.625,62.525 51.825,62.525 51.825,65.625 52.625,65.625 52.625,66.625 66.625,66.625 66.625,65.625 67.425,65.625 67.425,62.525 66.625,62.525 66.625,56.725 67.425,56.725 67.425,53.625 66.625,53.625 66.625,52.625" style="fill:none;stroke-width:0.050000mm;stroke:black"/>
<polygon points="71.675,52.625 71.675,53.625 70.875,53.625 70.875,56.725 71.675,56.725 71.675,62.525 70.875,62.525 70.875,65.625 71.675,65.625 71.675,66.625 85.675,66.625 85.675,65.625 86.475,65.625 86.475,62.525 85.675,62.525 85.675,56.725 86.475,56.725 86.475,53.625 85.675,53.625 85.675,52.625" style="fill:none;stroke-width:0.050000mm;stroke:black"/>
<polygon points="90.725,52.625 90.725,53.625 89.925,53.625 89.925,56.725 90.725,56.725 90.725,62.525 89.925,62.525 89.925,65.625 90.725,65.625 90.725,66.625 104.725,66.625 104.725,65.625 105.524,65.625 105.524,62.525 104.725,62.525 104.725,56.725 105.524,56.725 105.524,53.625 104.725,53.625 104.725,52.625" style="fill:none;stroke-width:0.050000mm;stroke:black"/>
<polygon points="109.774,52.625 109.774,53.625 108.975,53.625 108.975,56.725 109.774,56.725 109.774,62.525 108.975,62.525 108.975,65.625 109.774,65.625 109.774,66.625 123.774,66.625 123.774,65.625 124.574,65.625 124.574,62.525 123.774,62.525 123.774,56.725 124.574,56.725 124.574,53.625 123.774,53.625 123.774,52.625" style="fill:none;stroke-width:0.050000mm;stroke:black"/>
<polygon points="128.824,52.625 128.824,53.625 128.024,53.625 128.024,56.725 128.824,56.725 128.824,62.525 128.024,62.525 128.024,65.625 128.824,65.625 128.824,66.625 142.825,66.625 142.825,65.625 143.625,65.625 143.625,62.525 142.825,62.525 142.825,56.725 143.625,56.725 143.625,53.625 142.825,53.625 142.825,52.625" style="fill:none;stroke-width:0.050000mm;stroke:black"/>
<polygon points="147.875,52.625 147.875,53.625 147.075,53.625 147.075,56.725 147.875,56.725 147.875,62.525 147.075,62.525 147.075,65.625 147.875,65.625 147.875,66.625 161.875,66.625 161.875,65.625 162.675,65.625 162.675,62.525 161.875,62.525 161.875,56.725 162.675,56.725 162.675,53.625 161.875,53.625 161.875,52.625" style="fill:none;stroke-width:0.050000mm;stroke:black"/>
<polygon points="166.925,52.625 166.925,53.625 166.125,53.625 166.125,56.725 166.925,56.725 166.925,62.525 166.125,62.525 166.125,65.625 166.925,65.625 166.925,66.625 180.925,66.625 180.925,65.625 181.725,65.625 181.725,62.525 180.925,62.525 180.925,56.725 181.725,56.725 181.725,53.625 180.925,53.625 180.925,52.625" style="fill:none;stroke-width:0.050000mm;stroke:black"/>
<polygon points="185.975,52.625 185.975,53.625 185.175,53.625 185.175,56.725 185.975,56.725 185.975,62.525 185.175,62.525 185.175,65.625 185.975,65.625 185.975,66.625 199.975,66.625 199.975,65.625 200.775,65.625 200.775,62.525 199.975,62.525 199.975,56.725 200.775,56.725 200.775,53.625 199.975,53.625 199.975,52.625" style="fill:none;stroke-width:0.050000mm;stroke:black"/>
<polygon points="205.025,52.625 205.025,53.625 204.225,53.625 204.225,56.725 205.025,56.725 205.025,62.525 204.225,62.525 204.225,65.625 205.025,65.625 205.025,66.625 219.025,66.625 219.025,65.625 219.825,65.625 219.825,62.525 219.025,62.525 219.025,56.725 219.825,56.725 219.825,53.625 219.025,53.625 219.025,52.625" style="fill:none;stroke-width:0.050000mm;stroke:black"/>
<polygon points="224.075,52.625 224.075,53.625 223.275,53.625 223.275,56.725 224.075,56.725 224.075,62.525 223.275,62.525 223.275,65.625 224.075,65.625 224.075,66.625 238.075,66.625 238.075,65.625 238.875,65.625 238.875,62.525 238.075,62.525 238.075,56.725 238.875,56.725 238.875,53.625 238.075,53.625 238.075,52.625" style="fill:none;stroke-width:0.050000mm;stroke:black"/>
<polygon points="243.125,52.625 243.125,53.625 242.325,53.625 242.325,56.725 243.125,56.725 243.125,62.525 242.325,62.525 242.325,65.625 243.125,65.625 243.125,66.625 257.125,66.625 257.125,65.625 257.925,65.625 257.925,62.525 257.125,62.525 257.125,56.725 257.925,56.725 257.925,53.625 257.125,53.625 257.125,52.625" style="fill:none;stroke-width:0.050000mm;stroke:black"/>
<polygon points="28.812,33.575 28.812,34.575 28.012,34.575 28.012,37.675 28.812,37.675 28.812,43.475 28.012,43.475 28.012,46.575 28.812,46.575 28.812,47.575 42.812,47.575 42.812,46.575 43.612,46.575 43.612,43.475 42.812,43.475 42.812,37.675 43.612,37.675 43.612,34.575 42.812,34.575 42.812,33.575" style="fill:none;stroke-width:0.050000mm;stroke:black"/>
<polygon points="52.625,33.575 52.625,34.575 51.825,34.575 51.825,37.675 52.625,37.675 52.625,43.475 51.825,43.475 51.825,46.575 52.625,46.575 52.625,47.575 66.625,47.575 66.625,46.575 67.425,46.575 67.425,43.475 66.625,43.475 66.625,37.675 67.425,37.675 67.425,34.575 66.625,34.575 66.625,33.575" style="fill:none;stroke-width:0.050000mm;stroke:black"/>
<polygon points="71.675,33.575 71.675,34.575 70.875,34.575 70.875,37.675 71.675,37.675 71.675,43.475 70.875,43.475 70.875,46.575 71.675,46.575 71.675,47.575 85.675,47.575 85.675,46.575 86.475,46.575 86.475,43.475 85.675,43.475 85.675,37.675 86.475,37.675 86.475,34.575 85.675,34.575 85.675,33.575" style="fill:none;stroke-width:0.050000mm;stroke:black"/>
<polygon points="90.725,33.575 90.725,34.575 89.925,34.575 89.925,37.675 90.725,37.675 90.725,43.475 89.925,43.475 89.925,46.575 90.725,46.575 90.725,47.575 104.725,47.575 104.725,46.575 105.524,46.575 105.524,43.475 104.725,43.475 104.725,37.675 105.524,37.675 105.524,34.575 104.725,34.575 104.725,33.575" style="fill:none;stroke-width:0.050000mm;stroke:black"/>
<polygon points="109.774,33.575 109.774,34.575 108.975,34.575 108.975,37.675 109.774,37.675 109.774,43.475 108.975,43.475 108.975,46.575 109.774,46.575 109.774,47.575 123.774,47.575 123.774,46.575 124.574,46.575 124.574,43.475 123.774,43.475 123.774,37.675 124.574,37.675 124.574,34.575 123.774,34.575 123.774,33.575" style="fill:none;stroke-width:0.050000mm;stroke:black"/>
<polygon points="128.824,33.575 128.824,34.575 128.024,34.575 128.024,37.675 128.824,37.675 128.824,43.475 128.024,43.475 128.024,46.575 128.824,46.575 128.824,47.575 142.825,47.575 142.825,46.575 143.625,46.575 143.625,43.475 142.825,43.475 142.825,37.675 143.625,37.675 143.625,34.575 142.825,34.575 142.825,33.575" style="fill:none;stroke-width:0.050000mm;stroke:black"/>
<polygon points="147.875,33.575 147.875,34.575 147.075,34.575 147.075,37.675 147.875,37.675 147.875,43.475 147.075,43.475 147.075,46.575 147.875,46.575 147.875,47.575 161.875,47.575 161.875,46.575 162.675,46.575 162.675,43.475 161.875,43.475 161.875,37.675 162.675,37.675 162.675,34.575 161.875,34.575 161.875,33.575" style="fill:none;stroke-width:0.050000mm;stroke:black"/>
<polygon points="166.925,33.575 166.925,34.575 166.125,34.575 166.125,37.675 166.925,37.675 166.925,43.475 166.125,43.475 166.125,46.575 166.925,46.575 166.925,47.575 180.925,47.575 180.925,46.575 181.725,46.575 181.725,43.475 180.925,43.475 180.925,37.675 181.725,37.675 181.725,34.575 180.925,34.575 180.925,33.575" style="fill:none;stroke-width:0.050000mm;stroke:black"/>
<polygon points="185.975,33.575 185.975,34.575 185.175,34.575 185.175,37.675 185.975,37.675 185.975,43.475 185.175,43.475 185.175,46.575 185.975,46.575 185.975,47.575 199.975,47.575 199.975,46.575 200.775,46.575 200.775,43.475 199.975,43.475 199.975,37.675 200.775,37.675 200.775,34.575 199.975,34.575 199.975,33.575" style="fill:none;stroke-width:0.050000mm;stroke:black"/>
<polygon points="205.025,33.575 205.025,34.575 204.225,34.575 204.225,37.675 205.025,37.675 205.025,43.475 204.225,43.475 204.225,46.575 205.025,46.575 205.025,47.575 219.025,47.575 219.025,46.575 219.825,46.575 219.825,43.475 219.025,43.475 219.025,37.675 219.825,37.675 219.825,34.575 219.025,34.575 219.025,33.575" style="fill:none;stroke-width:0.050000mm;stroke:black"/>
<polygon points="224.075,33.575 224.075,34.575 223.275,34.575 223.275,37.675 224.075,37.675 224.075,43.475 223.275,43.475 223.275,46.575 224.075,46.575 224.075,47.575 238.075,47.575 238.075,46.575 238.875,46.575 238.875,43.475 238.075,43.475 238.075,37.675 238.875,37.675 238.875,34.575 238.075,34.575 238.075,33.575" style="fill:none;stroke-width:0.050000mm;stroke:black"/>
<polygon points="243.125,33.575 243.125,34.575 242.325,34.575 242.325,37.675 243.125,37.675 243.125,43.475 242.325,43.475 242.325,46.575 243.125,46.575 243.125,47.575 257.125,47.575 257.125,46.575 257.925,46.575 257.925,43.475 257.125,43.475 257.125,37.675 257.925,37.675 257.925,34.575 257.125,34.575 257.125,33.575" style="fill:none;stroke-width:0.050000mm;stroke:black"/>
<polygon points="262.175,33.575 262.175,34.575 261.375,34.575 261.375,37.675 262.175,37.675 262.175,43.475 261.375,43.475 261.375,46.575 262.175,46.575 262.175,47.575 276.175,47.575 276.175,46.575 276.975,46.575 276.975,43.475 276.175,43.475 276.175,37.675 276.975,37.675 276.975,34.575 276.175,34.575 276.175,33.575" style="fill:none;stroke-width:0.050000mm;stroke:black"/>
<polygon points="285.987,33.575 285.987,34.575 285.187,34.575 285.187,37.675 285.987,37.675 285.987,43.475 285.187,43.475 285.187,46.575 285.987,46.575 285.987,47.575 299.987,47.575 299.987,46.575 300.787,46.575 300.787,43.475 299.987,43.475 299.987,37.675 300.787,37.675 300.787,34.575 299.987,34.575 299.987,33.575" style="fill:none;stroke-width:0.050000mm;stroke:black"/>
<polygon points="290.750,14.524 290.750,15.524 289.950,15.524 289.950,18.625 290.750,18.625 290.750,19.224 289.225,19.224 289.225,15.994 287.500,15.994 287.500,15.075 284.200,15.075 284.200,15.994 282.475,15.994 282.475,19.224 281.650,19.224 281.650,22.025 282.475,22.025 282.475,28.294 284.200,28.294 284.200,29.275 287.500,29.275 287.500,28.294 289.225,28.294 289.225,23.825 290.750,23.825 290.750,24.424 289.950,24.424 289.950,27.525 290.750,27.525 290.750,28.525 304.750,28.525 304.750,27.525 305.550,27.525 305.550,24.424 304.750,24.424 304.750,23.825 306.275,23.825 306.275,28.294 308.000,28.294 308.000,29.275 311.300,29.275 311.300,28.294 313.025,28.294 313.025,22.025 313.850,22.025 313.850,19.224 313.025,19.224 313.025,15.994 311.300,15.994 311.300,15.075 308.000,15.075 308.000,15.994 306.275,15.994 306.275,19.224 304.750,19.224 304.750,18.625 305.550,18.625 305.550,15.524 304.750,15.524 304.750,14.524" style="fill:none;stroke-width:0.050000mm;stroke:black"/>
<polygon points="14.524,14.524 14.524,15.524 13.724,15.524 13.724,18.625 14.524,18.625 14.524,24.424 13.724,24.424 13.724,27.525 14.524,27.525 14.524,28.525 28.525,28.525 28.525,27.525 29.325,27.525 29.325,24.424 28.525,24.424 28.525,18.625 29.325,18.625 29.325,15.524 28.525,15.524 28.525,14.524" style="fill:none;stroke-width:0.050000mm;stroke:black"/>
<polygon points="33.575,14.524 33.575,15.524 32.775,15.524 32.775,18.625 33.575,18.625 33.575,24.424 32.775,24.424 32.775,27.525 33.575,27.525 33.575,28.525 47.575,28.525 47.575,27.525 48.375,27.525 48.375,24.424 47.575,24.424 47.575,18.625 48.375,18.625 48.375,15.524 47.575,15.524 47.575,14.524" style="fill:none;stroke-width:0.050000mm;stroke:black"/>
<polygon points="52.625,14.524 52.625,15.524 51.825,15.524 51.825,18.625 52.625,18.625 52.625,24.424 51.825,24.424 51.825,27.525 52.625,27.525 52.625,28.525 66.625,28.525 66.625,27.525 67.425,27.525 67.425,24.424 66.625,24.424 66.625,18.625 67.425,18.625 67.425,15.524 66.625,15.524 66.625,14.524" style="fill:none;stroke-width:0.050000mm;stroke:black"/>
<polygon points="71.675,14.524 71.675,15.524 70.875,15.524 70.875,18.625 71.675,18.625 71.675,24.424 70.875,24.424 70.875,27.525 71.675,27.525 71.675,28.525 85.675,28.525 85.675,27.525 86.475,27.525 86.475,24.424 85.675,24.424 85.675,18.625 86.475,18.625 86.475,15.524 85.675,15.524 85.675,14.524" style="fill:none;stroke-width:0.050000mm;stroke:black"/>
<polygon points="90.725,14.524 90.725,15.524 89.925,15.524 89.925,18.625 90.725,18.625 90.725,24.424 89.925,24.424 89.925,27.525 90.725,27.525 90.725,28.525 104.725,28.525 104.725,27.525 105.524,27.525 105.524,24.424 104.725,24.424 104.725,18.625 105.524,18.625 105.524,15.524 104.725,15.524 104.725,14.524" style="fill:none;stroke-width:0.050000mm;stroke:black"/>
<polygon points="109.774,14.524 109.774,15.524 108.975,15.524 108.975,18.625 109.774,18.625 109.774,24.424 108.975,24.424 108.975,27.525 109.774,27.525 109.774,28.525 123.774,28.525 123.774,27.525 124.574,27.525 124.574,24.424 123.774,24.424 123.774,18.625 124.574,18.625 124.574,15.524 123.774,15.524 123.774,14.524" style="fill:none;stroke-width:0.050000mm;stroke:black"/>
<polygon points="128.824,14.524 128.824,15.524 128.024,15.524 128.024,18.625 128.824,18.625 128.824,24.424 128.024,24.424 128.024,27.525 128.824,27.525 128.824,28.525 142.825,28.525 142.825,27.525 143.625,27.525 143.625,24.424 142.825,24.424 142.825,18.625 143.625,18.625 143.625,15.524 142.825,15.524 142.825,14.524" style="fill:none;stroke-width:0.050000mm;stroke:black"/>
<polygon points="147.875,14.524 147.875,15.524 147.075,15.524 147.075,18.625 147.875,18.625 147.875,24.424 147.075,24.424 147.075,27.525 147.875,27.525 147.875,28.525 161.875,28.525 161.875,27.525 162.675,27.525 162.675,24.424 161.875,24.424 161.875,18.625 162.675,18.625 162.675,15.524 161.875,15.524 161.875,14.524" style="fill:none;stroke-width:0.050000mm;stroke:black"/>
<polygon points="166.925,14.524 166.925,15.524 166.125,15.524 166.125,18.625 166.925,18.625 166.925,24.424 166.125,24.424 166.125,27.525 166.925,27.525 166.925,28.525 180.925,28.525 180.925,27.525 181.725,27.525 181.725,24.424 180.925,24.424 180.925,18.625 181.725,18.625 181.725,15.524 180.925,15.524 180.925,14.524" style="fill:none;stroke-width:0.050000mm;stroke:black"/>
<polygon points="185.975,14.524 185.975,15.524 185.175,15.524 185.175,18.625 185.975,18.625 185.975,24.424 185.175,24.424 185.175,27.525 185.975,27.525 185.975,28.525 199.975,28.525 199.975,27.525 200.775,27.525 200.775,24.424 199.975,24.424 199.975,18.625 200.775,18.625 200.775,15.524 199.975,15.524 199.975,14.524" style="fill:none;stroke-width:0.050000mm;stroke:black"/>
<polygon points="205.025,14.524 205.025,15.524 204.225,15.524 204.225,18.625 205.025,18.625 205.025,24.424 204.225,24.424 204.225,27.525 205.025,27.525 205.025,28.525 219.025,28.525 219.025,27.525 219.825,27.525 219.825,24.424 219.025,24.424 219.025,18.625 219.825,18.625 219.825,15.524 219.025,15.524 219.025,14.524" style="fill:none;stroke-width:0.050000mm;stroke:black"/>
<polygon points="224.075,14.524 224.075,15.524 223.275,15.524 223.275,18.625 224.075,18.625 224.075,24.424 223.275,24.424 223.275,27.525 224.075,27.525 224.075,28.525 238.075,28.525 238.075,27.525 238.875,27.525 238.875,24.424 238.075,24.424 238.075,18.625 238.875,18.625 238.875,15.524 238.075,15.524 238.075,14.524" style="fill:none;stroke-width:0.050000mm;stroke:black"/>
<polygon points="243.125,14.524 243.125,15.524 242.325,15.524 242.325,18.625 243.125,18.625 243.125,24.424 242.325,24.424 242.325,27.525 243.125,27.525 243.125,28.525 257.125,28.525 257.125,27.525 257.925,27.525 257.925,24.424 257.125,24.424 257.125,18.625 257.925,18.625 257.925,15.524 257.125,15.524 257.125,14.524" style="fill:none;stroke-width:0.050000mm;stroke:black"/>
<polygon points="262.175,14.524 262.175,15.524 261.375,15.524 261.375,18.625 262.175,18.625 262.175,24.424 261.375,24.424 261.375,27.525 262.175,27.525 262.175,28.525 276.175,28.525 276.175,27.525 276.975,27.525 276.975,24.424 276.175,24.424 276.175,18.625 276.975,18.625 276.975,15.524 276.175,15.524 276.175,14.524" style="fill:none;stroke-width:0.050000mm;stroke:black"/>
<polygon points="111.803,6.573 111.385,6.786 111.053,7.118 110.840,7.536 110.767,8.000 110.840,8.463 111.053,8.881 111.385,9.213 111.803,9.426 112.267,9.500 112.730,9.426 113.148,9.213 113.480,8.881 113.693,8.463 113.767,8.000 113.693,7.536 113.480,7.118 113.148,6.786 112.730,6.573 112.267,6.500" style="fill:none;stroke-width:0.050000mm;stroke:black"/>
<polygon points="216.070,6.573 215.652,6.786 215.320,7.118 215.107,7.536 215.034,8.000 215.107,8.463 215.320,8.881 215.652,9.213 216.070,9.426 216.534,9.500 216.997,9.426 217.415,9.213 217.747,8.881 217.960,8.463 218.034,8.000 217.960,7.536 217.747,7.118 217.415,6.786 216.997,6.573 216.534,6.500" style="fill:none;stroke-width:0.050000mm;stroke:black"/>
<polygon points="320.337,6.573 319.919,6.786 319.587,7.118 319.374,7.536 319.301,8.000 319.374,8.463 319.587,8.881 319.919,9.213 320.337,9.426 320.801,9.500 321.264,9.426 321.682,9.213 322.014,8.881 322.227,8.463 322.301,8.000 322.227,7.536 322.014,7.118 321.682,6.786 321.264,6.573 320.801,6.500" style="fill:none;stroke-width:0.050000mm;stroke:black"/>
<polygon points="7.536,6.573 7.118,6.786 6.786,7.118 6.573,7.536 6.500,8.000 6.573,8.463 6.786,8.881 7.118,9.213 7.536,9.426 8.000,9.500 8.463,9.426 8.881,9.213 9.213,8.881 9.426,8.463 9.500,8.000 9.426,7.536 9.213,7.118 8.881,6.786 8.463,6.573 8.000,6.500" style="fill:none;stroke-width:0.050000mm;stroke:black"/>
</svg>
